# Blender 4.3.2
# www.blender.org
mtllib oneway.mtl
o Cube
v -0.000867 0.150000 0.021029
v -0.000867 0.158971 0.030000
v -0.000867 0.150025 0.021699
v -0.000867 0.150100 0.022366
v -0.000867 0.150225 0.023025
v -0.000867 0.150399 0.023673
v -0.000867 0.150620 0.024306
v -0.000867 0.150888 0.024921
v -0.000867 0.151202 0.025514
v -0.000867 0.151559 0.026082
v -0.000867 0.151957 0.026622
v -0.000867 0.152395 0.027131
v -0.000867 0.152869 0.027605
v -0.000867 0.153378 0.028043
v -0.000867 0.153918 0.028441
v -0.000867 0.154486 0.028798
v -0.000867 0.155079 0.029112
v -0.000867 0.155694 0.029380
v -0.000867 0.156327 0.029601
v -0.000867 0.156975 0.029775
v -0.000867 0.157634 0.029900
v -0.000867 0.158301 0.029975
v -0.000867 0.201029 0.030000
v -0.000867 0.210000 0.021029
v -0.000867 0.201699 0.029975
v -0.000867 0.202366 0.029900
v -0.000867 0.203025 0.029775
v -0.000867 0.203673 0.029601
v -0.000867 0.204306 0.029380
v -0.000867 0.204921 0.029112
v -0.000867 0.205514 0.028798
v -0.000867 0.206082 0.028441
v -0.000867 0.206622 0.028043
v -0.000867 0.207131 0.027605
v -0.000867 0.207605 0.027131
v -0.000867 0.208043 0.026622
v -0.000867 0.208441 0.026082
v -0.000867 0.208798 0.025514
v -0.000867 0.209112 0.024921
v -0.000867 0.209380 0.024306
v -0.000867 0.209601 0.023673
v -0.000867 0.209775 0.023025
v -0.000867 0.209900 0.022366
v -0.000867 0.209975 0.021699
v -0.000867 0.158971 -0.030000
v -0.000867 0.150000 -0.021029
v -0.000867 0.158301 -0.029975
v -0.000867 0.157634 -0.029900
v -0.000867 0.156975 -0.029775
v -0.000867 0.156327 -0.029601
v -0.000867 0.155694 -0.029380
v -0.000867 0.155079 -0.029112
v -0.000867 0.154486 -0.028798
v -0.000867 0.153918 -0.028441
v -0.000867 0.153378 -0.028043
v -0.000867 0.152869 -0.027605
v -0.000867 0.152395 -0.027131
v -0.000867 0.151957 -0.026622
v -0.000867 0.151559 -0.026082
v -0.000867 0.151202 -0.025514
v -0.000867 0.150888 -0.024921
v -0.000867 0.150620 -0.024306
v -0.000867 0.150399 -0.023673
v -0.000867 0.150225 -0.023025
v -0.000867 0.150100 -0.022366
v -0.000867 0.150025 -0.021699
v -0.000867 0.210000 -0.021029
v -0.000867 0.201029 -0.030000
v -0.000867 0.209975 -0.021699
v -0.000867 0.209900 -0.022366
v -0.000867 0.209775 -0.023025
v -0.000867 0.209601 -0.023673
v -0.000867 0.209380 -0.024306
v -0.000867 0.209112 -0.024921
v -0.000867 0.208798 -0.025514
v -0.000867 0.208441 -0.026082
v -0.000867 0.208043 -0.026622
v -0.000867 0.207605 -0.027131
v -0.000867 0.207131 -0.027605
v -0.000867 0.206622 -0.028043
v -0.000867 0.206082 -0.028441
v -0.000867 0.205514 -0.028798
v -0.000867 0.204921 -0.029112
v -0.000867 0.204306 -0.029380
v -0.000867 0.203673 -0.029601
v -0.000867 0.203025 -0.029775
v -0.000867 0.202366 -0.029900
v -0.000867 0.201699 -0.029975
v 0.005133 0.158971 0.030000
v 0.005133 0.150000 0.021029
v 0.005133 0.158301 0.029975
v 0.005133 0.157634 0.029900
v 0.005133 0.156975 0.029775
v 0.005133 0.156327 0.029601
v 0.005133 0.155694 0.029380
v 0.005133 0.155079 0.029112
v 0.005133 0.154486 0.028798
v 0.005133 0.153918 0.028441
v 0.005133 0.153378 0.028043
v 0.005133 0.152869 0.027605
v 0.005133 0.152395 0.027131
v 0.005133 0.151957 0.026622
v 0.005133 0.151559 0.026082
v 0.005133 0.151202 0.025514
v 0.005133 0.150888 0.024921
v 0.005133 0.150620 0.024306
v 0.005133 0.150399 0.023673
v 0.005133 0.150225 0.023025
v 0.005133 0.150100 0.022366
v 0.005133 0.150025 0.021699
v 0.005133 0.210000 0.021029
v 0.005133 0.201029 0.030000
v 0.005133 0.209975 0.021699
v 0.005133 0.209900 0.022366
v 0.005133 0.209775 0.023025
v 0.005133 0.209601 0.023673
v 0.005133 0.209380 0.024306
v 0.005133 0.209112 0.024921
v 0.005133 0.208798 0.025514
v 0.005133 0.208441 0.026082
v 0.005133 0.208043 0.026622
v 0.005133 0.207605 0.027131
v 0.005133 0.207131 0.027605
v 0.005133 0.206622 0.028043
v 0.005133 0.206082 0.028441
v 0.005133 0.205514 0.028798
v 0.005133 0.204921 0.029112
v 0.005133 0.204306 0.029380
v 0.005133 0.203673 0.029601
v 0.005133 0.203025 0.029775
v 0.005133 0.202366 0.029900
v 0.005133 0.201699 0.029975
v 0.005133 0.150000 -0.021029
v 0.005133 0.158971 -0.030000
v 0.005133 0.150025 -0.021699
v 0.005133 0.150100 -0.022366
v 0.005133 0.150225 -0.023025
v 0.005133 0.150399 -0.023673
v 0.005133 0.150620 -0.024306
v 0.005133 0.150888 -0.024921
v 0.005133 0.151202 -0.025514
v 0.005133 0.151559 -0.026082
v 0.005133 0.151957 -0.026622
v 0.005133 0.152395 -0.027131
v 0.005133 0.152869 -0.027605
v 0.005133 0.153378 -0.028043
v 0.005133 0.153918 -0.028441
v 0.005133 0.154486 -0.028798
v 0.005133 0.155079 -0.029112
v 0.005133 0.155694 -0.029380
v 0.005133 0.156327 -0.029601
v 0.005133 0.156975 -0.029775
v 0.005133 0.157634 -0.029900
v 0.005133 0.158301 -0.029975
v 0.005133 0.201029 -0.030000
v 0.005133 0.210000 -0.021029
v 0.005133 0.201699 -0.029975
v 0.005133 0.202366 -0.029900
v 0.005133 0.203025 -0.029775
v 0.005133 0.203673 -0.029601
v 0.005133 0.204306 -0.029380
v 0.005133 0.204921 -0.029112
v 0.005133 0.205514 -0.028798
v 0.005133 0.206082 -0.028441
v 0.005133 0.206622 -0.028043
v 0.005133 0.207131 -0.027605
v 0.005133 0.207605 -0.027131
v 0.005133 0.208043 -0.026622
v 0.005133 0.208441 -0.026082
v 0.005133 0.208798 -0.025514
v 0.005133 0.209112 -0.024921
v 0.005133 0.209380 -0.024306
v 0.005133 0.209601 -0.023673
v 0.005133 0.209775 -0.023025
v 0.005133 0.209900 -0.022366
v 0.005133 0.209975 -0.021699
vn -0.0000 -0.0000 1.0000
vn 1.0000 -0.0000 -0.0000
vn -0.0000 1.0000 -0.0000
vn -1.0000 -0.0000 -0.0000
vn -0.0000 -0.0000 -1.0000
vn -0.0000 -0.9993 -0.0374
vn -0.0000 -0.9937 -0.1120
vn -0.0000 -0.9826 -0.1859
vn -0.0000 -0.9659 -0.2588
vn -0.0000 -0.9439 -0.3303
vn -0.0000 -0.9166 -0.3999
vn -0.0000 -0.8841 -0.4673
vn -0.0000 -0.8467 -0.5320
vn -0.0000 -0.8046 -0.5938
vn -0.0000 -0.7580 -0.6523
vn -0.0000 -0.7071 -0.7071
vn -0.0000 -0.6523 -0.7580
vn -0.0000 -0.5938 -0.8046
vn -0.0000 -0.5320 -0.8467
vn -0.0000 -0.4673 -0.8841
vn -0.0000 -0.3999 -0.9166
vn -0.0000 -0.3303 -0.9439
vn -0.0000 -0.2588 -0.9659
vn -0.0000 -0.1859 -0.9826
vn -0.0000 -0.1120 -0.9937
vn -0.0000 -0.0374 -0.9993
vn -0.0000 0.9993 -0.0374
vn -0.0000 0.9937 -0.1120
vn -0.0000 0.9826 -0.1859
vn -0.0000 0.9659 -0.2588
vn -0.0000 0.9439 -0.3303
vn -0.0000 0.9166 -0.3999
vn -0.0000 0.8841 -0.4673
vn -0.0000 0.8467 -0.5320
vn -0.0000 0.8046 -0.5938
vn -0.0000 0.7580 -0.6523
vn -0.0000 0.7071 -0.7071
vn -0.0000 0.6523 -0.7580
vn -0.0000 0.5938 -0.8046
vn -0.0000 0.5320 -0.8467
vn -0.0000 0.4673 -0.8841
vn -0.0000 0.3999 -0.9166
vn -0.0000 0.3303 -0.9439
vn -0.0000 0.2588 -0.9659
vn -0.0000 0.1859 -0.9826
vn -0.0000 0.1120 -0.9937
vn -0.0000 0.0374 -0.9993
vn -0.0000 -0.9993 0.0374
vn -0.0000 -0.9937 0.1120
vn -0.0000 -0.9826 0.1859
vn -0.0000 -0.9659 0.2588
vn -0.0000 -0.9439 0.3303
vn -0.0000 -0.9166 0.3999
vn -0.0000 -0.8841 0.4673
vn -0.0000 -0.8467 0.5320
vn -0.0000 -0.8046 0.5938
vn -0.0000 -0.7580 0.6523
vn -0.0000 -0.7071 0.7071
vn -0.0000 -0.6523 0.7580
vn -0.0000 -0.5938 0.8046
vn -0.0000 -0.5320 0.8467
vn -0.0000 -0.4673 0.8841
vn -0.0000 -0.3999 0.9166
vn -0.0000 -0.3303 0.9439
vn -0.0000 -0.2588 0.9659
vn -0.0000 -0.1859 0.9826
vn -0.0000 -0.1120 0.9937
vn -0.0000 -0.0374 0.9993
vn -0.0000 0.9993 0.0374
vn -0.0000 0.9937 0.1120
vn -0.0000 0.9826 0.1859
vn -0.0000 0.9659 0.2588
vn -0.0000 0.9439 0.3303
vn -0.0000 0.9166 0.3999
vn -0.0000 0.8841 0.4673
vn -0.0000 0.8467 0.5320
vn -0.0000 0.8046 0.5938
vn -0.0000 0.7580 0.6523
vn -0.0000 0.7071 0.7071
vn -0.0000 0.6523 0.7580
vn -0.0000 0.5938 0.8046
vn -0.0000 0.5320 0.8467
vn -0.0000 0.4673 0.8841
vn -0.0000 0.3999 0.9166
vn -0.0000 0.3303 0.9439
vn -0.0000 0.2588 0.9659
vn -0.0000 0.1859 0.9826
vn -0.0000 0.1120 0.9937
vn -0.0000 0.0374 0.9993
vn -0.0000 -1.0000 -0.0000
vt 0.207536 0.924291
vt 0.016684 0.688590
vt 0.207536 0.688590
vt 0.016764 0.684832
vt 0.029145 0.647049
vt 0.045220 0.638313
vt 0.016684 0.923361
vt 0.207536 0.687659
vt 0.207536 0.923361
vt 0.207456 0.684832
vt 0.195075 0.647049
vt 0.179000 0.638313
vt 0.016684 0.924291
vt 0.207536 0.927118
vt 0.016684 0.927118
vt 0.207536 0.930854
vt 0.016684 0.930854
vt 0.207536 0.934548
vt 0.016684 0.934548
vt 0.207536 0.938180
vt 0.016684 0.938180
vt 0.207536 0.941729
vt 0.016684 0.941729
vt 0.207536 0.945175
vt 0.016684 0.945175
vt 0.207536 0.948499
vt 0.016684 0.948499
vt 0.207536 0.951683
vt 0.016684 0.951683
vt 0.207536 0.954708
vt 0.016684 0.954708
vt 0.207536 0.957558
vt 0.016684 0.957558
vt 0.207536 0.960216
vt 0.016684 0.654393
vt 0.207536 0.657243
vt 0.207536 0.654393
vt 0.016684 0.657243
vt 0.207536 0.660268
vt 0.016684 0.660268
vt 0.207536 0.663451
vt 0.016684 0.663451
vt 0.207536 0.666775
vt 0.016684 0.666775
vt 0.207536 0.670221
vt 0.016684 0.670221
vt 0.207536 0.673770
vt 0.016684 0.673770
vt 0.207536 0.677402
vt 0.016684 0.677402
vt 0.207536 0.681096
vt 0.016684 0.681096
vt 0.207536 0.684832
vt 0.016684 0.684832
vt 0.016684 0.960216
vt 0.207536 0.958488
vt 0.016684 0.955638
vt 0.016684 0.958488
vt 0.207536 0.955638
vt 0.016684 0.952613
vt 0.207536 0.952613
vt 0.016684 0.949430
vt 0.207536 0.949430
vt 0.016684 0.946105
vt 0.207536 0.946105
vt 0.016684 0.942659
vt 0.207536 0.942659
vt 0.016684 0.939111
vt 0.207536 0.939111
vt 0.016684 0.935479
vt 0.207536 0.935479
vt 0.016684 0.931785
vt 0.207536 0.931785
vt 0.016684 0.928048
vt 0.207536 0.928048
vt 0.016684 0.683902
vt 0.016684 0.687659
vt 0.207536 0.683902
vt 0.016684 0.680166
vt 0.207536 0.680166
vt 0.016684 0.676471
vt 0.207536 0.676471
vt 0.016684 0.672840
vt 0.207536 0.672840
vt 0.016684 0.669291
vt 0.207536 0.669291
vt 0.016684 0.665845
vt 0.207536 0.665845
vt 0.016684 0.662521
vt 0.207536 0.662521
vt 0.016684 0.659337
vt 0.207536 0.659337
vt 0.016684 0.656312
vt 0.207536 0.656312
vt 0.016684 0.653462
vt 0.207536 0.653462
vt 0.016684 0.650804
vt 0.207536 0.650804
vt 0.181132 0.638453
vt 0.183253 0.638874
vt 0.185350 0.639573
vt 0.187411 0.640546
vt 0.193268 0.645049
vt 0.189425 0.641788
vt 0.191381 0.643292
vt 0.196792 0.649282
vt 0.198409 0.651734
vt 0.199918 0.654393
vt 0.201310 0.657243
vt 0.202577 0.660268
vt 0.203713 0.663451
vt 0.204710 0.666775
vt 0.205563 0.670221
vt 0.206268 0.673770
vt 0.206820 0.677402
vt 0.207217 0.681096
vt 0.207456 0.928048
vt 0.179000 0.974568
vt 0.207217 0.931785
vt 0.206820 0.935479
vt 0.206268 0.939111
vt 0.205563 0.942659
vt 0.204710 0.946105
vt 0.203713 0.949430
vt 0.202577 0.952613
vt 0.201310 0.955638
vt 0.199918 0.958488
vt 0.198409 0.961147
vt 0.196792 0.963599
vt 0.195075 0.965832
vt 0.193268 0.967832
vt 0.187411 0.972334
vt 0.191381 0.969589
vt 0.189425 0.971092
vt 0.185350 0.973307
vt 0.183253 0.974006
vt 0.181132 0.974427
vt 0.045220 0.974568
vt 0.043087 0.974427
vt 0.017003 0.931785
vt 0.040967 0.974006
vt 0.038870 0.973307
vt 0.036809 0.972334
vt 0.030952 0.967832
vt 0.034794 0.971092
vt 0.032839 0.969589
vt 0.029145 0.965832
vt 0.027428 0.963599
vt 0.025810 0.961147
vt 0.024301 0.958488
vt 0.022909 0.955638
vt 0.021642 0.952613
vt 0.020507 0.949430
vt 0.019510 0.946105
vt 0.018656 0.942659
vt 0.017952 0.939111
vt 0.017399 0.935479
vt 0.016764 0.928048
vt 0.017003 0.681096
vt 0.017399 0.677402
vt 0.017952 0.673770
vt 0.018656 0.670221
vt 0.019510 0.666775
vt 0.020507 0.663451
vt 0.021642 0.660268
vt 0.022909 0.657243
vt 0.024301 0.654393
vt 0.025810 0.651734
vt 0.027428 0.649282
vt 0.030952 0.645049
vt 0.036809 0.640546
vt 0.032839 0.643292
vt 0.034794 0.641788
vt 0.038870 0.639573
vt 0.040967 0.638874
vt 0.043087 0.638453
s 0
usemtl Material.001
f 112/1/1 2/2/1 89/3/1
f 91/4/2 103/5/2 90/6/2
f 67/7/3 111/8/3 156/9/3
f 47/10/4 59/11/4 46/12/4
f 68/13/5 134/3/5 45/2/5
f 46/7/6 135/14/6 133/9/6
f 66/15/7 136/16/7 135/14/7
f 65/17/8 137/18/8 136/16/8
f 64/19/9 138/20/9 137/18/9
f 63/21/10 139/22/10 138/20/10
f 62/23/11 140/24/11 139/22/11
f 61/25/12 141/26/12 140/24/12
f 60/27/13 142/28/13 141/26/13
f 59/29/14 143/30/14 142/28/14
f 58/31/15 144/32/15 143/30/15
f 57/33/16 145/34/16 144/32/16
f 56/35/17 146/36/17 145/37/17
f 55/38/18 147/39/18 146/36/18
f 54/40/19 148/41/19 147/39/19
f 53/42/20 149/43/20 148/41/20
f 52/44/21 150/45/21 149/43/21
f 51/46/22 151/47/22 150/45/22
f 50/48/23 152/49/23 151/47/23
f 49/50/24 153/51/24 152/49/24
f 48/52/25 154/53/25 153/51/25
f 47/54/26 134/3/26 154/53/26
f 156/9/27 69/15/27 67/7/27
f 176/14/28 70/17/28 69/15/28
f 175/16/29 71/19/29 70/17/29
f 174/18/30 72/21/30 71/19/30
f 173/20/31 73/23/31 72/21/31
f 172/22/32 74/25/32 73/23/32
f 171/24/33 75/27/33 74/25/33
f 170/26/34 76/29/34 75/27/34
f 169/28/35 77/31/35 76/29/35
f 168/30/36 78/33/36 77/31/36
f 167/32/37 79/55/37 78/33/37
f 166/56/38 80/57/38 79/58/38
f 165/59/39 81/60/39 80/57/39
f 164/61/40 82/62/40 81/60/40
f 163/63/41 83/64/41 82/62/41
f 162/65/42 84/66/42 83/64/42
f 161/67/43 85/68/43 84/66/43
f 160/69/44 86/70/44 85/68/44
f 159/71/45 87/72/45 86/70/45
f 158/73/46 88/74/46 87/72/46
f 157/75/47 68/13/47 88/74/47
f 90/8/48 3/76/48 1/77/48
f 110/78/49 4/79/49 3/76/49
f 109/80/50 5/81/50 4/79/50
f 108/82/51 6/83/51 5/81/51
f 107/84/52 7/85/52 6/83/52
f 106/86/53 8/87/53 7/85/53
f 105/88/54 9/89/54 8/87/54
f 104/90/55 10/91/55 9/89/55
f 103/92/56 11/93/56 10/91/56
f 102/94/57 12/95/57 11/93/57
f 101/96/58 13/97/58 12/95/58
f 100/37/59 14/38/59 13/35/59
f 99/36/60 15/40/60 14/38/60
f 98/39/61 16/42/61 15/40/61
f 97/41/62 17/44/62 16/42/62
f 96/43/63 18/46/63 17/44/63
f 95/45/64 19/48/64 18/46/64
f 94/47/65 20/50/65 19/48/65
f 93/49/66 21/52/66 20/50/66
f 92/51/67 22/54/67 21/52/67
f 91/53/68 2/2/68 22/54/68
f 24/77/69 113/78/69 111/8/69
f 44/76/70 114/80/70 113/78/70
f 43/79/71 115/82/71 114/80/71
f 42/81/72 116/84/72 115/82/72
f 41/83/73 117/86/73 116/84/73
f 40/85/74 118/88/74 117/86/74
f 39/87/75 119/90/75 118/88/75
f 38/89/76 120/92/76 119/90/76
f 37/91/77 121/94/77 120/92/77
f 36/93/78 122/96/78 121/94/78
f 35/95/79 123/98/79 122/96/79
f 34/58/80 124/59/80 123/56/80
f 33/57/81 125/61/81 124/59/81
f 32/60/82 126/63/82 125/61/82
f 31/62/83 127/65/83 126/63/83
f 30/64/84 128/67/84 127/65/84
f 29/66/85 129/69/85 128/67/85
f 28/68/86 130/71/86 129/69/86
f 27/70/87 131/73/87 130/71/87
f 26/72/88 132/75/88 131/73/88
f 25/74/89 112/1/89 132/75/89
f 133/9/90 1/77/90 46/7/90
f 112/1/1 23/13/1 2/2/1
f 90/6/2 133/12/2 134/3/2
f 133/12/2 135/99/2 134/3/2
f 135/99/2 136/100/2 137/101/2
f 137/101/2 138/102/2 141/103/2
f 138/102/2 139/104/2 141/103/2
f 139/104/2 140/105/2 141/103/2
f 141/103/2 142/11/2 143/106/2
f 143/106/2 144/107/2 145/108/2
f 145/108/2 146/109/2 147/110/2
f 147/110/2 148/111/2 149/112/2
f 149/112/2 150/113/2 151/114/2
f 151/114/2 152/115/2 149/112/2
f 152/115/2 153/116/2 149/112/2
f 153/116/2 154/10/2 134/3/2
f 134/3/2 155/1/2 90/6/2
f 155/1/2 157/117/2 156/118/2
f 90/6/2 155/1/2 156/118/2
f 157/117/2 158/119/2 159/120/2
f 159/120/2 160/121/2 161/122/2
f 161/122/2 162/123/2 163/124/2
f 163/124/2 164/125/2 165/126/2
f 165/126/2 166/127/2 167/128/2
f 167/128/2 168/129/2 165/126/2
f 168/129/2 169/130/2 165/126/2
f 169/130/2 170/131/2 173/132/2
f 170/131/2 171/133/2 173/132/2
f 171/133/2 172/134/2 173/132/2
f 173/132/2 174/135/2 156/118/2
f 174/135/2 175/136/2 156/118/2
f 175/136/2 176/137/2 156/118/2
f 156/118/2 111/138/2 90/6/2
f 111/138/2 113/139/2 131/140/2
f 90/6/2 111/138/2 112/13/2
f 113/139/2 114/141/2 115/142/2
f 115/142/2 116/143/2 119/144/2
f 116/143/2 117/145/2 119/144/2
f 117/145/2 118/146/2 119/144/2
f 119/144/2 120/147/2 121/148/2
f 121/148/2 122/149/2 123/150/2
f 123/150/2 124/151/2 125/152/2
f 125/152/2 126/153/2 127/154/2
f 127/154/2 128/155/2 129/156/2
f 129/156/2 130/157/2 127/154/2
f 130/157/2 131/140/2 127/154/2
f 131/140/2 132/158/2 112/13/2
f 112/13/2 89/2/2 90/6/2
f 89/2/2 91/4/2 90/6/2
f 91/4/2 92/159/2 93/160/2
f 93/160/2 94/161/2 95/162/2
f 95/162/2 96/163/2 97/164/2
f 97/164/2 98/165/2 99/166/2
f 99/166/2 100/167/2 101/168/2
f 101/168/2 102/169/2 99/166/2
f 102/169/2 103/5/2 99/166/2
f 103/5/2 104/170/2 107/171/2
f 104/170/2 105/172/2 107/171/2
f 105/172/2 106/173/2 107/171/2
f 107/171/2 108/174/2 90/6/2
f 108/174/2 109/175/2 90/6/2
f 109/175/2 110/176/2 90/6/2
f 135/99/2 137/101/2 153/116/2
f 141/103/2 143/106/2 145/108/2
f 145/108/2 147/110/2 141/103/2
f 147/110/2 149/112/2 141/103/2
f 153/116/2 134/3/2 135/99/2
f 157/117/2 159/120/2 165/126/2
f 159/120/2 161/122/2 165/126/2
f 161/122/2 163/124/2 165/126/2
f 113/139/2 115/142/2 131/140/2
f 111/138/2 131/140/2 112/13/2
f 119/144/2 121/148/2 123/150/2
f 123/150/2 125/152/2 131/140/2
f 125/152/2 127/154/2 131/140/2
f 91/4/2 93/160/2 95/162/2
f 95/162/2 97/164/2 103/5/2
f 97/164/2 99/166/2 103/5/2
f 137/101/2 141/103/2 149/112/2
f 149/112/2 153/116/2 137/101/2
f 165/126/2 169/130/2 173/132/2
f 173/132/2 156/118/2 157/117/2
f 115/142/2 119/144/2 131/140/2
f 119/144/2 123/150/2 131/140/2
f 91/4/2 95/162/2 103/5/2
f 103/5/2 107/171/2 90/6/2
f 157/117/2 165/126/2 173/132/2
f 67/7/3 24/77/3 111/8/3
f 46/12/4 1/6/4 2/2/4
f 1/6/4 3/176/4 2/2/4
f 3/176/4 4/175/4 5/174/4
f 5/174/4 6/171/4 9/170/4
f 6/171/4 7/173/4 9/170/4
f 7/173/4 8/172/4 9/170/4
f 9/170/4 10/5/4 11/169/4
f 11/169/4 12/168/4 13/167/4
f 13/167/4 14/166/4 15/165/4
f 15/165/4 16/164/4 17/163/4
f 17/163/4 18/162/4 19/161/4
f 19/161/4 20/160/4 17/163/4
f 20/160/4 21/159/4 17/163/4
f 21/159/4 22/4/4 2/2/4
f 2/2/4 23/13/4 46/12/4
f 23/13/4 25/158/4 24/138/4
f 46/12/4 23/13/4 24/138/4
f 25/158/4 26/140/4 27/157/4
f 27/157/4 28/156/4 29/155/4
f 29/155/4 30/154/4 31/153/4
f 31/153/4 32/152/4 33/151/4
f 33/151/4 34/150/4 35/149/4
f 35/149/4 36/148/4 33/151/4
f 36/148/4 37/147/4 33/151/4
f 37/147/4 38/144/4 41/143/4
f 38/144/4 39/146/4 41/143/4
f 39/146/4 40/145/4 41/143/4
f 41/143/4 42/142/4 24/138/4
f 42/142/4 43/141/4 24/138/4
f 43/141/4 44/139/4 24/138/4
f 24/138/4 67/118/4 46/12/4
f 67/118/4 69/137/4 87/119/4
f 46/12/4 67/118/4 68/1/4
f 69/137/4 70/136/4 71/135/4
f 71/135/4 72/132/4 75/131/4
f 72/132/4 73/134/4 75/131/4
f 73/134/4 74/133/4 75/131/4
f 75/131/4 76/130/4 77/129/4
f 77/129/4 78/128/4 79/127/4
f 79/127/4 80/126/4 81/125/4
f 81/125/4 82/124/4 83/123/4
f 83/123/4 84/122/4 85/121/4
f 85/121/4 86/120/4 83/123/4
f 86/120/4 87/119/4 83/123/4
f 87/119/4 88/117/4 68/1/4
f 68/1/4 45/3/4 46/12/4
f 45/3/4 47/10/4 46/12/4
f 47/10/4 48/116/4 49/115/4
f 49/115/4 50/114/4 51/113/4
f 51/113/4 52/112/4 53/111/4
f 53/111/4 54/110/4 55/109/4
f 55/109/4 56/108/4 57/107/4
f 57/107/4 58/106/4 55/109/4
f 58/106/4 59/11/4 55/109/4
f 59/11/4 60/103/4 63/102/4
f 60/103/4 61/105/4 63/102/4
f 61/105/4 62/104/4 63/102/4
f 63/102/4 64/101/4 46/12/4
f 64/101/4 65/100/4 46/12/4
f 65/100/4 66/99/4 46/12/4
f 3/176/4 5/174/4 21/159/4
f 9/170/4 11/169/4 13/167/4
f 13/167/4 15/165/4 9/170/4
f 15/165/4 17/163/4 9/170/4
f 21/159/4 2/2/4 3/176/4
f 25/158/4 27/157/4 33/151/4
f 27/157/4 29/155/4 33/151/4
f 29/155/4 31/153/4 33/151/4
f 69/137/4 71/135/4 87/119/4
f 67/118/4 87/119/4 68/1/4
f 75/131/4 77/129/4 79/127/4
f 79/127/4 81/125/4 87/119/4
f 81/125/4 83/123/4 87/119/4
f 47/10/4 49/115/4 51/113/4
f 51/113/4 53/111/4 59/11/4
f 53/111/4 55/109/4 59/11/4
f 5/174/4 9/170/4 17/163/4
f 17/163/4 21/159/4 5/174/4
f 33/151/4 37/147/4 41/143/4
f 41/143/4 24/138/4 25/158/4
f 71/135/4 75/131/4 87/119/4
f 75/131/4 79/127/4 87/119/4
f 47/10/4 51/113/4 59/11/4
f 59/11/4 63/102/4 46/12/4
f 25/158/4 33/151/4 41/143/4
f 68/13/5 155/1/5 134/3/5
f 46/7/6 66/15/6 135/14/6
f 66/15/7 65/17/7 136/16/7
f 65/17/8 64/19/8 137/18/8
f 64/19/9 63/21/9 138/20/9
f 63/21/10 62/23/10 139/22/10
f 62/23/11 61/25/11 140/24/11
f 61/25/12 60/27/12 141/26/12
f 60/27/13 59/29/13 142/28/13
f 59/29/14 58/31/14 143/30/14
f 58/31/15 57/33/15 144/32/15
f 57/33/16 56/55/16 145/34/16
f 56/35/17 55/38/17 146/36/17
f 55/38/18 54/40/18 147/39/18
f 54/40/19 53/42/19 148/41/19
f 53/42/20 52/44/20 149/43/20
f 52/44/21 51/46/21 150/45/21
f 51/46/22 50/48/22 151/47/22
f 50/48/23 49/50/23 152/49/23
f 49/50/24 48/52/24 153/51/24
f 48/52/25 47/54/25 154/53/25
f 47/54/26 45/2/26 134/3/26
f 156/9/27 176/14/27 69/15/27
f 176/14/28 175/16/28 70/17/28
f 175/16/29 174/18/29 71/19/29
f 174/18/30 173/20/30 72/21/30
f 173/20/31 172/22/31 73/23/31
f 172/22/32 171/24/32 74/25/32
f 171/24/33 170/26/33 75/27/33
f 170/26/34 169/28/34 76/29/34
f 169/28/35 168/30/35 77/31/35
f 168/30/36 167/32/36 78/33/36
f 167/32/37 166/34/37 79/55/37
f 166/56/38 165/59/38 80/57/38
f 165/59/39 164/61/39 81/60/39
f 164/61/40 163/63/40 82/62/40
f 163/63/41 162/65/41 83/64/41
f 162/65/42 161/67/42 84/66/42
f 161/67/43 160/69/43 85/68/43
f 160/69/44 159/71/44 86/70/44
f 159/71/45 158/73/45 87/72/45
f 158/73/46 157/75/46 88/74/46
f 157/75/47 155/1/47 68/13/47
f 90/8/48 110/78/48 3/76/48
f 110/78/49 109/80/49 4/79/49
f 109/80/50 108/82/50 5/81/50
f 108/82/51 107/84/51 6/83/51
f 107/84/52 106/86/52 7/85/52
f 106/86/53 105/88/53 8/87/53
f 105/88/54 104/90/54 9/89/54
f 104/90/55 103/92/55 10/91/55
f 103/92/56 102/94/56 11/93/56
f 102/94/57 101/96/57 12/95/57
f 101/96/58 100/98/58 13/97/58
f 100/37/59 99/36/59 14/38/59
f 99/36/60 98/39/60 15/40/60
f 98/39/61 97/41/61 16/42/61
f 97/41/62 96/43/62 17/44/62
f 96/43/63 95/45/63 18/46/63
f 95/45/64 94/47/64 19/48/64
f 94/47/65 93/49/65 20/50/65
f 93/49/66 92/51/66 21/52/66
f 92/51/67 91/53/67 22/54/67
f 91/53/68 89/3/68 2/2/68
f 24/77/69 44/76/69 113/78/69
f 44/76/70 43/79/70 114/80/70
f 43/79/71 42/81/71 115/82/71
f 42/81/72 41/83/72 116/84/72
f 41/83/73 40/85/73 117/86/73
f 40/85/74 39/87/74 118/88/74
f 39/87/75 38/89/75 119/90/75
f 38/89/76 37/91/76 120/92/76
f 37/91/77 36/93/77 121/94/77
f 36/93/78 35/95/78 122/96/78
f 35/95/79 34/97/79 123/98/79
f 34/58/80 33/57/80 124/59/80
f 33/57/81 32/60/81 125/61/81
f 32/60/82 31/62/82 126/63/82
f 31/62/83 30/64/83 127/65/83
f 30/64/84 29/66/84 128/67/84
f 29/66/85 28/68/85 129/69/85
f 28/68/86 27/70/86 130/71/86
f 27/70/87 26/72/87 131/73/87
f 26/72/88 25/74/88 132/75/88
f 25/74/89 23/13/89 112/1/89
f 133/9/90 90/8/90 1/77/90
o beam
v -0.004433 0.013788 0.004433
v -0.004433 0.183880 -0.004433
v -0.004433 0.013788 -0.004433
v 0.025000 0.004641 0.025000
v -0.025000 -0.001120 0.025000
v 0.025000 -0.001120 0.025000
v -0.025000 0.004641 0.025000
v -0.025000 -0.001120 -0.025000
v -0.025000 -0.001120 0.025000
v 0.025000 -0.001120 -0.025000
v -0.025000 -0.001120 0.025000
v -0.025000 -0.001120 -0.025000
v 0.025000 0.004641 -0.025000
v 0.025000 -0.001120 0.025000
v 0.025000 -0.001120 -0.025000
v -0.025000 0.004641 -0.025000
v 0.025000 -0.001120 -0.025000
v -0.025000 -0.001120 -0.025000
v -0.004433 0.013788 0.004433
v 0.025000 0.004641 0.025000
v 0.004433 0.013788 0.004433
v 0.004433 0.013788 0.004433
v 0.025000 0.004641 -0.025000
v 0.004433 0.013788 -0.004433
v -0.004433 0.013788 -0.004433
v -0.025000 0.004641 0.025000
v -0.004433 0.013788 0.004433
v 0.004433 0.013788 -0.004433
v -0.025000 0.004641 -0.025000
v -0.004433 0.013788 -0.004433
v -0.004433 0.183880 -0.004433
v 0.004433 0.183880 0.004433
v 0.004433 0.183880 -0.004433
v 0.004433 0.013788 0.004433
v -0.004433 0.183880 0.004433
v -0.004433 0.013788 0.004433
v -0.004433 0.013788 -0.004433
v 0.004433 0.183880 -0.004433
v 0.004433 0.013788 -0.004433
v 0.004433 0.013788 -0.004433
v 0.004433 0.183880 0.004433
v 0.004433 0.013788 0.004433
v -0.004433 0.013788 0.004433
v -0.004433 0.183880 0.004433
v -0.004433 0.183880 -0.004433
v 0.025000 0.004641 0.025000
v -0.025000 0.004641 0.025000
v -0.025000 -0.001120 0.025000
v -0.025000 0.004641 0.025000
v -0.025000 0.004641 -0.025000
v -0.025000 -0.001120 -0.025000
v 0.025000 -0.001120 -0.025000
v 0.025000 -0.001120 0.025000
v -0.025000 -0.001120 0.025000
v 0.025000 0.004641 -0.025000
v 0.025000 0.004641 0.025000
v 0.025000 -0.001120 0.025000
v -0.025000 0.004641 -0.025000
v 0.025000 0.004641 -0.025000
v 0.025000 -0.001120 -0.025000
v -0.004433 0.013788 0.004433
v -0.025000 0.004641 0.025000
v 0.025000 0.004641 0.025000
v 0.004433 0.013788 0.004433
v 0.025000 0.004641 0.025000
v 0.025000 0.004641 -0.025000
v -0.004433 0.013788 -0.004433
v -0.025000 0.004641 -0.025000
v -0.025000 0.004641 0.025000
v 0.004433 0.013788 -0.004433
v 0.025000 0.004641 -0.025000
v -0.025000 0.004641 -0.025000
v -0.004433 0.183880 -0.004433
v -0.004433 0.183880 0.004433
v 0.004433 0.183880 0.004433
v 0.004433 0.013788 0.004433
v 0.004433 0.183880 0.004433
v -0.004433 0.183880 0.004433
v -0.004433 0.013788 -0.004433
v -0.004433 0.183880 -0.004433
v 0.004433 0.183880 -0.004433
v 0.004433 0.013788 -0.004433
v 0.004433 0.183880 -0.004433
v 0.004433 0.183880 0.004433
vn -1.0000 -0.0000 -0.0000
vn -0.0000 -0.0000 1.0000
vn -0.0000 -1.0000 -0.0000
vn 1.0000 -0.0000 -0.0000
vn -0.0000 -0.0000 -1.0000
vn -0.0000 0.9137 0.4064
vn 0.4064 0.9137 -0.0000
vn -0.4064 0.9137 -0.0000
vn -0.0000 0.9137 -0.4064
vn -0.0000 1.0000 -0.0000
vt 0.772166 0.647166
vt 0.772166 0.602834
vt 0.625000 0.750000
vt 0.375000 1.000000
vt 0.375000 0.750000
vt 0.625000 0.000000
vt 0.375000 0.250000
vt 0.375000 0.000000
vt 0.375000 0.500000
vt 0.125000 0.750000
vt 0.125000 0.500000
vt 0.625000 0.500000
vt 0.625000 0.250000
vt 0.727834 0.647166
vt 0.727834 0.602834
vt 0.875000 0.750000
vt 0.875000 0.500000
vt 0.625000 1.000000
s 1
usemtl Material.002
f 177/177/91 178/178/91 179/178/91
f 180/179/92 181/180/92 182/181/92
f 183/182/91 184/183/91 185/184/91
f 186/185/93 187/186/93 188/187/93
f 189/188/94 190/181/94 191/185/94
f 192/189/95 193/185/95 194/183/95
f 195/177/96 196/179/96 197/190/96
f 198/190/97 199/188/97 200/191/97
f 201/178/98 202/192/98 203/177/98
f 204/191/99 205/193/99 206/178/99
f 207/178/100 208/190/100 209/191/100
f 210/190/92 211/177/92 212/177/92
f 213/178/95 214/191/95 215/191/95
f 216/191/94 217/190/94 218/190/94
f 219/177/91 220/177/91 221/178/91
f 222/179/92 223/194/92 224/180/92
f 225/182/91 226/189/91 227/183/91
f 228/185/93 229/181/93 230/186/93
f 231/188/94 232/179/94 233/181/94
f 234/189/95 235/188/95 236/185/95
f 237/177/96 238/192/96 239/179/96
f 240/190/97 241/179/97 242/188/97
f 243/178/98 244/193/98 245/192/98
f 246/191/99 247/188/99 248/193/99
f 249/178/100 250/177/100 251/190/100
f 252/190/92 253/190/92 254/177/92
f 255/178/95 256/178/95 257/191/95
f 258/191/94 259/191/94 260/190/94
