# Blender 4.3.2
# www.blender.org
mtllib destination.mtl
o Icosphere
v 0.000000 0.000000 0.022017
v -0.262860 -0.361800 0.574802
v -0.425320 0.138193 0.574802
v 0.000000 0.447212 0.574802
v 0.425320 0.138193 0.574802
v 0.262860 -0.361800 0.574802
v -0.425320 -0.138193 1.469232
v -0.262860 0.361800 1.469232
v 0.262860 0.361800 1.469232
v 0.425320 -0.138193 1.469232
v 0.000000 -0.447212 1.469232
v 0.000000 0.000000 2.022017
vn -0.7958 -0.2586 -0.5476
vn -0.0000 -0.8367 -0.5476
vn -0.4918 0.6769 -0.5476
vn 0.4918 0.6769 -0.5476
vn 0.7958 -0.2586 -0.5476
vn -0.0000 -0.9955 -0.0951
vn -0.9467 -0.3076 -0.0951
vn -0.5851 0.8053 -0.0951
vn 0.5851 0.8053 -0.0951
vn 0.9467 -0.3076 -0.0951
vn -0.5851 -0.8053 0.0951
vn -0.9467 0.3076 0.0951
vn -0.0000 0.9955 0.0951
vn 0.9467 0.3076 0.0951
vn 0.5851 -0.8053 0.0951
vn -0.4918 -0.6769 0.5476
vn -0.7958 0.2586 0.5476
vn -0.0000 0.8367 0.5476
vn 0.7958 0.2586 0.5476
vn 0.4918 -0.6769 0.5476
vt 0.181819 0.000000
vt 0.272728 0.157461
vt 0.090910 0.157461
vt 0.363637 0.000000
vt 0.454546 0.157461
vt 0.909091 0.000000
vt 1.000000 0.157461
vt 0.818182 0.157461
vt 0.727273 0.000000
vt 0.636364 0.157461
vt 0.545455 0.000000
vt 0.363637 0.314921
vt 0.181819 0.314921
vt 0.909091 0.314921
vt 0.727273 0.314921
vt 0.545455 0.314921
vt 0.000000 0.314921
vt 0.272728 0.472382
vt 0.090910 0.472382
vt 0.818182 0.472382
vt 0.636364 0.472382
vt 0.454546 0.472382
s 0
usemtl Material.002
f 1/1/1 2/2/1 3/3/1
f 2/2/2 1/4/2 6/5/2
f 1/6/3 3/7/3 4/8/3
f 1/9/4 4/8/4 5/10/4
f 1/11/5 5/10/5 6/5/5
f 2/2/6 6/5/6 11/12/6
f 3/3/7 2/2/7 7/13/7
f 4/8/8 3/7/8 8/14/8
f 5/10/9 4/8/9 9/15/9
f 6/5/10 5/10/10 10/16/10
f 2/2/11 11/12/11 7/13/11
f 3/3/12 7/13/12 8/17/12
f 4/8/13 8/14/13 9/15/13
f 5/10/14 9/15/14 10/16/14
f 6/5/15 10/16/15 11/12/15
f 7/13/16 11/12/16 12/18/16
f 8/17/17 7/13/17 12/19/17
f 9/15/18 8/14/18 12/20/18
f 10/16/19 9/15/19 12/21/19
f 11/12/20 10/16/20 12/22/20
