# Blender 4.3.2
# www.blender.org
mtllib stopsign.mtl
o beam
v -0.004433 0.013788 0.004433
v -0.004433 0.183880 -0.004433
v -0.004433 0.013788 -0.004433
v 0.025000 0.004641 0.025000
v -0.025000 -0.001120 0.025000
v 0.025000 -0.001120 0.025000
v -0.025000 0.004641 0.025000
v -0.025000 -0.001120 -0.025000
v -0.025000 -0.001120 0.025000
v 0.025000 -0.001120 -0.025000
v -0.025000 -0.001120 0.025000
v -0.025000 -0.001120 -0.025000
v 0.025000 0.004641 -0.025000
v 0.025000 -0.001120 0.025000
v 0.025000 -0.001120 -0.025000
v -0.025000 0.004641 -0.025000
v 0.025000 -0.001120 -0.025000
v -0.025000 -0.001120 -0.025000
v -0.004433 0.013788 0.004433
v 0.025000 0.004641 0.025000
v 0.004433 0.013788 0.004433
v 0.004433 0.013788 0.004433
v 0.025000 0.004641 -0.025000
v 0.004433 0.013788 -0.004433
v -0.004433 0.013788 -0.004433
v -0.025000 0.004641 0.025000
v -0.004433 0.013788 0.004433
v 0.004433 0.013788 -0.004433
v -0.025000 0.004641 -0.025000
v -0.004433 0.013788 -0.004433
v -0.004433 0.183880 -0.004433
v 0.004433 0.183880 0.004433
v 0.004433 0.183880 -0.004433
v 0.004433 0.013788 0.004433
v -0.004433 0.183880 0.004433
v -0.004433 0.013788 0.004433
v -0.004433 0.013788 -0.004433
v 0.004433 0.183880 -0.004433
v 0.004433 0.013788 -0.004433
v 0.004433 0.013788 -0.004433
v 0.004433 0.183880 0.004433
v 0.004433 0.013788 0.004433
v -0.004433 0.013788 0.004433
v -0.004433 0.183880 0.004433
v -0.004433 0.183880 -0.004433
v 0.025000 0.004641 0.025000
v -0.025000 0.004641 0.025000
v -0.025000 -0.001120 0.025000
v -0.025000 0.004641 0.025000
v -0.025000 0.004641 -0.025000
v -0.025000 -0.001120 -0.025000
v 0.025000 -0.001120 -0.025000
v 0.025000 -0.001120 0.025000
v -0.025000 -0.001120 0.025000
v 0.025000 0.004641 -0.025000
v 0.025000 0.004641 0.025000
v 0.025000 -0.001120 0.025000
v -0.025000 0.004641 -0.025000
v 0.025000 0.004641 -0.025000
v 0.025000 -0.001120 -0.025000
v -0.004433 0.013788 0.004433
v -0.025000 0.004641 0.025000
v 0.025000 0.004641 0.025000
v 0.004433 0.013788 0.004433
v 0.025000 0.004641 0.025000
v 0.025000 0.004641 -0.025000
v -0.004433 0.013788 -0.004433
v -0.025000 0.004641 -0.025000
v -0.025000 0.004641 0.025000
v 0.004433 0.013788 -0.004433
v 0.025000 0.004641 -0.025000
v -0.025000 0.004641 -0.025000
v -0.004433 0.183880 -0.004433
v -0.004433 0.183880 0.004433
v 0.004433 0.183880 0.004433
v 0.004433 0.013788 0.004433
v 0.004433 0.183880 0.004433
v -0.004433 0.183880 0.004433
v -0.004433 0.013788 -0.004433
v -0.004433 0.183880 -0.004433
v 0.004433 0.183880 -0.004433
v 0.004433 0.013788 -0.004433
v 0.004433 0.183880 -0.004433
v 0.004433 0.183880 0.004433
vn -1.0000 -0.0000 -0.0000
vn -0.0000 -0.0000 1.0000
vn -0.0000 -1.0000 -0.0000
vn 1.0000 -0.0000 -0.0000
vn -0.0000 -0.0000 -1.0000
vn -0.0000 0.9137 0.4064
vn 0.4064 0.9137 -0.0000
vn -0.4064 0.9137 -0.0000
vn -0.0000 0.9137 -0.4064
vn -0.0000 1.0000 -0.0000
vt 0.772166 0.647166
vt 0.772166 0.602834
vt 0.625000 0.750000
vt 0.375000 1.000000
vt 0.375000 0.750000
vt 0.625000 0.000000
vt 0.375000 0.250000
vt 0.375000 0.000000
vt 0.375000 0.500000
vt 0.125000 0.750000
vt 0.125000 0.500000
vt 0.625000 0.500000
vt 0.625000 0.250000
vt 0.727834 0.647166
vt 0.727834 0.602834
vt 0.875000 0.750000
vt 0.875000 0.500000
vt 0.625000 1.000000
s 1
usemtl Material.006
f 1/1/1 2/2/1 3/2/1
f 4/3/2 5/4/2 6/5/2
f 7/6/1 8/7/1 9/8/1
f 10/9/3 11/10/3 12/11/3
f 13/12/4 14/5/4 15/9/4
f 16/13/5 17/9/5 18/7/5
f 19/1/6 20/3/6 21/14/6
f 22/14/7 23/12/7 24/15/7
f 25/2/8 26/16/8 27/1/8
f 28/15/9 29/17/9 30/2/9
f 31/2/10 32/14/10 33/15/10
f 34/14/2 35/1/2 36/1/2
f 37/2/5 38/15/5 39/15/5
f 40/15/4 41/14/4 42/14/4
f 43/1/1 44/1/1 45/2/1
f 46/3/2 47/18/2 48/4/2
f 49/6/1 50/13/1 51/7/1
f 52/9/3 53/5/3 54/10/3
f 55/12/4 56/3/4 57/5/4
f 58/13/5 59/12/5 60/9/5
f 61/1/6 62/16/6 63/3/6
f 64/14/7 65/3/7 66/12/7
f 67/2/8 68/17/8 69/16/8
f 70/15/9 71/12/9 72/17/9
f 73/2/10 74/1/10 75/14/10
f 76/14/2 77/14/2 78/1/2
f 79/2/5 80/2/5 81/15/5
f 82/15/4 83/15/4 84/14/4
o Cylinder
v 0.000000 0.152726 -0.011238
v 0.005000 0.152726 -0.011238
v 0.000000 0.152927 0.011722
v 0.005000 0.152927 0.011722
v 0.000000 0.169304 0.027816
v 0.005000 0.169304 0.027816
v 0.000000 0.192264 0.027615
v 0.005000 0.192264 0.027615
v 0.000000 0.208357 0.011238
v 0.005000 0.208357 0.011238
v 0.000000 0.208157 -0.011722
v 0.005000 0.208157 -0.011722
v 0.000000 0.191780 -0.027816
v 0.005000 0.191780 -0.027816
v 0.000000 0.168820 -0.027615
v 0.005000 0.168820 -0.027615
vn -0.0000 -1.0000 0.0088
vn -0.0000 -0.7009 0.7132
vn -0.0000 0.0088 1.0000
vn -0.0000 0.7133 0.7009
vn -0.0000 1.0000 -0.0087
vn -0.0000 0.7009 -0.7132
vn 1.0000 -0.0000 -0.0000
vn -0.0000 -0.0088 -1.0000
vn -0.0000 -0.7132 -0.7009
vn -1.0000 -0.0000 -0.0000
vt 0.371634 0.948124
vt 0.335863 0.805041
vt 0.371634 0.805041
vt 0.335863 0.948124
vt 0.300093 0.805041
vt 0.300093 0.948124
vt 0.264322 0.805041
vt 0.264322 0.948124
vt 0.228551 0.805041
vt 0.228551 0.948124
vt 0.192781 0.805041
vt 0.192781 0.948124
vt 0.157010 0.805041
vt 0.418489 0.588351
vt 0.418105 0.488950
vt 0.658463 0.587424
vt 0.157010 0.948124
vt 0.121239 0.805041
vt 0.121239 0.948124
vt 0.085469 0.805041
vt 0.685210 0.314790
vt 0.814790 0.314790
vt 0.814790 0.185209
vt 0.488121 0.418392
vt 0.587522 0.418008
vt 0.658080 0.488023
vt 0.588448 0.657982
vt 0.489047 0.658366
vt 0.085469 0.948124
vt 0.750000 0.341628
vt 0.841628 0.250000
vt 0.750000 0.158372
vt 0.685210 0.185209
vt 0.658372 0.250000
s 1
usemtl Material.007
f 86/19/11 87/20/11 85/21/11
f 88/22/12 89/23/12 87/20/12
f 90/24/13 91/25/13 89/23/13
f 92/26/14 93/27/14 91/25/14
f 94/28/15 95/29/15 93/27/15
f 96/30/16 97/31/16 95/29/16
f 92/32/17 90/33/17 98/34/17
f 98/35/18 99/36/18 97/31/18
f 100/37/19 85/38/19 99/36/19
f 99/39/20 87/40/20 91/41/20
f 86/19/11 88/22/11 87/20/11
f 88/22/12 90/24/12 89/23/12
f 90/24/13 92/26/13 91/25/13
f 92/26/14 94/28/14 93/27/14
f 94/28/15 96/30/15 95/29/15
f 96/30/16 98/35/16 97/31/16
f 90/33/17 88/42/17 86/43/17
f 86/43/17 100/44/17 90/33/17
f 100/44/17 98/34/17 90/33/17
f 98/34/17 96/45/17 94/46/17
f 94/46/17 92/32/17 98/34/17
f 98/35/18 100/37/18 99/36/18
f 100/37/19 86/47/19 85/38/19
f 99/39/20 85/48/20 87/40/20
f 87/40/20 89/49/20 91/41/20
f 91/41/20 93/50/20 95/51/20
f 95/51/20 97/52/20 91/41/20
f 97/52/20 99/39/20 91/41/20
