# Blender 4.3.2
# www.blender.org
mtllib noentry.mtl
o beam
v 0.004427 0.013788 -0.004439
v 0.004439 0.183880 0.004427
v 0.004439 0.013788 0.004427
v -0.025035 0.004641 -0.024965
v 0.024965 -0.001120 -0.025035
v -0.025035 -0.001120 -0.024965
v 0.024965 0.004641 -0.025035
v 0.025035 -0.001120 0.024965
v 0.024965 -0.001120 -0.025035
v -0.024965 -0.001120 0.025035
v 0.024965 -0.001120 -0.025035
v 0.025035 -0.001120 0.024965
v -0.024965 0.004641 0.025035
v -0.025035 -0.001120 -0.024965
v -0.024965 -0.001120 0.025035
v 0.025035 0.004641 0.024965
v -0.024965 -0.001120 0.025035
v 0.025035 -0.001120 0.024965
v 0.004427 0.013788 -0.004439
v -0.025035 0.004641 -0.024965
v -0.004439 0.013788 -0.004427
v -0.004439 0.013788 -0.004427
v -0.024965 0.004641 0.025035
v -0.004427 0.013788 0.004439
v 0.004439 0.013788 0.004427
v 0.024965 0.004641 -0.025035
v 0.004427 0.013788 -0.004439
v -0.004427 0.013788 0.004439
v 0.025035 0.004641 0.024965
v 0.004439 0.013788 0.004427
v 0.004439 0.183880 0.004427
v -0.004439 0.183880 -0.004427
v -0.004427 0.183880 0.004439
v -0.004439 0.013788 -0.004427
v 0.004427 0.183880 -0.004439
v 0.004427 0.013788 -0.004439
v 0.004439 0.013788 0.004427
v -0.004427 0.183880 0.004439
v -0.004427 0.013788 0.004439
v -0.004427 0.013788 0.004439
v -0.004439 0.183880 -0.004427
v -0.004439 0.013788 -0.004427
v 0.004427 0.013788 -0.004439
v 0.004427 0.183880 -0.004439
v 0.004439 0.183880 0.004427
v -0.025035 0.004641 -0.024965
v 0.024965 0.004641 -0.025035
v 0.024965 -0.001120 -0.025035
v 0.024965 0.004641 -0.025035
v 0.025035 0.004641 0.024965
v 0.025035 -0.001120 0.024965
v -0.024965 -0.001120 0.025035
v -0.025035 -0.001120 -0.024965
v 0.024965 -0.001120 -0.025035
v -0.024965 0.004641 0.025035
v -0.025035 0.004641 -0.024965
v -0.025035 -0.001120 -0.024965
v 0.025035 0.004641 0.024965
v -0.024965 0.004641 0.025035
v -0.024965 -0.001120 0.025035
v 0.004427 0.013788 -0.004439
v 0.024965 0.004641 -0.025035
v -0.025035 0.004641 -0.024965
v -0.004439 0.013788 -0.004427
v -0.025035 0.004641 -0.024965
v -0.024965 0.004641 0.025035
v 0.004439 0.013788 0.004427
v 0.025035 0.004641 0.024965
v 0.024965 0.004641 -0.025035
v -0.004427 0.013788 0.004439
v -0.024965 0.004641 0.025035
v 0.025035 0.004641 0.024965
v 0.004439 0.183880 0.004427
v 0.004427 0.183880 -0.004439
v -0.004439 0.183880 -0.004427
v -0.004439 0.013788 -0.004427
v -0.004439 0.183880 -0.004427
v 0.004427 0.183880 -0.004439
v 0.004439 0.013788 0.004427
v 0.004439 0.183880 0.004427
v -0.004427 0.183880 0.004439
v -0.004427 0.013788 0.004439
v -0.004427 0.183880 0.004439
v -0.004439 0.183880 -0.004427
vn 1.0000 -0.0000 -0.0014
vn -0.0014 -0.0000 -1.0000
vn -0.0000 -1.0000 -0.0000
vn -1.0000 -0.0000 0.0014
vn 0.0014 -0.0000 1.0000
vn -0.0005 0.9137 -0.4064
vn -0.4064 0.9137 0.0006
vn 0.4064 0.9137 -0.0006
vn 0.0005 0.9137 0.4064
vn -0.0000 1.0000 -0.0000
vn -0.0006 0.9137 -0.4064
vn 0.0006 0.9137 0.4064
vt 0.772166 0.647166
vt 0.772166 0.602834
vt 0.625000 0.750000
vt 0.375000 1.000000
vt 0.375000 0.750000
vt 0.625000 0.000000
vt 0.375000 0.250000
vt 0.375000 0.000000
vt 0.375000 0.500000
vt 0.125000 0.750000
vt 0.125000 0.500000
vt 0.625000 0.500000
vt 0.625000 0.250000
vt 0.727834 0.647166
vt 0.727834 0.602834
vt 0.875000 0.750000
vt 0.875000 0.500000
vt 0.625000 1.000000
s 1
usemtl Material.006
f 1/1/1 2/2/1 3/2/1
f 4/3/2 5/4/2 6/5/2
f 7/6/1 8/7/1 9/8/1
f 10/9/3 11/10/3 12/11/3
f 13/12/4 14/5/4 15/9/4
f 16/13/5 17/9/5 18/7/5
f 19/1/6 20/3/6 21/14/6
f 22/14/7 23/12/7 24/15/7
f 25/2/8 26/16/8 27/1/8
f 28/15/9 29/17/9 30/2/9
f 31/2/10 32/14/10 33/15/10
f 34/14/2 35/1/2 36/1/2
f 37/2/5 38/15/5 39/15/5
f 40/15/4 41/14/4 42/14/4
f 43/1/1 44/1/1 45/2/1
f 46/3/2 47/18/2 48/4/2
f 49/6/1 50/13/1 51/7/1
f 52/9/3 53/5/3 54/10/3
f 55/12/4 56/3/4 57/5/4
f 58/13/5 59/12/5 60/9/5
f 61/1/11 62/16/11 63/3/11
f 64/14/7 65/3/7 66/12/7
f 67/2/8 68/17/8 69/16/8
f 70/15/12 71/12/12 72/17/12
f 73/2/10 74/1/10 75/14/10
f 76/14/2 77/14/2 78/1/2
f 79/2/5 80/2/5 81/15/5
f 82/15/4 83/15/4 84/14/4
o Cylinder
v 0.000000 0.180000 -0.030000
v 0.005000 0.180000 -0.030000
v 0.000000 0.174147 -0.029424
v 0.005000 0.174147 -0.029424
v 0.000000 0.168519 -0.027716
v 0.005000 0.168519 -0.027716
v 0.000000 0.163333 -0.024944
v 0.005000 0.163333 -0.024944
v 0.000000 0.158787 -0.021213
v 0.005000 0.158787 -0.021213
v 0.000000 0.155056 -0.016667
v 0.005000 0.155056 -0.016667
v 0.000000 0.152284 -0.011481
v 0.005000 0.152284 -0.011481
v 0.000000 0.150576 -0.005853
v 0.005000 0.150576 -0.005853
v 0.000000 0.150000 -0.000000
v 0.005000 0.150000 -0.000000
v 0.000000 0.150576 0.005853
v 0.005000 0.150576 0.005853
v 0.000000 0.152284 0.011480
v 0.005000 0.152284 0.011480
v 0.000000 0.155056 0.016667
v 0.005000 0.155056 0.016667
v 0.000000 0.158787 0.021213
v 0.005000 0.158787 0.021213
v 0.000000 0.163333 0.024944
v 0.005000 0.163333 0.024944
v 0.000000 0.168519 0.027716
v 0.005000 0.168519 0.027716
v 0.000000 0.174147 0.029424
v 0.005000 0.174147 0.029424
v 0.000000 0.180000 0.030000
v 0.005000 0.180000 0.030000
v -0.000000 0.185853 0.029424
v 0.005000 0.185853 0.029424
v -0.000000 0.191481 0.027716
v 0.005000 0.191481 0.027716
v -0.000000 0.196667 0.024944
v 0.005000 0.196667 0.024944
v -0.000000 0.201213 0.021213
v 0.005000 0.201213 0.021213
v -0.000000 0.204944 0.016667
v 0.005000 0.204944 0.016667
v -0.000000 0.207716 0.011480
v 0.005000 0.207716 0.011480
v -0.000000 0.209424 0.005853
v 0.005000 0.209424 0.005853
v -0.000000 0.210000 -0.000000
v 0.005000 0.210000 -0.000000
v -0.000000 0.209424 -0.005853
v 0.005000 0.209424 -0.005853
v -0.000000 0.207716 -0.011481
v 0.005000 0.207716 -0.011481
v -0.000000 0.204944 -0.016667
v 0.005000 0.204944 -0.016667
v -0.000000 0.201213 -0.021213
v 0.005000 0.201213 -0.021213
v -0.000000 0.196667 -0.024944
v 0.005000 0.196667 -0.024944
v -0.000000 0.191480 -0.027716
v 0.005000 0.191480 -0.027716
v -0.000000 0.185853 -0.029424
v 0.005000 0.185853 -0.029424
vn -0.0000 -0.0980 -0.9952
vn -0.0000 -0.2903 -0.9569
vn -0.0000 -0.4714 -0.8819
vn -0.0000 -0.6344 -0.7730
vn -0.0000 -0.7730 -0.6344
vn -0.0000 -0.8819 -0.4714
vn -0.0000 -0.9569 -0.2903
vn -0.0000 -0.9952 -0.0980
vn -0.0000 -0.9952 0.0980
vn -0.0000 -0.9569 0.2903
vn -0.0000 -0.8819 0.4714
vn -0.0000 -0.7730 0.6344
vn -0.0000 -0.6344 0.7730
vn -0.0000 -0.4714 0.8819
vn -0.0000 -0.2903 0.9569
vn -0.0000 -0.0980 0.9952
vn -0.0000 0.0980 0.9952
vn -0.0000 0.2903 0.9569
vn -0.0000 0.4714 0.8819
vn -0.0000 0.6344 0.7730
vn -0.0000 0.7730 0.6344
vn -0.0000 0.8819 0.4714
vn -0.0000 0.9569 0.2903
vn -0.0000 0.9952 0.0980
vn -0.0000 0.9952 -0.0980
vn -0.0000 0.9569 -0.2903
vn -0.0000 0.8819 -0.4714
vn -0.0000 0.7730 -0.6344
vn -0.0000 0.6344 -0.7730
vn -0.0000 0.4714 -0.8819
vn 1.0000 -0.0000 -0.0000
vn -0.0000 0.2903 -0.9569
vn -0.0000 0.0980 -0.9952
vn -1.0000 -0.0000 -0.0000
vt 0.697887 0.700909
vt 0.685520 0.503021
vt 0.697887 0.503021
vt 0.685520 0.700909
vt 0.673151 0.503021
vt 0.673151 0.700909
vt 0.660784 0.503021
vt 0.660784 0.700909
vt 0.648416 0.503021
vt 0.648416 0.700909
vt 0.636048 0.503021
vt 0.636048 0.700909
vt 0.623680 0.503021
vt 0.623680 0.700909
vt 0.611312 0.503021
vt 0.611312 0.700909
vt 0.598944 0.503021
vt 0.598944 0.700909
vt 0.586576 0.503021
vt 0.586576 0.700909
vt 0.574208 0.503021
vt 0.574208 0.700909
vt 0.561840 0.503021
vt 0.561840 0.700909
vt 0.549472 0.503021
vt 0.549472 0.700909
vt 0.537104 0.503021
vt 0.537104 0.700909
vt 0.524736 0.503021
vt 0.524736 0.700909
vt 0.512368 0.503021
vt 0.512368 0.700909
vt 0.500000 0.503021
vt 0.500000 0.700909
vt 0.487632 0.503021
vt 0.487632 0.700909
vt 0.475264 0.503021
vt 0.475264 0.700909
vt 0.462896 0.503021
vt 0.462896 0.700909
vt 0.450528 0.503021
vt 0.450528 0.700909
vt 0.438160 0.503021
vt 0.438160 0.700909
vt 0.425792 0.503021
vt 0.425792 0.700909
vt 0.413424 0.503021
vt 0.413424 0.700909
vt 0.401056 0.503021
vt 0.401056 0.700909
vt 0.388688 0.503021
vt 0.388688 0.700909
vt 0.376320 0.503021
vt 0.376320 0.700909
vt 0.363952 0.503021
vt 0.363952 0.700909
vt 0.351584 0.503021
vt 0.351584 0.700909
vt 0.339217 0.503021
vt 0.339217 0.700909
vt 0.326849 0.503021
vt 0.013133 0.868977
vt 0.063910 0.648460
vt 0.187199 0.739287
vt 0.326849 0.700909
vt 0.314481 0.503021
vt 0.314481 0.700909
vt 0.302113 0.503021
vt 0.692105 0.422608
vt 0.617474 0.310917
vt 0.505783 0.385547
vt 0.192600 0.770903
vt 0.187344 0.868356
vt 0.194448 0.803796
vt 0.192674 0.836702
vt 0.178665 0.897542
vt 0.166968 0.923139
vt 0.152705 0.944162
vt 0.136422 0.959804
vt 0.118746 0.969463
vt 0.100356 0.972769
vt 0.081959 0.969594
vt 0.064261 0.960061
vt 0.047943 0.944535
vt 0.033632 0.923614
vt 0.021878 0.898101
vt 0.007732 0.837361
vt 0.005883 0.804468
vt 0.007657 0.771562
vt 0.012987 0.739908
vt 0.021667 0.710722
vt 0.033363 0.685125
vt 0.047627 0.664102
vt 0.081586 0.638801
vt 0.099976 0.635495
vt 0.118373 0.638670
vt 0.136070 0.648203
vt 0.152388 0.663729
vt 0.166699 0.684650
vt 0.178453 0.710163
vt 0.302113 0.700909
vt 0.580413 0.497238
vt 0.598944 0.499063
vt 0.617475 0.497238
vt 0.635293 0.491833
vt 0.651715 0.483055
vt 0.666109 0.471243
vt 0.677922 0.456849
vt 0.686699 0.440427
vt 0.693930 0.404077
vt 0.692105 0.385547
vt 0.686699 0.367728
vt 0.677922 0.351306
vt 0.666109 0.336912
vt 0.651715 0.325099
vt 0.635293 0.316322
vt 0.598944 0.309092
vt 0.580413 0.310917
vt 0.562594 0.316322
vt 0.546172 0.325099
vt 0.531779 0.336912
vt 0.519966 0.351306
vt 0.511188 0.367728
vt 0.503958 0.404078
vt 0.505783 0.422608
vt 0.511188 0.440427
vt 0.519966 0.456849
vt 0.531779 0.471243
vt 0.546172 0.483055
vt 0.562594 0.491833
s 0
usemtl Material.001
f 86/19/13 87/20/13 85/21/13
f 88/22/14 89/23/14 87/20/14
f 90/24/15 91/25/15 89/23/15
f 92/26/16 93/27/16 91/25/16
f 94/28/17 95/29/17 93/27/17
f 96/30/18 97/31/18 95/29/18
f 98/32/19 99/33/19 97/31/19
f 100/34/20 101/35/20 99/33/20
f 102/36/21 103/37/21 101/35/21
f 104/38/22 105/39/22 103/37/22
f 106/40/23 107/41/23 105/39/23
f 108/42/24 109/43/24 107/41/24
f 110/44/25 111/45/25 109/43/25
f 112/46/26 113/47/26 111/45/26
f 114/48/27 115/49/27 113/47/27
f 116/50/28 117/51/28 115/49/28
f 118/52/29 119/53/29 117/51/29
f 120/54/30 121/55/30 119/53/30
f 122/56/31 123/57/31 121/55/31
f 124/58/32 125/59/32 123/57/32
f 126/60/33 127/61/33 125/59/33
f 128/62/34 129/63/34 127/61/34
f 130/64/35 131/65/35 129/63/35
f 132/66/36 133/67/36 131/65/36
f 134/68/37 135/69/37 133/67/37
f 136/70/38 137/71/38 135/69/38
f 138/72/39 139/73/39 137/71/39
f 140/74/40 141/75/40 139/73/40
f 142/76/41 143/77/41 141/75/41
f 144/78/42 145/79/42 143/77/42
f 122/80/43 106/81/43 90/82/43
f 146/83/44 147/84/44 145/79/44
f 148/85/45 85/86/45 147/84/45
f 99/87/46 115/88/46 131/89/46
f 86/19/13 88/22/13 87/20/13
f 88/22/14 90/24/14 89/23/14
f 90/24/15 92/26/15 91/25/15
f 92/26/16 94/28/16 93/27/16
f 94/28/17 96/30/17 95/29/17
f 96/30/18 98/32/18 97/31/18
f 98/32/19 100/34/19 99/33/19
f 100/34/20 102/36/20 101/35/20
f 102/36/21 104/38/21 103/37/21
f 104/38/22 106/40/22 105/39/22
f 106/40/23 108/42/23 107/41/23
f 108/42/24 110/44/24 109/43/24
f 110/44/25 112/46/25 111/45/25
f 112/46/26 114/48/26 113/47/26
f 114/48/27 116/50/27 115/49/27
f 116/50/28 118/52/28 117/51/28
f 118/52/29 120/54/29 119/53/29
f 120/54/30 122/56/30 121/55/30
f 122/56/31 124/58/31 123/57/31
f 124/58/32 126/60/32 125/59/32
f 126/60/33 128/62/33 127/61/33
f 128/62/34 130/64/34 129/63/34
f 130/64/35 132/66/35 131/65/35
f 132/66/36 134/68/36 133/67/36
f 134/68/37 136/70/37 135/69/37
f 136/70/38 138/72/38 137/71/38
f 138/72/39 140/74/39 139/73/39
f 140/74/40 142/76/40 141/75/40
f 142/76/41 144/78/41 143/77/41
f 144/78/42 146/83/42 145/79/42
f 90/82/43 88/90/43 146/91/43
f 88/90/43 86/92/43 146/91/43
f 86/92/43 148/93/43 146/91/43
f 146/91/43 144/94/43 142/95/43
f 142/95/43 140/96/43 138/97/43
f 138/97/43 136/98/43 134/99/43
f 134/99/43 132/100/43 138/97/43
f 132/100/43 130/101/43 138/97/43
f 130/101/43 128/102/43 126/103/43
f 126/103/43 124/104/43 122/80/43
f 122/80/43 120/105/43 118/106/43
f 118/106/43 116/107/43 122/80/43
f 116/107/43 114/108/43 122/80/43
f 114/108/43 112/109/43 110/110/43
f 110/110/43 108/111/43 106/81/43
f 106/81/43 104/112/43 102/113/43
f 102/113/43 100/114/43 106/81/43
f 100/114/43 98/115/43 106/81/43
f 98/115/43 96/116/43 94/117/43
f 94/117/43 92/118/43 90/82/43
f 146/91/43 142/95/43 90/82/43
f 142/95/43 138/97/43 90/82/43
f 130/101/43 126/103/43 138/97/43
f 126/103/43 122/80/43 138/97/43
f 114/108/43 110/110/43 122/80/43
f 110/110/43 106/81/43 122/80/43
f 98/115/43 94/117/43 106/81/43
f 94/117/43 90/82/43 106/81/43
f 90/82/43 138/97/43 122/80/43
f 146/83/44 148/85/44 147/84/44
f 148/85/45 86/119/45 85/86/45
f 147/120/46 85/121/46 87/122/46
f 87/122/46 89/123/46 91/124/46
f 91/124/46 93/125/46 95/126/46
f 95/126/46 97/127/46 91/124/46
f 97/127/46 99/87/46 91/124/46
f 99/87/46 101/128/46 103/129/46
f 103/129/46 105/130/46 99/87/46
f 105/130/46 107/131/46 99/87/46
f 107/131/46 109/132/46 115/88/46
f 109/132/46 111/133/46 115/88/46
f 111/133/46 113/134/46 115/88/46
f 115/88/46 117/135/46 119/136/46
f 119/136/46 121/137/46 123/138/46
f 123/138/46 125/139/46 127/140/46
f 127/140/46 129/141/46 131/89/46
f 131/89/46 133/142/46 135/143/46
f 135/143/46 137/144/46 139/145/46
f 139/145/46 141/146/46 147/120/46
f 141/146/46 143/147/46 147/120/46
f 143/147/46 145/148/46 147/120/46
f 147/120/46 87/122/46 91/124/46
f 115/88/46 119/136/46 131/89/46
f 119/136/46 123/138/46 131/89/46
f 123/138/46 127/140/46 131/89/46
f 131/89/46 135/143/46 147/120/46
f 135/143/46 139/145/46 147/120/46
f 147/120/46 91/124/46 99/87/46
f 99/87/46 107/131/46 115/88/46
f 147/120/46 99/87/46 131/89/46
