v 11.699 69.9197 6.9199
v 11.6669 80.466 6.9035
v 5.0084 87.8979 3.4889
v 5.5862 62.4368 2.5533
v -4.2983 62.4007 -1.2838
v -3.7981 62.4007 -2.2591
v -10.9567 69.8326 -4.6984
v -10.9889 80.3789 -4.7148
v -10.4887 80.3789 -5.6902
v -4.3759 87.8618 -1.3236
v 5.5086 87.8979 2.5136
v 12.1992 69.9197 5.9446
v 11.0569 70.4049 5.58
v 5.032 86.7151 2.37975
v -3.3664 63.5835 -2.0377
v 5.1472 63.6162 2.3282
v -9.4071 70.3258 -5.1355
v -9.4362 79.8937 -5.1505
v -3.4817 86.6824 -1.98625
v 11.1176 79.9728 5.3899
v 11.1467 70.4049 5.4049
v -3.4563 63.5835 -1.8626
v -9.5261 79.8937 -4.9753
v 4.7084 0.481 2.9164
v 4.1537 0.481 4.8636
v 2.8961 0.481 6.4503
v 1.1271 0.481 7.435
v -5.0808 0.481 0.128
v -5.6354 0.481 2.0751
v -5.6321 1.7365 2.0754
v -5.0778 1.7365 0.1295
v -5.4027 0.481 4.0864
v -5.3995 1.7365 4.0853
v -4.418 0.481 5.8554
v -4.4155 1.7365 5.8533
v -2.8313 0.481 7.113
v -2.8298 1.7365 7.1101
v -0.8842 0.481 7.6677
v -0.8839 1.7365 7.6644
v 1.1261 1.7365 7.4318
v 2.894 1.7365 6.4478
v 4.1508 1.7365 4.8621
v 4.7051 1.7365 2.9161
v 4.4757 0.481 0.9052
v 4.4725 1.7365 0.9062
v 3.491 0.481 -0.8639
v 3.4885 1.7365 -0.8617
v 1.9043 0.481 -2.1215
v 1.9028 1.7365 -2.1185
v -0.0429 0.481 -2.6761
v -0.0432 1.7365 -2.6728
v -2.0541 0.481 -2.4434
v -2.0531 1.7365 -2.4402
v -3.8232 0.481 -1.4587
v -3.821 1.7365 -1.4562
v -1.67395 79.2211 1.5364
v -2.0331 79.2211 2.3681
v 0.28765 79.2211 3.84535
v 1.02195 79.2211 2.9189
v -0.88665 79.2211 3.98125
v 0.88605 79.2211 1.74465
v -1.8131 79.2211 3.24695
v -0.0404 79.2211 1.01035
v -2.0331 4.9276 2.3681
v -1.8648 4.9276 1.7772
v -1.9625 4.9276 2.9785
v -1.6637 4.9276 3.5154
v -1.1821 4.9276 3.8971
v -0.5912 4.9276 4.0654
v 0.0192 4.9276 3.9948
v 0.5561 4.9276 3.6959
v 0.9378 4.9276 3.2144
v 1.1061 4.9276 2.6234
v 1.0355 4.9276 2.0131
v 0.7366 4.9276 1.4762
v 0.2551 4.9276 1.0945
v -0.3359 4.9276 0.9262
v -0.9462 4.9276 0.9968
v -2.7731 4.6685 2.3079
v -2.5254 4.6685 1.4384
v -2.6692 4.6685 3.2061
v -2.2295 4.6685 3.9961
v -1.5209 4.6685 4.5577
v -0.6514 4.6685 4.8054
v 0.2468 4.6685 4.7015
v 1.0368 4.6685 4.2617
v 1.5984 4.6685 3.5532
v 1.8461 4.6685 2.6836
v 1.7422 4.6685 1.7855
v 1.3024 4.6685 0.9955
v 0.5939 4.6685 0.4339
v -0.2757 4.6685 0.1862
v -1.1738 4.6685 0.2901
v -1.9638 4.6685 0.7298
v -2.5202 1.9562 1.4411
v -2.6636 1.9562 3.2043
v -1.5182 1.9562 4.5525
v 0.245 1.9562 4.6959
v 1.5932 1.9562 3.5505
v 1.7366 1.9562 1.7873
v 0.5912 1.9562 0.4391
v -1.172 1.9562 0.2957
v 6.2698 73.3244 4.3921
v 6.2384 73.3688 4.4533
v 3.521 73.3687 3.0627
v 1.7338 73.3244 1.9968
v 1.9272 73.3688 2.2525
v -5.8547 73.3687 -2.0561
v -5.9486 73.3244 -1.873
v 6.2541 77.8674 4.4227
v 1.9272 77.8335 2.2525
v -1.7787 77.8334 3.7495
v -5.98 77.8335 -1.8118
v 1.9586 77.9014 2.1913
v -1.5562 77.9014 0.4123
v -5.9486 77.9014 -1.873
v 6.3323 73.3244 4.2702
v 2.0525 73.3688 2.0082
v -1.5488 73.3466 0.20185
v 6.3637 77.8334 4.209
v 1.7338 77.9014 1.9968
v -2.24025 77.8674 3.0631
v -1.5488 77.8674 0.20185
v -5.8547 77.8334 -2.0561
v -1.5852 73.3687 3.5546
v 0.15805 77.8674 4.2797
v -0.7021 77.8335 4.2983
v -0.9244 73.3688 3.94415
v -1.2842 73.3466 4.077
v -2.24025 73.3466 3.0631
v -2.04505 77.8674 2.99795
v -2.04505 73.3466 2.99795
v -1.2842 77.8674 4.077
v 0.4791 73.3687 3.7831
v 0.08355 77.8674 4.08785
v 0.4791 77.8334 3.7831
v 0.15805 73.3466 4.2797
v 0.0711 73.3687 4.0558
v 0.6673 77.8674 3.93235
v -2.309 77.8674 2.397
v -1.4854 73.3244 0.4702
v -2.0839 73.3687 2.4808
v -1.35015 77.8674 0.6942
v -2.0839 77.8334 2.4808
v -2.2767 73.3244 2.409
v -1.3228 73.3687 0.7048
v 1.6861 77.8335 2.3849
v 1.66465 73.3466 2.36345
v -1.51365 77.8674 0.6309
v -1.6584 77.8334 0.4156
v -1.6152 73.3687 0.5096
v -1.34015 77.8674 0.4071
v -1.311 73.3687 0.3944
f 1 2 3
f 4 5 6
f 5 7 6
f 7 8 9
f 8 10 9
f 10 3 11
f 3 2 11
f 2 1 12
f 4 6 15
f 6 9 18
f 9 11 14
f 11 12 21
f 12 4 16
f 16 15 22
f 15 17 22
f 17 18 23
f 20 21 13
f 21 16 13
f 10 8 7
f 13 22 19
f 3 10 5
f 24 25 26
f 28 29 30
f 29 32 33
f 32 34 35
f 34 36 37
f 36 38 39
f 38 27 40
f 27 26 41
f 26 25 42
f 25 24 43
f 24 44 45
f 44 46 47
f 46 48 49
f 48 50 51
f 50 52 53
f 52 54 55
f 54 28 31
f 60 58 59
f 62 60 61
f 57 62 63
f 38 36 46
f 44 24 27
f 34 32 50
f 48 46 36
f 29 28 54
f 52 50 32
f 64 57 56
f 66 62 57
f 68 60 62
f 70 58 60
f 72 59 58
f 74 61 59
f 76 63 61
f 79 64 65
f 81 66 64
f 82 67 66
f 83 68 67
f 84 69 68
f 85 70 69
f 86 71 70
f 87 72 71
f 88 73 72
f 89 74 73
f 90 75 74
f 91 76 75
f 92 77 76
f 93 78 77
f 80 65 78
f 33 96 95
f 37 97 96
f 40 98 97
f 42 99 98
f 45 100 99
f 49 101 100
f 53 102 101
f 31 95 102
f 95 79 80
f 96 81 79
f 96 82 81
f 97 83 82
f 97 84 83
f 98 85 84
f 98 86 85
f 99 87 86
f 99 88 87
f 100 89 88
f 100 90 89
f 101 91 90
f 101 92 91
f 102 93 92
f 102 94 93
f 95 80 94
f 103 104 105
f 106 105 107
f 104 110 111
f 129 133 112
f 141 150 113
f 150 115 116
f 118 106 121
f 128 125 122
f 119 108 124
f 103 106 118
f 141 109 119
f 108 113 124
f 113 116 124
f 110 104 120
f 104 103 117
f 127 133 129
f 112 122 130
f 125 132 131
f 129 130 132
f 139 126 137
f 134 138 135
f 139 114 121
f 140 122 131
f 140 149 141
f 142 146 143
f 145 141 146
f 122 140 130
f 132 142 144
f 130 145 132
f 126 139 121
f 126 127 137
f 138 128 135
f 111 147 148
f 147 139 148
f 106 134 136
f 148 137 106
f 115 149 143
f 153 119 123
f 149 150 151
f 146 153 152
f 149 140 131
f 129 128 138
f 114 147 111
f 149 115 150
