# Blender 4.3.2
# www.blender.org
mtllib roundabout.mtl
o beam
v 0.004427 0.013788 -0.004439
v 0.004439 0.183880 0.004427
v 0.004439 0.013788 0.004427
v -0.025035 0.004641 -0.024965
v 0.024965 -0.001120 -0.025035
v -0.025035 -0.001120 -0.024965
v 0.024965 0.004641 -0.025035
v 0.025035 -0.001120 0.024965
v 0.024965 -0.001120 -0.025035
v -0.024965 -0.001120 0.025035
v 0.024965 -0.001120 -0.025035
v 0.025035 -0.001120 0.024965
v -0.024965 0.004641 0.025035
v -0.025035 -0.001120 -0.024965
v -0.024965 -0.001120 0.025035
v 0.025035 0.004641 0.024965
v -0.024965 -0.001120 0.025035
v 0.025035 -0.001120 0.024965
v 0.004427 0.013788 -0.004439
v -0.025035 0.004641 -0.024965
v -0.004439 0.013788 -0.004427
v -0.004439 0.013788 -0.004427
v -0.024965 0.004641 0.025035
v -0.004427 0.013788 0.004439
v 0.004439 0.013788 0.004427
v 0.024965 0.004641 -0.025035
v 0.004427 0.013788 -0.004439
v -0.004427 0.013788 0.004439
v 0.025035 0.004641 0.024965
v 0.004439 0.013788 0.004427
v 0.004439 0.183880 0.004427
v -0.004439 0.183880 -0.004427
v -0.004427 0.183880 0.004439
v -0.004439 0.013788 -0.004427
v 0.004427 0.183880 -0.004439
v 0.004427 0.013788 -0.004439
v 0.004439 0.013788 0.004427
v -0.004427 0.183880 0.004439
v -0.004427 0.013788 0.004439
v -0.004427 0.013788 0.004439
v -0.004439 0.183880 -0.004427
v -0.004439 0.013788 -0.004427
v 0.004427 0.013788 -0.004439
v 0.004427 0.183880 -0.004439
v 0.004439 0.183880 0.004427
v -0.025035 0.004641 -0.024965
v 0.024965 0.004641 -0.025035
v 0.024965 -0.001120 -0.025035
v 0.024965 0.004641 -0.025035
v 0.025035 0.004641 0.024965
v 0.025035 -0.001120 0.024965
v -0.024965 -0.001120 0.025035
v -0.025035 -0.001120 -0.024965
v 0.024965 -0.001120 -0.025035
v -0.024965 0.004641 0.025035
v -0.025035 0.004641 -0.024965
v -0.025035 -0.001120 -0.024965
v 0.025035 0.004641 0.024965
v -0.024965 0.004641 0.025035
v -0.024965 -0.001120 0.025035
v 0.004427 0.013788 -0.004439
v 0.024965 0.004641 -0.025035
v -0.025035 0.004641 -0.024965
v -0.004439 0.013788 -0.004427
v -0.025035 0.004641 -0.024965
v -0.024965 0.004641 0.025035
v 0.004439 0.013788 0.004427
v 0.025035 0.004641 0.024965
v 0.024965 0.004641 -0.025035
v -0.004427 0.013788 0.004439
v -0.024965 0.004641 0.025035
v 0.025035 0.004641 0.024965
v 0.004439 0.183880 0.004427
v 0.004427 0.183880 -0.004439
v -0.004439 0.183880 -0.004427
v -0.004439 0.013788 -0.004427
v -0.004439 0.183880 -0.004427
v 0.004427 0.183880 -0.004439
v 0.004439 0.013788 0.004427
v 0.004439 0.183880 0.004427
v -0.004427 0.183880 0.004439
v -0.004427 0.013788 0.004439
v -0.004427 0.183880 0.004439
v -0.004439 0.183880 -0.004427
vn 1.0000 -0.0000 -0.0014
vn -0.0014 -0.0000 -1.0000
vn -0.0000 -1.0000 -0.0000
vn -1.0000 -0.0000 0.0014
vn 0.0014 -0.0000 1.0000
vn -0.0006 0.9137 -0.4064
vn -0.4064 0.9137 0.0006
vn 0.4064 0.9137 -0.0006
vn 0.0006 0.9137 0.4064
vn -0.0000 1.0000 -0.0000
vt 0.772166 0.647166
vt 0.772166 0.602834
vt 0.625000 0.750000
vt 0.375000 1.000000
vt 0.375000 0.750000
vt 0.625000 0.000000
vt 0.375000 0.250000
vt 0.375000 0.000000
vt 0.375000 0.500000
vt 0.125000 0.750000
vt 0.125000 0.500000
vt 0.625000 0.500000
vt 0.625000 0.250000
vt 0.727834 0.647166
vt 0.727834 0.602834
vt 0.875000 0.750000
vt 0.875000 0.500000
vt 0.625000 1.000000
s 1
usemtl Material.006
f 1/1/1 2/2/1 3/2/1
f 4/3/2 5/4/2 6/5/2
f 7/6/1 8/7/1 9/8/1
f 10/9/3 11/10/3 12/11/3
f 13/12/4 14/5/4 15/9/4
f 16/13/5 17/9/5 18/7/5
f 19/1/6 20/3/6 21/14/6
f 22/14/7 23/12/7 24/15/7
f 25/2/8 26/16/8 27/1/8
f 28/15/9 29/17/9 30/2/9
f 31/2/10 32/14/10 33/15/10
f 34/14/2 35/1/2 36/1/2
f 37/2/5 38/15/5 39/15/5
f 40/15/4 41/14/4 42/14/4
f 43/1/1 44/1/1 45/2/1
f 46/3/2 47/18/2 48/4/2
f 49/6/1 50/13/1 51/7/1
f 52/9/3 53/5/3 54/10/3
f 55/12/4 56/3/4 57/5/4
f 58/13/5 59/12/5 60/9/5
f 61/1/6 62/16/6 63/3/6
f 64/14/7 65/3/7 66/12/7
f 67/2/8 68/17/8 69/16/8
f 70/15/9 71/12/9 72/17/9
f 73/2/10 74/1/10 75/14/10
f 76/14/2 77/14/2 78/1/2
f 79/2/5 80/2/5 81/15/5
f 82/15/4 83/15/4 84/14/4
o Cylinder
v 0.000000 0.180000 -0.030000
v 0.005000 0.180000 -0.030000
v 0.000000 0.174147 -0.029424
v 0.005000 0.174147 -0.029424
v 0.000000 0.168519 -0.027716
v 0.005000 0.168519 -0.027716
v 0.000000 0.163333 -0.024944
v 0.005000 0.163333 -0.024944
v 0.000000 0.158787 -0.021213
v 0.005000 0.158787 -0.021213
v 0.000000 0.155056 -0.016667
v 0.005000 0.155056 -0.016667
v 0.000000 0.152284 -0.011481
v 0.005000 0.152284 -0.011481
v 0.000000 0.150576 -0.005853
v 0.005000 0.150576 -0.005853
v 0.000000 0.150000 -0.000000
v 0.005000 0.150000 -0.000000
v 0.000000 0.150576 0.005853
v 0.005000 0.150576 0.005853
v 0.000000 0.152284 0.011480
v 0.005000 0.152284 0.011480
v 0.000000 0.155056 0.016667
v 0.005000 0.155056 0.016667
v 0.000000 0.158787 0.021213
v 0.005000 0.158787 0.021213
v 0.000000 0.163333 0.024944
v 0.005000 0.163333 0.024944
v 0.000000 0.168519 0.027716
v 0.005000 0.168519 0.027716
v 0.000000 0.174147 0.029424
v 0.005000 0.174147 0.029424
v 0.000000 0.180000 0.030000
v 0.005000 0.180000 0.030000
v -0.000000 0.185853 0.029424
v 0.005000 0.185853 0.029424
v -0.000000 0.191481 0.027716
v 0.005000 0.191481 0.027716
v -0.000000 0.196667 0.024944
v 0.005000 0.196667 0.024944
v -0.000000 0.201213 0.021213
v 0.005000 0.201213 0.021213
v -0.000000 0.204944 0.016667
v 0.005000 0.204944 0.016667
v -0.000000 0.207716 0.011480
v 0.005000 0.207716 0.011480
v -0.000000 0.209424 0.005853
v 0.005000 0.209424 0.005853
v -0.000000 0.210000 -0.000000
v 0.005000 0.210000 -0.000000
v -0.000000 0.209424 -0.005853
v 0.005000 0.209424 -0.005853
v -0.000000 0.207716 -0.011481
v 0.005000 0.207716 -0.011481
v -0.000000 0.204944 -0.016667
v 0.005000 0.204944 -0.016667
v -0.000000 0.201213 -0.021213
v 0.005000 0.201213 -0.021213
v -0.000000 0.196667 -0.024944
v 0.005000 0.196667 -0.024944
v -0.000000 0.191480 -0.027716
v 0.005000 0.191480 -0.027716
v -0.000000 0.185853 -0.029424
v 0.005000 0.185853 -0.029424
vn -0.0000 -0.0980 -0.9952
vn -0.0000 -0.2903 -0.9569
vn -0.0000 -0.4714 -0.8819
vn -0.0000 -0.6344 -0.7730
vn -0.0000 -0.7730 -0.6344
vn -0.0000 -0.8819 -0.4714
vn -0.0000 -0.9569 -0.2903
vn -0.0000 -0.9952 -0.0980
vn -0.0000 -0.9952 0.0980
vn -0.0000 -0.9569 0.2903
vn -0.0000 -0.8819 0.4714
vn -0.0000 -0.7730 0.6344
vn -0.0000 -0.6344 0.7730
vn -0.0000 -0.4714 0.8819
vn -0.0000 -0.2903 0.9569
vn -0.0000 -0.0980 0.9952
vn -0.0000 0.0980 0.9952
vn -0.0000 0.2903 0.9569
vn -0.0000 0.4714 0.8819
vn -0.0000 0.6344 0.7730
vn -0.0000 0.7730 0.6344
vn -0.0000 0.8819 0.4714
vn -0.0000 0.9569 0.2903
vn -0.0000 0.9952 0.0980
vn -0.0000 0.9952 -0.0980
vn -0.0000 0.9569 -0.2903
vn -0.0000 0.8819 -0.4714
vn -0.0000 0.7730 -0.6344
vn -0.0000 0.6344 -0.7730
vn -0.0000 0.4714 -0.8819
vn 1.0000 -0.0000 -0.0000
vn -0.0000 0.2903 -0.9569
vn -0.0000 0.0980 -0.9952
vn -1.0000 -0.0000 -0.0000
vt 0.712645 0.727143
vt 0.700198 0.529256
vt 0.712645 0.529256
vt 0.700198 0.727143
vt 0.687752 0.529256
vt 0.687752 0.727143
vt 0.675306 0.529256
vt 0.675306 0.727143
vt 0.662860 0.529256
vt 0.662860 0.727143
vt 0.650414 0.529256
vt 0.650414 0.727143
vt 0.637968 0.529256
vt 0.637968 0.727143
vt 0.625522 0.529256
vt 0.625522 0.727143
vt 0.613076 0.529256
vt 0.613076 0.727143
vt 0.600630 0.529256
vt 0.600630 0.727143
vt 0.588184 0.529256
vt 0.588184 0.727143
vt 0.575738 0.529256
vt 0.575738 0.727143
vt 0.563292 0.529256
vt 0.563292 0.727143
vt 0.550846 0.529256
vt 0.550846 0.727143
vt 0.538400 0.529256
vt 0.538400 0.727143
vt 0.525954 0.529256
vt 0.525954 0.727143
vt 0.513508 0.529256
vt 0.513508 0.727143
vt 0.501062 0.529256
vt 0.501062 0.727143
vt 0.488616 0.529256
vt 0.488616 0.727143
vt 0.476170 0.529256
vt 0.476170 0.727143
vt 0.463724 0.529256
vt 0.463724 0.727143
vt 0.451278 0.529256
vt 0.451278 0.727143
vt 0.438832 0.529256
vt 0.438832 0.727143
vt 0.426386 0.529256
vt 0.426386 0.727143
vt 0.413940 0.529256
vt 0.413940 0.727143
vt 0.401494 0.529256
vt 0.401494 0.727143
vt 0.389048 0.529256
vt 0.389048 0.727143
vt 0.376602 0.529256
vt 0.376602 0.727143
vt 0.364156 0.529256
vt 0.364156 0.727143
vt 0.351710 0.529256
vt 0.351710 0.727143
vt 0.339264 0.529256
vt 0.025807 0.896284
vt 0.075699 0.692455
vt 0.204933 0.766440
vt 0.339264 0.727143
vt 0.326818 0.529256
vt 0.326818 0.727143
vt 0.314372 0.529256
vt 0.706825 0.448843
vt 0.631724 0.337151
vt 0.519327 0.411781
vt 0.210368 0.798056
vt 0.205080 0.895509
vt 0.212228 0.830949
vt 0.210443 0.863855
vt 0.190965 0.926693
vt 0.177341 0.947230
vt 0.162298 0.962129
vt 0.147635 0.971946
vt 0.131768 0.977477
vt 0.112719 0.980325
vt 0.092795 0.976400
vt 0.076052 0.969760
vt 0.059631 0.954235
vt 0.045230 0.933313
vt 0.033402 0.907801
vt 0.018477 0.863749
vt 0.016875 0.830856
vt 0.018058 0.797797
vt 0.024734 0.769520
vt 0.036290 0.743999
vt 0.048060 0.718403
vt 0.061208 0.704116
vt 0.093486 0.682796
vt 0.111992 0.679490
vt 0.130506 0.682665
vt 0.148315 0.692198
vt 0.162669 0.698843
vt 0.177759 0.712722
vt 0.192171 0.737622
vt 0.314372 0.727143
vt 0.594429 0.523473
vt 0.613076 0.525298
vt 0.631724 0.523473
vt 0.649655 0.518068
vt 0.666181 0.509290
vt 0.680665 0.497477
vt 0.692553 0.483083
vt 0.701386 0.466662
vt 0.708662 0.430312
vt 0.706825 0.411781
vt 0.701386 0.393962
vt 0.692553 0.377541
vt 0.680665 0.363147
vt 0.666181 0.351334
vt 0.649655 0.342556
vt 0.613076 0.335326
vt 0.594428 0.337151
vt 0.576497 0.342556
vt 0.559972 0.351334
vt 0.545487 0.363147
vt 0.533600 0.377541
vt 0.524767 0.393962
vt 0.517491 0.430312
vt 0.519327 0.448843
vt 0.524767 0.466662
vt 0.533600 0.483083
vt 0.545487 0.497477
vt 0.559972 0.509290
vt 0.576497 0.518068
s 0
usemtl Material.012
f 86/19/11 87/20/11 85/21/11
f 88/22/12 89/23/12 87/20/12
f 90/24/13 91/25/13 89/23/13
f 92/26/14 93/27/14 91/25/14
f 94/28/15 95/29/15 93/27/15
f 96/30/16 97/31/16 95/29/16
f 98/32/17 99/33/17 97/31/17
f 100/34/18 101/35/18 99/33/18
f 102/36/19 103/37/19 101/35/19
f 104/38/20 105/39/20 103/37/20
f 106/40/21 107/41/21 105/39/21
f 108/42/22 109/43/22 107/41/22
f 110/44/23 111/45/23 109/43/23
f 112/46/24 113/47/24 111/45/24
f 114/48/25 115/49/25 113/47/25
f 116/50/26 117/51/26 115/49/26
f 118/52/27 119/53/27 117/51/27
f 120/54/28 121/55/28 119/53/28
f 122/56/29 123/57/29 121/55/29
f 124/58/30 125/59/30 123/57/30
f 126/60/31 127/61/31 125/59/31
f 128/62/32 129/63/32 127/61/32
f 130/64/33 131/65/33 129/63/33
f 132/66/34 133/67/34 131/65/34
f 134/68/35 135/69/35 133/67/35
f 136/70/36 137/71/36 135/69/36
f 138/72/37 139/73/37 137/71/37
f 140/74/38 141/75/38 139/73/38
f 142/76/39 143/77/39 141/75/39
f 144/78/40 145/79/40 143/77/40
f 122/80/41 106/81/41 90/82/41
f 146/83/42 147/84/42 145/79/42
f 148/85/43 85/86/43 147/84/43
f 99/87/44 115/88/44 131/89/44
f 86/19/11 88/22/11 87/20/11
f 88/22/12 90/24/12 89/23/12
f 90/24/13 92/26/13 91/25/13
f 92/26/14 94/28/14 93/27/14
f 94/28/15 96/30/15 95/29/15
f 96/30/16 98/32/16 97/31/16
f 98/32/17 100/34/17 99/33/17
f 100/34/18 102/36/18 101/35/18
f 102/36/19 104/38/19 103/37/19
f 104/38/20 106/40/20 105/39/20
f 106/40/21 108/42/21 107/41/21
f 108/42/22 110/44/22 109/43/22
f 110/44/23 112/46/23 111/45/23
f 112/46/24 114/48/24 113/47/24
f 114/48/25 116/50/25 115/49/25
f 116/50/26 118/52/26 117/51/26
f 118/52/27 120/54/27 119/53/27
f 120/54/28 122/56/28 121/55/28
f 122/56/29 124/58/29 123/57/29
f 124/58/30 126/60/30 125/59/30
f 126/60/31 128/62/31 127/61/31
f 128/62/32 130/64/32 129/63/32
f 130/64/33 132/66/33 131/65/33
f 132/66/34 134/68/34 133/67/34
f 134/68/35 136/70/35 135/69/35
f 136/70/36 138/72/36 137/71/36
f 138/72/37 140/74/37 139/73/37
f 140/74/38 142/76/38 141/75/38
f 142/76/39 144/78/39 143/77/39
f 144/78/40 146/83/40 145/79/40
f 90/82/41 88/90/41 146/91/41
f 88/90/41 86/92/41 146/91/41
f 86/92/41 148/93/41 146/91/41
f 146/91/41 144/94/41 142/95/41
f 142/95/41 140/96/41 138/97/41
f 138/97/41 136/98/41 134/99/41
f 134/99/41 132/100/41 138/97/41
f 132/100/41 130/101/41 138/97/41
f 130/101/41 128/102/41 126/103/41
f 126/103/41 124/104/41 122/80/41
f 122/80/41 120/105/41 118/106/41
f 118/106/41 116/107/41 122/80/41
f 116/107/41 114/108/41 122/80/41
f 114/108/41 112/109/41 110/110/41
f 110/110/41 108/111/41 106/81/41
f 106/81/41 104/112/41 102/113/41
f 102/113/41 100/114/41 106/81/41
f 100/114/41 98/115/41 106/81/41
f 98/115/41 96/116/41 94/117/41
f 94/117/41 92/118/41 90/82/41
f 146/91/41 142/95/41 90/82/41
f 142/95/41 138/97/41 90/82/41
f 130/101/41 126/103/41 138/97/41
f 126/103/41 122/80/41 138/97/41
f 114/108/41 110/110/41 122/80/41
f 110/110/41 106/81/41 122/80/41
f 98/115/41 94/117/41 106/81/41
f 94/117/41 90/82/41 106/81/41
f 90/82/41 138/97/41 122/80/41
f 146/83/42 148/85/42 147/84/42
f 148/85/43 86/119/43 85/86/43
f 147/120/44 85/121/44 87/122/44
f 87/122/44 89/123/44 91/124/44
f 91/124/44 93/125/44 95/126/44
f 95/126/44 97/127/44 91/124/44
f 97/127/44 99/87/44 91/124/44
f 99/87/44 101/128/44 103/129/44
f 103/129/44 105/130/44 99/87/44
f 105/130/44 107/131/44 99/87/44
f 107/131/44 109/132/44 115/88/44
f 109/132/44 111/133/44 115/88/44
f 111/133/44 113/134/44 115/88/44
f 115/88/44 117/135/44 119/136/44
f 119/136/44 121/137/44 123/138/44
f 123/138/44 125/139/44 127/140/44
f 127/140/44 129/141/44 131/89/44
f 131/89/44 133/142/44 135/143/44
f 135/143/44 137/144/44 139/145/44
f 139/145/44 141/146/44 147/120/44
f 141/146/44 143/147/44 147/120/44
f 143/147/44 145/148/44 147/120/44
f 147/120/44 87/122/44 91/124/44
f 115/88/44 119/136/44 131/89/44
f 119/136/44 123/138/44 131/89/44
f 123/138/44 127/140/44 131/89/44
f 131/89/44 135/143/44 147/120/44
f 135/143/44 139/145/44 147/120/44
f 147/120/44 91/124/44 99/87/44
f 99/87/44 107/131/44 115/88/44
f 147/120/44 99/87/44 131/89/44
