# Blender 4.3.2
# www.blender.org
mtllib untitled.mtl
o beam
v -0.004433 -0.170479 0.004433
v -0.004433 -0.000387 -0.004433
v -0.004433 -0.170479 -0.004433
v 0.025000 -0.179626 0.025000
v -0.025000 -0.185387 0.025000
v 0.025000 -0.185387 0.025000
v -0.025000 -0.179626 0.025000
v -0.025000 -0.185387 -0.025000
v -0.025000 -0.185387 0.025000
v 0.025000 -0.185387 -0.025000
v -0.025000 -0.185387 0.025000
v -0.025000 -0.185387 -0.025000
v 0.025000 -0.179626 -0.025000
v 0.025000 -0.185387 0.025000
v 0.025000 -0.185387 -0.025000
v -0.025000 -0.179626 -0.025000
v 0.025000 -0.185387 -0.025000
v -0.025000 -0.185387 -0.025000
v -0.004433 -0.170479 0.004433
v 0.025000 -0.179626 0.025000
v 0.004433 -0.170479 0.004433
v 0.004433 -0.170479 0.004433
v 0.025000 -0.179626 -0.025000
v 0.004433 -0.170479 -0.004433
v -0.004433 -0.170479 -0.004433
v -0.025000 -0.179626 0.025000
v -0.004433 -0.170479 0.004433
v 0.004433 -0.170479 -0.004433
v -0.025000 -0.179626 -0.025000
v -0.004433 -0.170479 -0.004433
v -0.004433 -0.000387 -0.004433
v 0.004433 -0.000387 0.004433
v 0.004433 -0.000387 -0.004433
v 0.004433 -0.170479 0.004433
v -0.004433 -0.000387 0.004433
v -0.004433 -0.170479 0.004433
v -0.004433 -0.170479 -0.004433
v 0.004433 -0.000387 -0.004433
v 0.004433 -0.170479 -0.004433
v 0.004433 -0.170479 -0.004433
v 0.004433 -0.000387 0.004433
v 0.004433 -0.170479 0.004433
v -0.004433 -0.170479 0.004433
v -0.004433 -0.000387 0.004433
v -0.004433 -0.000387 -0.004433
v 0.025000 -0.179626 0.025000
v -0.025000 -0.179626 0.025000
v -0.025000 -0.185387 0.025000
v -0.025000 -0.179626 0.025000
v -0.025000 -0.179626 -0.025000
v -0.025000 -0.185387 -0.025000
v 0.025000 -0.185387 -0.025000
v 0.025000 -0.185387 0.025000
v -0.025000 -0.185387 0.025000
v 0.025000 -0.179626 -0.025000
v 0.025000 -0.179626 0.025000
v 0.025000 -0.185387 0.025000
v -0.025000 -0.179626 -0.025000
v 0.025000 -0.179626 -0.025000
v 0.025000 -0.185387 -0.025000
v -0.004433 -0.170479 0.004433
v -0.025000 -0.179626 0.025000
v 0.025000 -0.179626 0.025000
v 0.004433 -0.170479 0.004433
v 0.025000 -0.179626 0.025000
v 0.025000 -0.179626 -0.025000
v -0.004433 -0.170479 -0.004433
v -0.025000 -0.179626 -0.025000
v -0.025000 -0.179626 0.025000
v 0.004433 -0.170479 -0.004433
v 0.025000 -0.179626 -0.025000
v -0.025000 -0.179626 -0.025000
v -0.004433 -0.000387 -0.004433
v -0.004433 -0.000387 0.004433
v 0.004433 -0.000387 0.004433
v 0.004433 -0.170479 0.004433
v 0.004433 -0.000387 0.004433
v -0.004433 -0.000387 0.004433
v -0.004433 -0.170479 -0.004433
v -0.004433 -0.000387 -0.004433
v 0.004433 -0.000387 -0.004433
v 0.004433 -0.170479 -0.004433
v 0.004433 -0.000387 -0.004433
v 0.004433 -0.000387 0.004433
vn -1.0000 -0.0000 -0.0000
vn -0.0000 -0.0000 1.0000
vn -0.0000 -1.0000 -0.0000
vn 1.0000 -0.0000 -0.0000
vn -0.0000 -0.0000 -1.0000
vn -0.0000 0.9137 0.4064
vn 0.4064 0.9137 -0.0000
vn -0.4064 0.9137 -0.0000
vn -0.0000 0.9137 -0.4064
vn -0.0000 1.0000 -0.0000
vt 0.772166 0.647166
vt 0.772166 0.602834
vt 0.625000 0.750000
vt 0.375000 1.000000
vt 0.375000 0.750000
vt 0.625000 0.000000
vt 0.375000 0.250000
vt 0.375000 0.000000
vt 0.375000 0.500000
vt 0.125000 0.750000
vt 0.125000 0.500000
vt 0.625000 0.500000
vt 0.625000 0.250000
vt 0.727834 0.647166
vt 0.727834 0.602834
vt 0.875000 0.750000
vt 0.875000 0.500000
vt 0.625000 1.000000
s 1
usemtl Material.001
f 1/1/1 2/2/1 3/2/1
f 4/3/2 5/4/2 6/5/2
f 7/6/1 8/7/1 9/8/1
f 10/9/3 11/10/3 12/11/3
f 13/12/4 14/5/4 15/9/4
f 16/13/5 17/9/5 18/7/5
f 19/1/6 20/3/6 21/14/6
f 22/14/7 23/12/7 24/15/7
f 25/2/8 26/16/8 27/1/8
f 28/15/9 29/17/9 30/2/9
f 31/2/10 32/14/10 33/15/10
f 34/14/2 35/1/2 36/1/2
f 37/2/5 38/15/5 39/15/5
f 40/15/4 41/14/4 42/14/4
f 43/1/1 44/1/1 45/2/1
f 46/3/2 47/18/2 48/4/2
f 49/6/1 50/13/1 51/7/1
f 52/9/3 53/5/3 54/10/3
f 55/12/4 56/3/4 57/5/4
f 58/13/5 59/12/5 60/9/5
f 61/1/6 62/16/6 63/3/6
f 64/14/7 65/3/7 66/12/7
f 67/2/8 68/17/8 69/16/8
f 70/15/9 71/12/9 72/17/9
f 73/2/10 74/1/10 75/14/10
f 76/14/2 77/14/2 78/1/2
f 79/2/5 80/2/5 81/15/5
f 82/15/4 83/15/4 84/14/4
o prio
v 0.006000 -0.002517 0.039909
v 0.000000 -0.039909 0.002517
v 0.006000 -0.039909 0.002517
v 0.006000 -0.040876 0.000731
v 0.006000 -0.040924 -0.000440
v 0.006000 -0.039909 -0.002517
v 0.000000 0.039909 0.002517
v 0.006000 0.002517 0.039909
v 0.006000 0.039909 0.002517
v 0.000000 0.000731 -0.040876
v 0.000000 -0.000440 -0.040924
v 0.000000 -0.002517 -0.039909
v 0.000000 0.039909 -0.002517
v 0.006000 0.002517 -0.039909
v 0.000000 0.002517 -0.039909
v 0.000000 -0.002517 -0.039909
v 0.006000 -0.002301 -0.040108
v 0.006000 -0.002517 -0.039909
v 0.000000 -0.002301 -0.040108
v 0.006000 -0.002069 -0.040289
v 0.006000 -0.002301 -0.040108
v 0.000000 -0.002069 -0.040289
v 0.006000 -0.001822 -0.040450
v 0.006000 -0.002069 -0.040289
v 0.000000 -0.001822 -0.040450
v 0.006000 -0.001564 -0.040590
v 0.006000 -0.001822 -0.040450
v 0.000000 -0.001564 -0.040590
v 0.006000 -0.001294 -0.040708
v 0.006000 -0.001564 -0.040590
v 0.000000 -0.001294 -0.040708
v 0.006000 -0.001016 -0.040804
v 0.006000 -0.001294 -0.040708
v 0.000000 -0.001016 -0.040804
v 0.006000 -0.000731 -0.040876
v 0.006000 -0.001016 -0.040804
v 0.000000 -0.000731 -0.040876
v 0.006000 -0.000440 -0.040924
v 0.006000 -0.000731 -0.040876
v 0.000000 -0.000440 -0.040924
v 0.006000 -0.000147 -0.040949
v 0.006000 -0.000440 -0.040924
v 0.000000 -0.000147 -0.040949
v 0.006000 0.000147 -0.040949
v 0.006000 -0.000147 -0.040949
v 0.000000 0.000147 -0.040949
v 0.006000 0.000440 -0.040924
v 0.006000 0.000147 -0.040949
v 0.000000 0.000440 -0.040924
v 0.006000 0.000731 -0.040876
v 0.006000 0.000440 -0.040924
v 0.000000 0.000731 -0.040876
v 0.006000 0.001016 -0.040804
v 0.006000 0.000731 -0.040876
v 0.000000 0.001016 -0.040804
v 0.006000 0.001294 -0.040708
v 0.006000 0.001016 -0.040804
v 0.000000 0.001294 -0.040708
v 0.006000 0.001564 -0.040590
v 0.006000 0.001294 -0.040708
v 0.000000 0.001564 -0.040590
v 0.006000 0.001822 -0.040450
v 0.006000 0.001564 -0.040590
v 0.000000 0.001822 -0.040450
v 0.006000 0.002069 -0.040289
v 0.006000 0.001822 -0.040450
v 0.000000 0.002069 -0.040289
v 0.006000 0.002301 -0.040108
v 0.006000 0.002069 -0.040289
v 0.000000 0.002301 -0.040108
v 0.006000 0.002517 -0.039909
v 0.006000 0.002301 -0.040108
v 0.006000 0.039909 0.002517
v 0.000000 0.040108 0.002301
v 0.000000 0.039909 0.002517
v 0.006000 0.040108 0.002301
v 0.000000 0.040289 0.002069
v 0.000000 0.040108 0.002301
v 0.006000 0.040289 0.002069
v 0.000000 0.040450 0.001822
v 0.000000 0.040289 0.002069
v 0.006000 0.040450 0.001822
v 0.000000 0.040590 0.001564
v 0.000000 0.040450 0.001822
v 0.006000 0.040590 0.001564
v 0.000000 0.040708 0.001294
v 0.000000 0.040590 0.001564
v 0.006000 0.040708 0.001294
v 0.000000 0.040804 0.001016
v 0.000000 0.040708 0.001294
v 0.006000 0.040804 0.001016
v 0.000000 0.040876 0.000731
v 0.000000 0.040804 0.001016
v 0.006000 0.040876 0.000731
v 0.000000 0.040924 0.000440
v 0.000000 0.040876 0.000731
v 0.006000 0.040924 0.000440
v 0.000000 0.040949 0.000147
v 0.000000 0.040924 0.000440
v 0.006000 0.040949 0.000147
v 0.000000 0.040949 -0.000147
v 0.000000 0.040949 0.000147
v 0.006000 0.040949 -0.000147
v 0.000000 0.040924 -0.000440
v 0.000000 0.040949 -0.000147
v 0.006000 0.040924 -0.000440
v 0.000000 0.040876 -0.000731
v 0.000000 0.040924 -0.000440
v 0.006000 0.040876 -0.000731
v 0.000000 0.040804 -0.001016
v 0.000000 0.040876 -0.000731
v 0.006000 0.040804 -0.001016
v 0.000000 0.040708 -0.001294
v 0.000000 0.040804 -0.001016
v 0.006000 0.040708 -0.001294
v 0.000000 0.040590 -0.001564
v 0.000000 0.040708 -0.001294
v 0.006000 0.040590 -0.001564
v 0.000000 0.040450 -0.001822
v 0.000000 0.040590 -0.001564
v 0.006000 0.040450 -0.001822
v 0.000000 0.040289 -0.002069
v 0.000000 0.040450 -0.001822
v 0.006000 0.040289 -0.002069
v 0.000000 0.040108 -0.002301
v 0.000000 0.040289 -0.002069
v 0.006000 0.040108 -0.002301
v 0.000000 0.039909 -0.002517
v 0.000000 0.040108 -0.002301
v 0.006000 -0.039909 -0.002517
v 0.000000 -0.040108 -0.002301
v 0.000000 -0.039909 -0.002517
v 0.006000 -0.040108 -0.002301
v 0.000000 -0.040289 -0.002069
v 0.000000 -0.040108 -0.002301
v 0.006000 -0.040289 -0.002069
v 0.000000 -0.040450 -0.001822
v 0.000000 -0.040289 -0.002069
v 0.006000 -0.040450 -0.001822
v 0.000000 -0.040590 -0.001564
v 0.000000 -0.040450 -0.001822
v 0.006000 -0.040590 -0.001564
v 0.000000 -0.040708 -0.001294
v 0.000000 -0.040590 -0.001564
v 0.006000 -0.040708 -0.001294
v 0.000000 -0.040804 -0.001016
v 0.000000 -0.040708 -0.001294
v 0.006000 -0.040804 -0.001016
v 0.000000 -0.040876 -0.000731
v 0.000000 -0.040804 -0.001016
v 0.006000 -0.040876 -0.000731
v 0.000000 -0.040924 -0.000440
v 0.000000 -0.040876 -0.000731
v 0.006000 -0.040924 -0.000440
v 0.000000 -0.040949 -0.000147
v 0.000000 -0.040924 -0.000440
v 0.006000 -0.040949 -0.000147
v 0.000000 -0.040949 0.000147
v 0.000000 -0.040949 -0.000147
v 0.006000 -0.040949 0.000147
v 0.000000 -0.040924 0.000440
v 0.000000 -0.040949 0.000147
v 0.006000 -0.040924 0.000440
v 0.000000 -0.040876 0.000731
v 0.000000 -0.040924 0.000440
v 0.006000 -0.040876 0.000731
v 0.000000 -0.040804 0.001016
v 0.000000 -0.040876 0.000731
v 0.006000 -0.040804 0.001016
v 0.000000 -0.040708 0.001294
v 0.000000 -0.040804 0.001016
v 0.006000 -0.040708 0.001294
v 0.000000 -0.040590 0.001564
v 0.000000 -0.040708 0.001294
v 0.006000 -0.040590 0.001564
v 0.000000 -0.040450 0.001822
v 0.000000 -0.040590 0.001564
v 0.006000 -0.040450 0.001822
v 0.000000 -0.040289 0.002069
v 0.000000 -0.040450 0.001822
v 0.006000 -0.040289 0.002069
v 0.000000 -0.040108 0.002301
v 0.000000 -0.040289 0.002069
v 0.006000 -0.040108 0.002301
v 0.000000 -0.039909 0.002517
v 0.000000 -0.040108 0.002301
v 0.000000 0.002517 0.039909
v 0.006000 0.002301 0.040108
v 0.006000 0.002517 0.039909
v 0.000000 0.002301 0.040108
v 0.006000 0.002069 0.040289
v 0.006000 0.002301 0.040108
v 0.000000 0.002069 0.040289
v 0.006000 0.001822 0.040450
v 0.006000 0.002069 0.040289
v 0.000000 0.001822 0.040450
v 0.006000 0.001564 0.040590
v 0.006000 0.001822 0.040450
v 0.000000 0.001564 0.040590
v 0.006000 0.001294 0.040708
v 0.006000 0.001564 0.040590
v 0.000000 0.001294 0.040708
v 0.006000 0.001016 0.040804
v 0.006000 0.001294 0.040708
v 0.000000 0.001016 0.040804
v 0.006000 0.000731 0.040876
v 0.006000 0.001016 0.040804
v 0.000000 0.000731 0.040876
v 0.006000 0.000440 0.040924
v 0.006000 0.000731 0.040876
v 0.000000 0.000440 0.040924
v 0.006000 0.000147 0.040949
v 0.006000 0.000440 0.040924
v 0.000000 0.000147 0.040949
v 0.006000 -0.000147 0.040949
v 0.006000 0.000147 0.040949
v 0.000000 -0.000147 0.040949
v 0.006000 -0.000440 0.040924
v 0.006000 -0.000147 0.040949
v 0.000000 -0.000440 0.040924
v 0.006000 -0.000731 0.040876
v 0.006000 -0.000440 0.040924
v 0.000000 -0.000731 0.040876
v 0.006000 -0.001016 0.040804
v 0.006000 -0.000731 0.040876
v 0.000000 -0.001016 0.040804
v 0.006000 -0.001294 0.040708
v 0.006000 -0.001016 0.040804
v 0.000000 -0.001294 0.040708
v 0.006000 -0.001564 0.040590
v 0.006000 -0.001294 0.040708
v 0.000000 -0.001564 0.040590
v 0.006000 -0.001822 0.040450
v 0.006000 -0.001564 0.040590
v 0.000000 -0.001822 0.040450
v 0.006000 -0.002069 0.040289
v 0.006000 -0.001822 0.040450
v 0.000000 -0.002069 0.040289
v 0.006000 -0.002301 0.040108
v 0.006000 -0.002069 0.040289
v 0.000000 -0.002301 0.040108
v 0.006000 -0.002517 0.039909
v 0.006000 -0.002301 0.040108
v 0.006000 -0.002517 -0.039909
v 0.000000 -0.039909 -0.002517
v 0.000000 -0.002517 -0.039909
v 0.006000 -0.002517 0.039909
v 0.000000 -0.002517 0.039909
v 0.000000 -0.039909 0.002517
v 0.006000 -0.039909 -0.002517
v 0.006000 -0.002517 -0.039909
v 0.006000 0.002517 -0.039909
v 0.006000 -0.002517 -0.039909
v 0.006000 -0.002301 -0.040108
v 0.006000 0.002517 -0.039909
v 0.006000 -0.002301 -0.040108
v 0.006000 -0.002069 -0.040289
v 0.006000 -0.001822 -0.040450
v 0.006000 -0.001822 -0.040450
v 0.006000 -0.001564 -0.040590
v 0.006000 -0.001294 -0.040708
v 0.006000 -0.001294 -0.040708
v 0.006000 -0.001016 -0.040804
v 0.006000 -0.001822 -0.040450
v 0.006000 -0.001016 -0.040804
v 0.006000 -0.000731 -0.040876
v 0.006000 -0.001822 -0.040450
v 0.006000 -0.000731 -0.040876
v 0.006000 -0.000440 -0.040924
v 0.006000 -0.000147 -0.040949
v 0.006000 -0.000147 -0.040949
v 0.006000 0.000147 -0.040949
v 0.006000 -0.000731 -0.040876
v 0.006000 0.000147 -0.040949
v 0.006000 0.000440 -0.040924
v 0.006000 -0.000731 -0.040876
v 0.006000 0.000440 -0.040924
v 0.006000 0.000731 -0.040876
v 0.006000 0.001016 -0.040804
v 0.006000 0.001016 -0.040804
v 0.006000 0.001294 -0.040708
v 0.006000 0.001564 -0.040590
v 0.006000 0.001564 -0.040590
v 0.006000 0.001822 -0.040450
v 0.006000 0.002069 -0.040289
v 0.006000 0.002069 -0.040289
v 0.006000 0.002301 -0.040108
v 0.006000 0.002517 -0.039909
v 0.006000 0.002517 -0.039909
v 0.006000 0.039909 -0.002517
v 0.006000 -0.039909 -0.002517
v 0.006000 0.039909 -0.002517
v 0.006000 0.040108 -0.002301
v 0.006000 0.040924 0.000440
v 0.006000 -0.039909 -0.002517
v 0.006000 0.039909 -0.002517
v 0.006000 0.039909 0.002517
v 0.006000 0.040108 -0.002301
v 0.006000 0.040289 -0.002069
v 0.006000 0.040450 -0.001822
v 0.006000 0.040450 -0.001822
v 0.006000 0.040590 -0.001564
v 0.006000 0.040708 -0.001294
v 0.006000 0.040708 -0.001294
v 0.006000 0.040804 -0.001016
v 0.006000 0.040450 -0.001822
v 0.006000 0.040804 -0.001016
v 0.006000 0.040876 -0.000731
v 0.006000 0.040450 -0.001822
v 0.006000 0.040876 -0.000731
v 0.006000 0.040924 -0.000440
v 0.006000 0.040949 -0.000147
v 0.006000 0.040949 -0.000147
v 0.006000 0.040949 0.000147
v 0.006000 0.040924 0.000440
v 0.006000 0.040924 0.000440
v 0.006000 0.040876 0.000731
v 0.006000 0.040804 0.001016
v 0.006000 0.040804 0.001016
v 0.006000 0.040708 0.001294
v 0.006000 0.040590 0.001564
v 0.006000 0.040590 0.001564
v 0.006000 0.040450 0.001822
v 0.006000 0.040289 0.002069
v 0.006000 0.040289 0.002069
v 0.006000 0.040108 0.002301
v 0.006000 0.039909 0.002517
v 0.006000 0.039909 0.002517
v 0.006000 0.002517 0.039909
v 0.006000 -0.002517 0.039909
v 0.006000 0.002517 0.039909
v 0.006000 0.002301 0.040108
v 0.006000 -0.002517 0.039909
v 0.006000 0.002301 0.040108
v 0.006000 0.002069 0.040289
v 0.006000 0.001822 0.040450
v 0.006000 0.001822 0.040450
v 0.006000 0.001564 0.040590
v 0.006000 0.001294 0.040708
v 0.006000 0.001294 0.040708
v 0.006000 0.001016 0.040804
v 0.006000 0.001822 0.040450
v 0.006000 0.001016 0.040804
v 0.006000 0.000731 0.040876
v 0.006000 0.001822 0.040450
v 0.006000 0.000731 0.040876
v 0.006000 0.000440 0.040924
v 0.006000 0.000147 0.040949
v 0.006000 0.000147 0.040949
v 0.006000 -0.000147 0.040949
v 0.006000 0.000731 0.040876
v 0.006000 -0.000147 0.040949
v 0.006000 -0.000440 0.040924
v 0.006000 0.000731 0.040876
v 0.006000 -0.000440 0.040924
v 0.006000 -0.000731 0.040876
v 0.006000 -0.001016 0.040804
v 0.006000 -0.001016 0.040804
v 0.006000 -0.001294 0.040708
v 0.006000 -0.001564 0.040590
v 0.006000 -0.001564 0.040590
v 0.006000 -0.001822 0.040450
v 0.006000 -0.002069 0.040289
v 0.006000 -0.002069 0.040289
v 0.006000 -0.002301 0.040108
v 0.006000 -0.002517 0.039909
v 0.006000 -0.002517 0.039909
v 0.006000 -0.039909 0.002517
v 0.006000 0.039909 0.002517
v 0.006000 -0.039909 0.002517
v 0.006000 -0.040108 0.002301
v 0.006000 -0.039909 -0.002517
v 0.006000 0.039909 0.002517
v 0.006000 -0.039909 0.002517
v 0.006000 -0.039909 -0.002517
v 0.006000 -0.040108 0.002301
v 0.006000 -0.040289 0.002069
v 0.006000 -0.040450 0.001822
v 0.006000 -0.040450 0.001822
v 0.006000 -0.040590 0.001564
v 0.006000 -0.040708 0.001294
v 0.006000 -0.040708 0.001294
v 0.006000 -0.040804 0.001016
v 0.006000 -0.040450 0.001822
v 0.006000 -0.040804 0.001016
v 0.006000 -0.040876 0.000731
v 0.006000 -0.040450 0.001822
v 0.006000 -0.040876 0.000731
v 0.006000 -0.040924 0.000440
v 0.006000 -0.040949 0.000147
v 0.006000 -0.040949 0.000147
v 0.006000 -0.040949 -0.000147
v 0.006000 -0.040876 0.000731
v 0.006000 -0.040949 -0.000147
v 0.006000 -0.040924 -0.000440
v 0.006000 -0.040876 0.000731
v 0.006000 -0.040924 -0.000440
v 0.006000 -0.040876 -0.000731
v 0.006000 -0.040804 -0.001016
v 0.006000 -0.040804 -0.001016
v 0.006000 -0.040708 -0.001294
v 0.006000 -0.040590 -0.001564
v 0.006000 -0.040590 -0.001564
v 0.006000 -0.040450 -0.001822
v 0.006000 -0.040289 -0.002069
v 0.006000 -0.040289 -0.002069
v 0.006000 -0.040108 -0.002301
v 0.006000 -0.039909 -0.002517
v 0.006000 -0.002301 -0.040108
v 0.006000 -0.001822 -0.040450
v 0.006000 0.002517 -0.039909
v 0.006000 0.000440 -0.040924
v 0.006000 0.001016 -0.040804
v 0.006000 -0.000731 -0.040876
v 0.006000 0.001016 -0.040804
v 0.006000 0.001564 -0.040590
v 0.006000 -0.000731 -0.040876
v 0.006000 0.001564 -0.040590
v 0.006000 0.002069 -0.040289
v 0.006000 0.002517 -0.039909
v 0.006000 0.040108 -0.002301
v 0.006000 0.040450 -0.001822
v 0.006000 0.040924 0.000440
v 0.006000 0.039909 -0.002517
v 0.006000 0.040924 0.000440
v 0.006000 0.039909 0.002517
v 0.006000 0.040876 -0.000731
v 0.006000 0.040949 -0.000147
v 0.006000 0.040450 -0.001822
v 0.006000 0.040949 -0.000147
v 0.006000 0.040924 0.000440
v 0.006000 0.040450 -0.001822
v 0.006000 0.040924 0.000440
v 0.006000 0.040804 0.001016
v 0.006000 0.039909 0.002517
v 0.006000 0.040804 0.001016
v 0.006000 0.040590 0.001564
v 0.006000 0.039909 0.002517
v 0.006000 0.040590 0.001564
v 0.006000 0.040289 0.002069
v 0.006000 0.039909 0.002517
v 0.006000 0.002301 0.040108
v 0.006000 0.001822 0.040450
v 0.006000 -0.002517 0.039909
v 0.006000 -0.000440 0.040924
v 0.006000 -0.001016 0.040804
v 0.006000 0.000731 0.040876
v 0.006000 -0.001016 0.040804
v 0.006000 -0.001564 0.040590
v 0.006000 0.000731 0.040876
v 0.006000 -0.001564 0.040590
v 0.006000 -0.002069 0.040289
v 0.006000 -0.002517 0.039909
v 0.006000 -0.040108 0.002301
v 0.006000 -0.040450 0.001822
v 0.006000 -0.039909 -0.002517
v 0.006000 -0.040924 -0.000440
v 0.006000 -0.040804 -0.001016
v 0.006000 -0.039909 -0.002517
v 0.006000 -0.040804 -0.001016
v 0.006000 -0.040590 -0.001564
v 0.006000 -0.039909 -0.002517
v 0.006000 -0.040590 -0.001564
v 0.006000 -0.040289 -0.002069
v 0.006000 -0.039909 -0.002517
v 0.006000 -0.001822 -0.040450
v 0.006000 -0.000731 -0.040876
v 0.006000 0.001564 -0.040590
v 0.006000 0.001564 -0.040590
v 0.006000 0.002517 -0.039909
v 0.006000 -0.001822 -0.040450
v 0.006000 0.001822 0.040450
v 0.006000 0.000731 0.040876
v 0.006000 -0.002517 0.039909
v 0.006000 -0.001564 0.040590
v 0.006000 -0.002517 0.039909
v 0.006000 0.000731 0.040876
v 0.006000 -0.040450 0.001822
v 0.006000 -0.040876 0.000731
v 0.006000 -0.039909 -0.002517
v 0.000000 0.039909 0.002517
v 0.000000 0.002517 0.039909
v 0.006000 0.002517 0.039909
v 0.000000 -0.002517 -0.039909
v 0.000000 -0.039909 -0.002517
v 0.000000 -0.039909 0.002517
v 0.000000 -0.039909 -0.002517
v 0.000000 -0.040108 -0.002301
v 0.000000 -0.039909 0.002517
v 0.000000 -0.040108 -0.002301
v 0.000000 -0.040289 -0.002069
v 0.000000 -0.040450 -0.001822
v 0.000000 -0.040450 -0.001822
v 0.000000 -0.040590 -0.001564
v 0.000000 -0.040708 -0.001294
v 0.000000 -0.040708 -0.001294
v 0.000000 -0.040804 -0.001016
v 0.000000 -0.040450 -0.001822
v 0.000000 -0.040804 -0.001016
v 0.000000 -0.040876 -0.000731
v 0.000000 -0.040450 -0.001822
v 0.000000 -0.040876 -0.000731
v 0.000000 -0.040924 -0.000440
v 0.000000 -0.040949 -0.000147
v 0.000000 -0.040949 -0.000147
v 0.000000 -0.040949 0.000147
v 0.000000 -0.040876 -0.000731
v 0.000000 -0.040949 0.000147
v 0.000000 -0.040924 0.000440
v 0.000000 -0.040876 -0.000731
v 0.000000 -0.040924 0.000440
v 0.000000 -0.040876 0.000731
v 0.000000 -0.040804 0.001016
v 0.000000 -0.040804 0.001016
v 0.000000 -0.040708 0.001294
v 0.000000 -0.040590 0.001564
v 0.000000 -0.040590 0.001564
v 0.000000 -0.040450 0.001822
v 0.000000 -0.040289 0.002069
v 0.000000 -0.040289 0.002069
v 0.000000 -0.040108 0.002301
v 0.000000 -0.039909 0.002517
v 0.000000 -0.039909 0.002517
v 0.000000 -0.002517 0.039909
v 0.000000 -0.002517 -0.039909
v 0.000000 -0.002517 0.039909
v 0.000000 -0.002301 0.040108
v 0.000000 0.000440 0.040924
v 0.000000 -0.002517 -0.039909
v 0.000000 -0.002517 0.039909
v 0.000000 0.002517 0.039909
v 0.000000 -0.002301 0.040108
v 0.000000 -0.002069 0.040289
v 0.000000 -0.001822 0.040450
v 0.000000 -0.001822 0.040450
v 0.000000 -0.001564 0.040590
v 0.000000 -0.001294 0.040708
v 0.000000 -0.001294 0.040708
v 0.000000 -0.001016 0.040804
v 0.000000 -0.001822 0.040450
v 0.000000 -0.001016 0.040804
v 0.000000 -0.000731 0.040876
v 0.000000 -0.001822 0.040450
v 0.000000 -0.000731 0.040876
v 0.000000 -0.000440 0.040924
v 0.000000 -0.000147 0.040949
v 0.000000 -0.000147 0.040949
v 0.000000 0.000147 0.040949
v 0.000000 0.000440 0.040924
v 0.000000 0.000440 0.040924
v 0.000000 0.000731 0.040876
v 0.000000 0.001016 0.040804
v 0.000000 0.001016 0.040804
v 0.000000 0.001294 0.040708
v 0.000000 0.001564 0.040590
v 0.000000 0.001564 0.040590
v 0.000000 0.001822 0.040450
v 0.000000 0.002069 0.040289
v 0.000000 0.002069 0.040289
v 0.000000 0.002301 0.040108
v 0.000000 0.002517 0.039909
v 0.000000 0.002517 0.039909
v 0.000000 0.039909 0.002517
v 0.000000 0.039909 -0.002517
v 0.000000 0.039909 0.002517
v 0.000000 0.040108 0.002301
v 0.000000 0.039909 -0.002517
v 0.000000 0.040108 0.002301
v 0.000000 0.040289 0.002069
v 0.000000 0.040450 0.001822
v 0.000000 0.040450 0.001822
v 0.000000 0.040590 0.001564
v 0.000000 0.040708 0.001294
v 0.000000 0.040708 0.001294
v 0.000000 0.040804 0.001016
v 0.000000 0.040450 0.001822
v 0.000000 0.040804 0.001016
v 0.000000 0.040876 0.000731
v 0.000000 0.040450 0.001822
v 0.000000 0.040876 0.000731
v 0.000000 0.040924 0.000440
v 0.000000 0.040949 0.000147
v 0.000000 0.040949 0.000147
v 0.000000 0.040949 -0.000147
v 0.000000 0.040876 0.000731
v 0.000000 0.040949 -0.000147
v 0.000000 0.040924 -0.000440
v 0.000000 0.040876 0.000731
v 0.000000 0.040924 -0.000440
v 0.000000 0.040876 -0.000731
v 0.000000 0.040804 -0.001016
v 0.000000 0.040804 -0.001016
v 0.000000 0.040708 -0.001294
v 0.000000 0.040590 -0.001564
v 0.000000 0.040590 -0.001564
v 0.000000 0.040450 -0.001822
v 0.000000 0.040289 -0.002069
v 0.000000 0.040289 -0.002069
v 0.000000 0.040108 -0.002301
v 0.000000 0.039909 -0.002517
v 0.000000 0.039909 -0.002517
v 0.000000 0.002517 -0.039909
v 0.000000 0.002517 0.039909
v 0.000000 0.002517 -0.039909
v 0.000000 0.002301 -0.040108
v 0.000000 -0.002517 -0.039909
v 0.000000 0.002517 0.039909
v 0.000000 0.002517 -0.039909
v 0.000000 -0.002517 -0.039909
v 0.000000 0.002301 -0.040108
v 0.000000 0.002069 -0.040289
v 0.000000 0.001822 -0.040450
v 0.000000 0.001822 -0.040450
v 0.000000 0.001564 -0.040590
v 0.000000 0.001294 -0.040708
v 0.000000 0.001294 -0.040708
v 0.000000 0.001016 -0.040804
v 0.000000 0.001822 -0.040450
v 0.000000 0.001016 -0.040804
v 0.000000 0.000731 -0.040876
v 0.000000 0.001822 -0.040450
v 0.000000 0.000731 -0.040876
v 0.000000 0.000440 -0.040924
v 0.000000 0.000147 -0.040949
v 0.000000 0.000147 -0.040949
v 0.000000 -0.000147 -0.040949
v 0.000000 0.000731 -0.040876
v 0.000000 -0.000147 -0.040949
v 0.000000 -0.000440 -0.040924
v 0.000000 0.000731 -0.040876
v 0.000000 -0.000440 -0.040924
v 0.000000 -0.000731 -0.040876
v 0.000000 -0.001016 -0.040804
v 0.000000 -0.001016 -0.040804
v 0.000000 -0.001294 -0.040708
v 0.000000 -0.001564 -0.040590
v 0.000000 -0.001564 -0.040590
v 0.000000 -0.001822 -0.040450
v 0.000000 -0.002069 -0.040289
v 0.000000 -0.002069 -0.040289
v 0.000000 -0.002301 -0.040108
v 0.000000 -0.002517 -0.039909
v 0.000000 -0.040108 -0.002301
v 0.000000 -0.040450 -0.001822
v 0.000000 -0.039909 0.002517
v 0.000000 -0.040924 0.000440
v 0.000000 -0.040804 0.001016
v 0.000000 -0.040876 -0.000731
v 0.000000 -0.040804 0.001016
v 0.000000 -0.040590 0.001564
v 0.000000 -0.040876 -0.000731
v 0.000000 -0.040590 0.001564
v 0.000000 -0.040289 0.002069
v 0.000000 -0.039909 0.002517
v 0.000000 -0.002301 0.040108
v 0.000000 -0.001822 0.040450
v 0.000000 0.000440 0.040924
v 0.000000 -0.002517 0.039909
v 0.000000 0.000440 0.040924
v 0.000000 0.002517 0.039909
v 0.000000 -0.000731 0.040876
v 0.000000 -0.000147 0.040949
v 0.000000 -0.001822 0.040450
v 0.000000 -0.000147 0.040949
v 0.000000 0.000440 0.040924
v 0.000000 -0.001822 0.040450
v 0.000000 0.000440 0.040924
v 0.000000 0.001016 0.040804
v 0.000000 0.002517 0.039909
v 0.000000 0.001016 0.040804
v 0.000000 0.001564 0.040590
v 0.000000 0.002517 0.039909
v 0.000000 0.001564 0.040590
v 0.000000 0.002069 0.040289
v 0.000000 0.002517 0.039909
v 0.000000 0.040108 0.002301
v 0.000000 0.040450 0.001822
v 0.000000 0.039909 -0.002517
v 0.000000 0.040924 -0.000440
v 0.000000 0.040804 -0.001016
v 0.000000 0.040876 0.000731
v 0.000000 0.040804 -0.001016
v 0.000000 0.040590 -0.001564
v 0.000000 0.040876 0.000731
v 0.000000 0.040590 -0.001564
v 0.000000 0.040289 -0.002069
v 0.000000 0.039909 -0.002517
v 0.000000 0.002301 -0.040108
v 0.000000 0.001822 -0.040450
v 0.000000 -0.002517 -0.039909
v 0.000000 -0.000440 -0.040924
v 0.000000 -0.001016 -0.040804
v 0.000000 -0.002517 -0.039909
v 0.000000 -0.001016 -0.040804
v 0.000000 -0.001564 -0.040590
v 0.000000 -0.002517 -0.039909
v 0.000000 -0.001564 -0.040590
v 0.000000 -0.002069 -0.040289
v 0.000000 -0.002517 -0.039909
v 0.000000 -0.040450 -0.001822
v 0.000000 -0.040876 -0.000731
v 0.000000 -0.040590 0.001564
v 0.000000 -0.040590 0.001564
v 0.000000 -0.039909 0.002517
v 0.000000 -0.040450 -0.001822
v 0.000000 0.040450 0.001822
v 0.000000 0.040876 0.000731
v 0.000000 0.039909 -0.002517
v 0.000000 0.040590 -0.001564
v 0.000000 0.039909 -0.002517
v 0.000000 0.040876 0.000731
v 0.000000 0.001822 -0.040450
v 0.000000 0.000731 -0.040876
v 0.000000 -0.002517 -0.039909
v 0.000000 0.039909 -0.002517
v 0.006000 0.039909 -0.002517
v 0.006000 0.002517 -0.039909
v 0.000000 -0.002517 -0.039909
v 0.000000 -0.002301 -0.040108
v 0.006000 -0.002301 -0.040108
v 0.000000 -0.002301 -0.040108
v 0.000000 -0.002069 -0.040289
v 0.006000 -0.002069 -0.040289
v 0.000000 -0.002069 -0.040289
v 0.000000 -0.001822 -0.040450
v 0.006000 -0.001822 -0.040450
v 0.000000 -0.001822 -0.040450
v 0.000000 -0.001564 -0.040590
v 0.006000 -0.001564 -0.040590
v 0.000000 -0.001564 -0.040590
v 0.000000 -0.001294 -0.040708
v 0.006000 -0.001294 -0.040708
v 0.000000 -0.001294 -0.040708
v 0.000000 -0.001016 -0.040804
v 0.006000 -0.001016 -0.040804
v 0.000000 -0.001016 -0.040804
v 0.000000 -0.000731 -0.040876
v 0.006000 -0.000731 -0.040876
v 0.000000 -0.000731 -0.040876
v 0.000000 -0.000440 -0.040924
v 0.006000 -0.000440 -0.040924
v 0.000000 -0.000440 -0.040924
v 0.000000 -0.000147 -0.040949
v 0.006000 -0.000147 -0.040949
v 0.000000 -0.000147 -0.040949
v 0.000000 0.000147 -0.040949
v 0.006000 0.000147 -0.040949
v 0.000000 0.000147 -0.040949
v 0.000000 0.000440 -0.040924
v 0.006000 0.000440 -0.040924
v 0.000000 0.000440 -0.040924
v 0.000000 0.000731 -0.040876
v 0.006000 0.000731 -0.040876
v 0.000000 0.000731 -0.040876
v 0.000000 0.001016 -0.040804
v 0.006000 0.001016 -0.040804
v 0.000000 0.001016 -0.040804
v 0.000000 0.001294 -0.040708
v 0.006000 0.001294 -0.040708
v 0.000000 0.001294 -0.040708
v 0.000000 0.001564 -0.040590
v 0.006000 0.001564 -0.040590
v 0.000000 0.001564 -0.040590
v 0.000000 0.001822 -0.040450
v 0.006000 0.001822 -0.040450
v 0.000000 0.001822 -0.040450
v 0.000000 0.002069 -0.040289
v 0.006000 0.002069 -0.040289
v 0.000000 0.002069 -0.040289
v 0.000000 0.002301 -0.040108
v 0.006000 0.002301 -0.040108
v 0.000000 0.002301 -0.040108
v 0.000000 0.002517 -0.039909
v 0.006000 0.002517 -0.039909
v 0.006000 0.039909 0.002517
v 0.006000 0.040108 0.002301
v 0.000000 0.040108 0.002301
v 0.006000 0.040108 0.002301
v 0.006000 0.040289 0.002069
v 0.000000 0.040289 0.002069
v 0.006000 0.040289 0.002069
v 0.006000 0.040450 0.001822
v 0.000000 0.040450 0.001822
v 0.006000 0.040450 0.001822
v 0.006000 0.040590 0.001564
v 0.000000 0.040590 0.001564
v 0.006000 0.040590 0.001564
v 0.006000 0.040708 0.001294
v 0.000000 0.040708 0.001294
v 0.006000 0.040708 0.001294
v 0.006000 0.040804 0.001016
v 0.000000 0.040804 0.001016
v 0.006000 0.040804 0.001016
v 0.006000 0.040876 0.000731
v 0.000000 0.040876 0.000731
v 0.006000 0.040876 0.000731
v 0.006000 0.040924 0.000440
v 0.000000 0.040924 0.000440
v 0.006000 0.040924 0.000440
v 0.006000 0.040949 0.000147
v 0.000000 0.040949 0.000147
v 0.006000 0.040949 0.000147
v 0.006000 0.040949 -0.000147
v 0.000000 0.040949 -0.000147
v 0.006000 0.040949 -0.000147
v 0.006000 0.040924 -0.000440
v 0.000000 0.040924 -0.000440
v 0.006000 0.040924 -0.000440
v 0.006000 0.040876 -0.000731
v 0.000000 0.040876 -0.000731
v 0.006000 0.040876 -0.000731
v 0.006000 0.040804 -0.001016
v 0.000000 0.040804 -0.001016
v 0.006000 0.040804 -0.001016
v 0.006000 0.040708 -0.001294
v 0.000000 0.040708 -0.001294
v 0.006000 0.040708 -0.001294
v 0.006000 0.040590 -0.001564
v 0.000000 0.040590 -0.001564
v 0.006000 0.040590 -0.001564
v 0.006000 0.040450 -0.001822
v 0.000000 0.040450 -0.001822
v 0.006000 0.040450 -0.001822
v 0.006000 0.040289 -0.002069
v 0.000000 0.040289 -0.002069
v 0.006000 0.040289 -0.002069
v 0.006000 0.040108 -0.002301
v 0.000000 0.040108 -0.002301
v 0.006000 0.040108 -0.002301
v 0.006000 0.039909 -0.002517
v 0.000000 0.039909 -0.002517
v 0.006000 -0.039909 -0.002517
v 0.006000 -0.040108 -0.002301
v 0.000000 -0.040108 -0.002301
v 0.006000 -0.040108 -0.002301
v 0.006000 -0.040289 -0.002069
v 0.000000 -0.040289 -0.002069
v 0.006000 -0.040289 -0.002069
v 0.006000 -0.040450 -0.001822
v 0.000000 -0.040450 -0.001822
v 0.006000 -0.040450 -0.001822
v 0.006000 -0.040590 -0.001564
v 0.000000 -0.040590 -0.001564
v 0.006000 -0.040590 -0.001564
v 0.006000 -0.040708 -0.001294
v 0.000000 -0.040708 -0.001294
v 0.006000 -0.040708 -0.001294
v 0.006000 -0.040804 -0.001016
v 0.000000 -0.040804 -0.001016
v 0.006000 -0.040804 -0.001016
v 0.006000 -0.040876 -0.000731
v 0.000000 -0.040876 -0.000731
v 0.006000 -0.040876 -0.000731
v 0.006000 -0.040924 -0.000440
v 0.000000 -0.040924 -0.000440
v 0.006000 -0.040924 -0.000440
v 0.006000 -0.040949 -0.000147
v 0.000000 -0.040949 -0.000147
v 0.006000 -0.040949 -0.000147
v 0.006000 -0.040949 0.000147
v 0.000000 -0.040949 0.000147
v 0.006000 -0.040949 0.000147
v 0.006000 -0.040924 0.000440
v 0.000000 -0.040924 0.000440
v 0.006000 -0.040924 0.000440
v 0.006000 -0.040876 0.000731
v 0.000000 -0.040876 0.000731
v 0.006000 -0.040876 0.000731
v 0.006000 -0.040804 0.001016
v 0.000000 -0.040804 0.001016
v 0.006000 -0.040804 0.001016
v 0.006000 -0.040708 0.001294
v 0.000000 -0.040708 0.001294
v 0.006000 -0.040708 0.001294
v 0.006000 -0.040590 0.001564
v 0.000000 -0.040590 0.001564
v 0.006000 -0.040590 0.001564
v 0.006000 -0.040450 0.001822
v 0.000000 -0.040450 0.001822
v 0.006000 -0.040450 0.001822
v 0.006000 -0.040289 0.002069
v 0.000000 -0.040289 0.002069
v 0.006000 -0.040289 0.002069
v 0.006000 -0.040108 0.002301
v 0.000000 -0.040108 0.002301
v 0.006000 -0.040108 0.002301
v 0.006000 -0.039909 0.002517
v 0.000000 -0.039909 0.002517
v 0.000000 0.002517 0.039909
v 0.000000 0.002301 0.040108
v 0.006000 0.002301 0.040108
v 0.000000 0.002301 0.040108
v 0.000000 0.002069 0.040289
v 0.006000 0.002069 0.040289
v 0.000000 0.002069 0.040289
v 0.000000 0.001822 0.040450
v 0.006000 0.001822 0.040450
v 0.000000 0.001822 0.040450
v 0.000000 0.001564 0.040590
v 0.006000 0.001564 0.040590
v 0.000000 0.001564 0.040590
v 0.000000 0.001294 0.040708
v 0.006000 0.001294 0.040708
v 0.000000 0.001294 0.040708
v 0.000000 0.001016 0.040804
v 0.006000 0.001016 0.040804
v 0.000000 0.001016 0.040804
v 0.000000 0.000731 0.040876
v 0.006000 0.000731 0.040876
v 0.000000 0.000731 0.040876
v 0.000000 0.000440 0.040924
v 0.006000 0.000440 0.040924
v 0.000000 0.000440 0.040924
v 0.000000 0.000147 0.040949
v 0.006000 0.000147 0.040949
v 0.000000 0.000147 0.040949
v 0.000000 -0.000147 0.040949
v 0.006000 -0.000147 0.040949
v 0.000000 -0.000147 0.040949
v 0.000000 -0.000440 0.040924
v 0.006000 -0.000440 0.040924
v 0.000000 -0.000440 0.040924
v 0.000000 -0.000731 0.040876
v 0.006000 -0.000731 0.040876
v 0.000000 -0.000731 0.040876
v 0.000000 -0.001016 0.040804
v 0.006000 -0.001016 0.040804
v 0.000000 -0.001016 0.040804
v 0.000000 -0.001294 0.040708
v 0.006000 -0.001294 0.040708
v 0.000000 -0.001294 0.040708
v 0.000000 -0.001564 0.040590
v 0.006000 -0.001564 0.040590
v 0.000000 -0.001564 0.040590
v 0.000000 -0.001822 0.040450
v 0.006000 -0.001822 0.040450
v 0.000000 -0.001822 0.040450
v 0.000000 -0.002069 0.040289
v 0.006000 -0.002069 0.040289
v 0.000000 -0.002069 0.040289
v 0.000000 -0.002301 0.040108
v 0.006000 -0.002301 0.040108
v 0.000000 -0.002301 0.040108
v 0.000000 -0.002517 0.039909
v 0.006000 -0.002517 0.039909
v 0.006000 -0.002517 -0.039909
v 0.006000 -0.039909 -0.002517
v 0.000000 -0.039909 -0.002517
vn -0.0000 -0.7071 0.7071
vn 1.0000 -0.0000 -0.0000
vn -0.0000 0.7071 0.7071
vn -1.0000 -0.0000 -0.0000
vn -0.0000 0.7071 -0.7071
vn -0.0000 -0.6773 -0.7357
vn -0.0000 -0.6142 -0.7891
vn -0.0000 -0.5470 -0.8372
vn -0.0000 -0.4759 -0.8795
vn -0.0000 -0.4017 -0.9158
vn -0.0000 -0.3247 -0.9458
vn -0.0000 -0.2455 -0.9694
vn -0.0000 -0.1646 -0.9864
vn -0.0000 -0.0826 -0.9966
vn -0.0000 -0.0000 -1.0000
vn -0.0000 0.0826 -0.9966
vn -0.0000 0.1646 -0.9864
vn -0.0000 0.2455 -0.9694
vn -0.0000 0.3247 -0.9458
vn -0.0000 0.4017 -0.9158
vn -0.0000 0.4759 -0.8795
vn -0.0000 0.5470 -0.8372
vn -0.0000 0.6142 -0.7891
vn -0.0000 0.6773 -0.7357
vn -0.0000 0.7357 0.6773
vn -0.0000 0.7891 0.6142
vn -0.0000 0.8372 0.5470
vn -0.0000 0.8795 0.4759
vn -0.0000 0.9158 0.4017
vn -0.0000 0.9458 0.3247
vn -0.0000 0.9694 0.2455
vn -0.0000 0.9864 0.1646
vn -0.0000 0.9966 0.0826
vn -0.0000 1.0000 -0.0000
vn -0.0000 0.9966 -0.0826
vn -0.0000 0.9864 -0.1646
vn -0.0000 0.9694 -0.2455
vn -0.0000 0.9458 -0.3247
vn -0.0000 0.9158 -0.4017
vn -0.0000 0.8795 -0.4759
vn -0.0000 0.8372 -0.5470
vn -0.0000 0.7891 -0.6142
vn -0.0000 0.7357 -0.6773
vn -0.0000 -0.7357 -0.6773
vn -0.0000 -0.7892 -0.6142
vn -0.0000 -0.8372 -0.5470
vn -0.0000 -0.8795 -0.4759
vn -0.0000 -0.9158 -0.4017
vn -0.0000 -0.9458 -0.3247
vn -0.0000 -0.9694 -0.2455
vn -0.0000 -0.9864 -0.1646
vn -0.0000 -0.9966 -0.0825
vn -0.0000 -1.0000 -0.0000
vn -0.0000 -0.9966 0.0826
vn -0.0000 -0.9864 0.1646
vn -0.0000 -0.9694 0.2455
vn -0.0000 -0.9458 0.3247
vn -0.0000 -0.9158 0.4017
vn -0.0000 -0.8795 0.4760
vn -0.0000 -0.8372 0.5470
vn -0.0000 -0.7891 0.6142
vn -0.0000 -0.7357 0.6773
vn -0.0000 0.6773 0.7357
vn -0.0000 0.6142 0.7891
vn -0.0000 0.5470 0.8372
vn -0.0000 0.4759 0.8795
vn -0.0000 0.4017 0.9158
vn -0.0000 0.3247 0.9458
vn -0.0000 0.2455 0.9694
vn -0.0000 0.1646 0.9864
vn -0.0000 0.0826 0.9966
vn -0.0000 -0.0000 1.0000
vn -0.0000 -0.0826 0.9966
vn -0.0000 -0.1646 0.9864
vn -0.0000 -0.2455 0.9694
vn -0.0000 -0.3247 0.9458
vn -0.0000 -0.4017 0.9158
vn -0.0000 -0.4759 0.8795
vn -0.0000 -0.5470 0.8372
vn -0.0000 -0.6142 0.7891
vn -0.0000 -0.6773 0.7357
vn -0.0000 -0.7071 -0.7071
vn -0.0000 -0.7891 -0.6142
vn -0.0000 -0.9966 -0.0826
vn -0.0000 -0.8795 0.4759
vn -0.0000 -0.7892 0.6142
vt 0.190667 0.122509
vt 0.155829 0.162038
vt 0.155829 0.122509
vt 0.003127 0.506608
vt 0.002576 0.492445
vt 0.014918 0.467358
vt 0.232541 0.085326
vt 0.193012 0.120164
vt 0.193012 0.085326
vt 0.200729 0.092766
vt 0.200161 0.092244
vt 0.199666 0.090803
vt 0.190667 0.043452
vt 0.155829 0.082981
vt 0.155829 0.043452
vt 0.113955 0.085326
vt 0.153484 0.085133
vt 0.153484 0.085326
vt 0.113955 0.085133
vt 0.153484 0.084940
vt 0.113955 0.084940
vt 0.153484 0.084750
vt 0.113955 0.084750
vt 0.153484 0.084565
vt 0.113955 0.084565
vt 0.153484 0.084384
vt 0.113955 0.084384
vt 0.153484 0.084210
vt 0.113955 0.084210
vt 0.153484 0.084043
vt 0.113955 0.084043
vt 0.153484 0.083886
vt 0.113955 0.083886
vt 0.153484 0.083738
vt 0.113955 0.083738
vt 0.153484 0.082981
vt 0.154241 0.043452
vt 0.154389 0.082981
vt 0.154241 0.082981
vt 0.154389 0.043452
vt 0.154546 0.082981
vt 0.154546 0.043452
vt 0.154713 0.082981
vt 0.154713 0.043452
vt 0.154887 0.082981
vt 0.154887 0.043452
vt 0.155068 0.082981
vt 0.155068 0.043452
vt 0.155253 0.082981
vt 0.155253 0.043452
vt 0.155443 0.082981
vt 0.155443 0.043452
vt 0.155636 0.082981
vt 0.155636 0.043452
vt 0.232541 0.085133
vt 0.193012 0.085133
vt 0.232541 0.084940
vt 0.193012 0.084940
vt 0.232541 0.084750
vt 0.193012 0.084750
vt 0.232541 0.084565
vt 0.193012 0.084565
vt 0.232541 0.084384
vt 0.193012 0.084384
vt 0.232541 0.084210
vt 0.193012 0.084210
vt 0.232541 0.084043
vt 0.193012 0.084043
vt 0.232541 0.083886
vt 0.193012 0.083886
vt 0.232541 0.083738
vt 0.193012 0.083738
vt 0.232541 0.082981
vt 0.192255 0.082981
vt 0.192107 0.043452
vt 0.192255 0.043452
vt 0.192107 0.082981
vt 0.191950 0.043452
vt 0.191950 0.082981
vt 0.191783 0.043452
vt 0.191783 0.082981
vt 0.191609 0.043452
vt 0.191609 0.082981
vt 0.191428 0.043452
vt 0.191428 0.082981
vt 0.191243 0.043452
vt 0.191243 0.082981
vt 0.191053 0.043452
vt 0.191053 0.082981
vt 0.190861 0.043452
vt 0.190861 0.082981
vt 0.153484 0.120164
vt 0.113955 0.120357
vt 0.113955 0.120164
vt 0.153484 0.120357
vt 0.113955 0.120550
vt 0.153484 0.120550
vt 0.113955 0.120740
vt 0.153484 0.120740
vt 0.113955 0.120925
vt 0.153484 0.120925
vt 0.113955 0.121106
vt 0.153484 0.121106
vt 0.113955 0.121280
vt 0.153484 0.121280
vt 0.113955 0.121447
vt 0.153484 0.121447
vt 0.113955 0.121605
vt 0.153484 0.121605
vt 0.113955 0.121752
vt 0.153484 0.121752
vt 0.113955 0.122509
vt 0.154241 0.122509
vt 0.154389 0.162038
vt 0.154241 0.162038
vt 0.154389 0.122509
vt 0.154546 0.162038
vt 0.154546 0.122509
vt 0.154713 0.162038
vt 0.154713 0.122509
vt 0.154887 0.162038
vt 0.154887 0.122509
vt 0.155068 0.162038
vt 0.155068 0.122509
vt 0.155253 0.162038
vt 0.155253 0.122509
vt 0.155443 0.162038
vt 0.155443 0.122509
vt 0.155636 0.162038
vt 0.155636 0.122509
vt 0.232541 0.120164
vt 0.193012 0.120357
vt 0.232541 0.120357
vt 0.193012 0.120550
vt 0.232541 0.120550
vt 0.193012 0.120740
vt 0.232541 0.120740
vt 0.193012 0.120925
vt 0.232541 0.120925
vt 0.193012 0.121106
vt 0.232541 0.121106
vt 0.193012 0.121280
vt 0.232541 0.121280
vt 0.193012 0.121447
vt 0.232541 0.121447
vt 0.193012 0.121605
vt 0.232541 0.121605
vt 0.193012 0.121752
vt 0.232541 0.121752
vt 0.193012 0.122509
vt 0.192255 0.162038
vt 0.192107 0.122509
vt 0.192255 0.122509
vt 0.192107 0.162038
vt 0.191950 0.122509
vt 0.191950 0.162038
vt 0.191783 0.122509
vt 0.191783 0.162038
vt 0.191609 0.122509
vt 0.191609 0.162038
vt 0.191428 0.122509
vt 0.191428 0.162038
vt 0.191243 0.122509
vt 0.191243 0.162038
vt 0.191053 0.122509
vt 0.191053 0.162038
vt 0.190861 0.122509
vt 0.190861 0.162038
vt 0.190667 0.162038
vt 0.468243 0.016294
vt 0.529130 0.016446
vt 0.470867 0.013891
vt 0.473680 0.011712
vt 0.476664 0.009773
vt 0.479798 0.008087
vt 0.483060 0.006666
vt 0.486429 0.005519
vt 0.489880 0.004654
vt 0.493392 0.004077
vt 0.496939 0.003792
vt 0.500497 0.003801
vt 0.504043 0.004104
vt 0.507551 0.004698
vt 0.510998 0.005581
vt 0.514361 0.006744
vt 0.517616 0.008182
vt 0.520741 0.009883
vt 0.523715 0.011837
vt 0.526518 0.014030
vt 0.980194 0.469771
vt 0.982598 0.472395
vt 0.992384 0.505570
vt 0.980042 0.530658
vt 0.984776 0.475208
vt 0.986715 0.478192
vt 0.988401 0.481326
vt 0.989822 0.484588
vt 0.990969 0.487956
vt 0.991834 0.491408
vt 0.992411 0.494920
vt 0.992696 0.498466
vt 0.992687 0.502025
vt 0.991790 0.509079
vt 0.990908 0.512526
vt 0.989744 0.515889
vt 0.988306 0.519144
vt 0.986605 0.522269
vt 0.984651 0.525243
vt 0.982458 0.528046
vt 0.526717 0.981722
vt 0.465830 0.981570
vt 0.524094 0.984125
vt 0.521280 0.986304
vt 0.518296 0.988243
vt 0.515162 0.989928
vt 0.511900 0.991350
vt 0.508532 0.992497
vt 0.505080 0.993362
vt 0.501568 0.993939
vt 0.498022 0.994223
vt 0.494463 0.994215
vt 0.490918 0.993912
vt 0.487409 0.993317
vt 0.483962 0.992435
vt 0.480599 0.991271
vt 0.477344 0.989834
vt 0.474219 0.988132
vt 0.471245 0.986179
vt 0.468442 0.983986
vt 0.014766 0.528245
vt 0.012363 0.525621
vt 0.010184 0.522808
vt 0.008245 0.519824
vt 0.006560 0.516690
vt 0.005138 0.513428
vt 0.003991 0.510059
vt 0.002550 0.503096
vt 0.002265 0.499549
vt 0.002273 0.495991
vt 0.003171 0.488937
vt 0.004053 0.485490
vt 0.005217 0.482127
vt 0.006654 0.478872
vt 0.008356 0.475747
vt 0.010309 0.472773
vt 0.012502 0.469970
vt 0.199666 0.055965
vt 0.202011 0.053620
vt 0.199674 0.055772
vt 0.199698 0.055579
vt 0.199738 0.055390
vt 0.199793 0.055204
vt 0.199864 0.055023
vt 0.199949 0.054849
vt 0.200048 0.054682
vt 0.200161 0.054525
vt 0.200286 0.054377
vt 0.200423 0.054240
vt 0.200571 0.054114
vt 0.200729 0.054002
vt 0.200895 0.053903
vt 0.201069 0.053817
vt 0.201250 0.053747
vt 0.201436 0.053692
vt 0.201625 0.053652
vt 0.201818 0.053628
vt 0.236849 0.053620
vt 0.237043 0.053628
vt 0.238700 0.054525
vt 0.239194 0.055965
vt 0.237235 0.053652
vt 0.237425 0.053692
vt 0.237611 0.053747
vt 0.237791 0.053817
vt 0.237965 0.053903
vt 0.238132 0.054002
vt 0.238290 0.054114
vt 0.238438 0.054240
vt 0.238575 0.054377
vt 0.238813 0.054682
vt 0.238912 0.054849
vt 0.238997 0.055023
vt 0.239067 0.055204
vt 0.239123 0.055390
vt 0.239163 0.055579
vt 0.239186 0.055772
vt 0.239194 0.090803
vt 0.236849 0.093148
vt 0.239186 0.090997
vt 0.239163 0.091189
vt 0.239123 0.091379
vt 0.239067 0.091565
vt 0.238997 0.091745
vt 0.238912 0.091919
vt 0.238813 0.092086
vt 0.238700 0.092244
vt 0.238575 0.092391
vt 0.238438 0.092529
vt 0.238290 0.092654
vt 0.238132 0.092766
vt 0.237965 0.092866
vt 0.237791 0.092951
vt 0.237611 0.093021
vt 0.237425 0.093077
vt 0.237235 0.093116
vt 0.237043 0.093140
vt 0.202011 0.093148
vt 0.201818 0.093140
vt 0.201625 0.093116
vt 0.201436 0.093077
vt 0.201250 0.093021
vt 0.201069 0.092951
vt 0.200895 0.092866
vt 0.200571 0.092654
vt 0.200423 0.092529
vt 0.200286 0.092391
vt 0.200048 0.092086
vt 0.199949 0.091919
vt 0.199864 0.091745
vt 0.199793 0.091565
vt 0.199738 0.091379
vt 0.199698 0.091189
vt 0.199674 0.090997
vt 0.190667 0.082981
vt 0.113955 0.082981
vt 0.193012 0.082981
vt 0.153484 0.122509
vt 0.232541 0.122509
s 1
usemtl Material.002
f 85/19/11 86/20/11 87/21/11
f 88/22/12 89/23/12 90/24/12
f 91/25/13 92/26/13 93/27/13
f 94/28/14 95/29/14 96/30/14
f 97/31/15 98/32/15 99/33/15
f 100/34/16 101/35/16 102/36/16
f 103/37/17 104/38/17 105/35/17
f 106/39/18 107/40/18 108/38/18
f 109/41/19 110/42/19 111/40/19
f 112/43/20 113/44/20 114/42/20
f 115/45/21 116/46/21 117/44/21
f 118/47/22 119/48/22 120/46/22
f 121/49/23 122/50/23 123/48/23
f 124/51/24 125/52/24 126/50/24
f 127/53/25 128/54/25 129/52/25
f 130/55/26 131/56/26 132/57/26
f 133/58/27 134/59/27 135/56/27
f 136/60/28 137/61/28 138/59/28
f 139/62/29 140/63/29 141/61/29
f 142/64/30 143/65/30 144/63/30
f 145/66/31 146/67/31 147/65/31
f 148/68/32 149/69/32 150/67/32
f 151/70/33 152/71/33 153/69/33
f 154/72/34 155/32/34 156/71/34
f 157/27/35 158/73/35 159/25/35
f 160/74/36 161/75/36 162/73/36
f 163/76/37 164/77/37 165/75/37
f 166/78/38 167/79/38 168/77/38
f 169/80/39 170/81/39 171/79/39
f 172/82/40 173/83/40 174/81/40
f 175/84/41 176/85/41 177/83/41
f 178/86/42 179/87/42 180/85/42
f 181/88/43 182/89/43 183/87/43
f 184/90/44 185/91/44 186/89/44
f 187/92/45 188/93/45 189/94/45
f 190/95/46 191/96/46 192/93/46
f 193/97/47 194/98/47 195/96/47
f 196/99/48 197/100/48 198/98/48
f 199/101/49 200/102/49 201/100/49
f 202/103/50 203/104/50 204/102/50
f 205/105/51 206/106/51 207/104/51
f 208/107/52 209/108/52 210/106/52
f 211/109/53 212/31/53 213/108/53
f 214/110/54 215/111/54 216/112/54
f 217/113/55 218/114/55 219/111/55
f 220/115/56 221/116/56 222/114/56
f 223/117/57 224/118/57 225/116/57
f 226/119/58 227/120/58 228/118/58
f 229/121/59 230/122/59 231/120/59
f 232/123/60 233/124/60 234/122/60
f 235/125/61 236/126/61 237/124/61
f 238/127/62 239/128/62 240/126/62
f 241/129/63 242/130/63 243/128/63
f 244/131/64 245/132/64 246/133/64
f 247/134/65 248/135/65 249/132/65
f 250/136/66 251/137/66 252/135/66
f 253/138/67 254/139/67 255/137/67
f 256/140/68 257/141/68 258/139/68
f 259/142/69 260/143/69 261/141/69
f 262/144/70 263/145/70 264/143/70
f 265/146/71 266/147/71 267/145/71
f 268/148/72 269/20/72 270/147/72
f 271/149/73 272/150/73 273/26/73
f 274/151/74 275/152/74 276/150/74
f 277/153/75 278/154/75 279/152/75
f 280/155/76 281/156/76 282/154/76
f 283/157/77 284/158/77 285/156/77
f 286/159/78 287/160/78 288/158/78
f 289/161/79 290/162/79 291/160/79
f 292/163/80 293/164/80 294/162/80
f 295/165/81 296/166/81 297/164/81
f 298/167/82 299/168/82 300/166/82
f 301/169/83 302/170/83 303/171/83
f 304/172/84 305/173/84 306/170/84
f 307/174/85 308/175/85 309/173/85
f 310/176/86 311/177/86 312/175/86
f 313/178/87 314/179/87 315/177/87
f 316/180/88 317/181/88 318/179/88
f 319/182/89 320/183/89 321/181/89
f 322/184/90 323/185/90 324/183/90
f 325/186/91 326/19/91 327/185/91
f 328/36/92 329/112/92 330/34/92
f 331/19/11 332/187/11 333/20/11
f 334/24/12 335/188/12 336/189/12
f 337/188/12 338/190/12 339/189/12
f 340/190/12 341/191/12 342/192/12
f 343/192/12 344/193/12 345/194/12
f 346/194/12 347/195/12 348/192/12
f 349/195/12 350/196/12 351/192/12
f 352/196/12 353/197/12 354/198/12
f 355/198/12 356/199/12 357/196/12
f 358/199/12 359/200/12 360/196/12
f 361/200/12 362/201/12 363/202/12
f 364/202/12 365/203/12 366/204/12
f 367/204/12 368/205/12 369/206/12
f 370/206/12 371/207/12 372/189/12
f 373/189/12 374/208/12 375/24/12
f 376/208/12 377/209/12 378/210/12
f 379/24/12 380/208/12 381/211/12
f 382/209/12 383/212/12 384/213/12
f 385/213/12 386/214/12 387/215/12
f 388/215/12 389/216/12 390/213/12
f 391/216/12 392/217/12 393/213/12
f 394/217/12 395/218/12 396/219/12
f 397/219/12 398/220/12 399/210/12
f 400/210/12 401/221/12 402/222/12
f 403/222/12 404/223/12 405/224/12
f 406/224/12 407/225/12 408/226/12
f 409/226/12 410/227/12 411/211/12
f 412/211/12 413/228/12 414/229/12
f 415/228/12 416/230/12 417/229/12
f 418/230/12 419/231/12 420/232/12
f 421/232/12 422/233/12 423/234/12
f 424/234/12 425/235/12 426/232/12
f 427/235/12 428/236/12 429/232/12
f 430/236/12 431/237/12 432/238/12
f 433/238/12 434/239/12 435/236/12
f 436/239/12 437/240/12 438/236/12
f 439/240/12 440/241/12 441/242/12
f 442/242/12 443/243/12 444/244/12
f 445/244/12 446/245/12 447/246/12
f 448/246/12 449/247/12 450/229/12
f 451/229/12 452/248/12 453/211/12
f 454/248/12 455/249/12 456/24/12
f 457/211/12 458/248/12 459/24/12
f 460/249/12 461/250/12 462/251/12
f 463/251/12 464/252/12 465/253/12
f 466/253/12 467/254/12 468/251/12
f 469/254/12 470/22/12 471/251/12
f 472/22/12 473/255/12 474/256/12
f 475/256/12 476/257/12 477/22/12
f 478/257/12 479/23/12 480/22/12
f 481/23/12 482/258/12 483/259/12
f 484/259/12 485/260/12 486/261/12
f 487/261/12 488/262/12 489/263/12
f 490/263/12 491/264/12 492/24/12
f 493/190/12 494/192/12 495/189/12
f 496/200/12 497/202/12 498/196/12
f 499/202/12 500/204/12 501/196/12
f 502/204/12 503/206/12 504/189/12
f 505/209/12 506/213/12 507/210/12
f 508/208/12 509/210/12 510/211/12
f 511/217/12 512/219/12 513/213/12
f 514/219/12 515/210/12 516/213/12
f 517/210/12 518/222/12 519/211/12
f 520/222/12 521/224/12 522/211/12
f 523/224/12 524/226/12 525/211/12
f 526/230/12 527/232/12 528/229/12
f 529/240/12 530/242/12 531/236/12
f 532/242/12 533/244/12 534/236/12
f 535/244/12 536/246/12 537/229/12
f 538/249/12 539/251/12 540/24/12
f 541/23/12 542/259/12 543/24/12
f 544/259/12 545/261/12 546/24/12
f 547/261/12 548/263/12 549/24/12
f 550/192/12 551/196/12 552/204/12
f 553/204/12 554/189/12 555/192/12
f 556/232/12 557/236/12 558/229/12
f 559/244/12 560/229/12 561/236/12
f 562/251/12 563/22/12 564/24/12
f 565/25/13 566/149/13 567/26/13
f 568/30/14 569/265/14 570/266/14
f 571/265/14 572/267/14 573/266/14
f 574/267/14 575/268/14 576/269/14
f 577/269/14 578/270/14 579/271/14
f 580/271/14 581/272/14 582/269/14
f 583/272/14 584/273/14 585/269/14
f 586/273/14 587/274/14 588/275/14
f 589/275/14 590/276/14 591/273/14
f 592/276/14 593/277/14 594/273/14
f 595/277/14 596/278/14 597/279/14
f 598/279/14 599/280/14 600/281/14
f 601/281/14 602/282/14 603/283/14
f 604/283/14 605/284/14 606/266/14
f 607/266/14 608/285/14 609/30/14
f 610/285/14 611/286/14 612/287/14
f 613/30/14 614/285/14 615/288/14
f 616/286/14 617/289/14 618/290/14
f 619/290/14 620/291/14 621/292/14
f 622/292/14 623/293/14 624/290/14
f 625/293/14 626/294/14 627/290/14
f 628/294/14 629/295/14 630/296/14
f 631/296/14 632/297/14 633/287/14
f 634/287/14 635/298/14 636/299/14
f 637/299/14 638/300/14 639/301/14
f 640/301/14 641/302/14 642/303/14
f 643/303/14 644/304/14 645/288/14
f 646/288/14 647/305/14 648/306/14
f 649/305/14 650/307/14 651/306/14
f 652/307/14 653/308/14 654/309/14
f 655/309/14 656/310/14 657/311/14
f 658/311/14 659/312/14 660/309/14
f 661/312/14 662/313/14 663/309/14
f 664/313/14 665/314/14 666/315/14
f 667/315/14 668/316/14 669/313/14
f 670/316/14 671/317/14 672/313/14
f 673/317/14 674/318/14 675/319/14
f 676/319/14 677/320/14 678/321/14
f 679/321/14 680/322/14 681/323/14
f 682/323/14 683/324/14 684/306/14
f 685/306/14 686/325/14 687/288/14
f 688/325/14 689/326/14 690/30/14
f 691/288/14 692/325/14 693/30/14
f 694/326/14 695/327/14 696/328/14
f 697/328/14 698/329/14 699/330/14
f 700/330/14 701/331/14 702/328/14
f 703/331/14 704/28/14 705/328/14
f 706/28/14 707/332/14 708/333/14
f 709/333/14 710/334/14 711/28/14
f 712/334/14 713/29/14 714/28/14
f 715/29/14 716/335/14 717/336/14
f 718/336/14 719/337/14 720/338/14
f 721/338/14 722/339/14 723/340/14
f 724/340/14 725/341/14 726/30/14
f 727/267/14 728/269/14 729/266/14
f 730/277/14 731/279/14 732/273/14
f 733/279/14 734/281/14 735/273/14
f 736/281/14 737/283/14 738/266/14
f 739/286/14 740/290/14 741/287/14
f 742/285/14 743/287/14 744/288/14
f 745/294/14 746/296/14 747/290/14
f 748/296/14 749/287/14 750/290/14
f 751/287/14 752/299/14 753/288/14
f 754/299/14 755/301/14 756/288/14
f 757/301/14 758/303/14 759/288/14
f 760/307/14 761/309/14 762/306/14
f 763/317/14 764/319/14 765/313/14
f 766/319/14 767/321/14 768/313/14
f 769/321/14 770/323/14 771/306/14
f 772/326/14 773/328/14 774/30/14
f 775/29/14 776/336/14 777/30/14
f 778/336/14 779/338/14 780/30/14
f 781/338/14 782/340/14 783/30/14
f 784/269/14 785/273/14 786/281/14
f 787/281/14 788/266/14 789/269/14
f 790/309/14 791/313/14 792/306/14
f 793/321/14 794/306/14 795/313/14
f 796/328/14 797/28/14 798/30/14
f 799/31/15 800/342/15 801/32/15
f 802/34/16 803/37/16 804/35/16
f 805/37/17 806/39/17 807/38/17
f 808/39/18 809/41/18 810/40/18
f 811/41/19 812/43/19 813/42/19
f 814/43/20 815/45/20 816/44/20
f 817/45/21 818/47/21 819/46/21
f 820/47/22 821/49/22 822/48/22
f 823/49/23 824/51/23 825/50/23
f 826/51/24 827/53/24 828/52/24
f 829/53/25 830/343/25 831/54/25
f 832/55/26 833/58/26 834/56/26
f 835/58/27 836/60/27 837/59/27
f 838/60/28 839/62/28 840/61/28
f 841/62/29 842/64/29 843/63/29
f 844/64/30 845/66/30 846/65/30
f 847/66/31 848/68/31 849/67/31
f 850/68/32 851/70/32 852/69/32
f 853/70/33 854/72/33 855/71/33
f 856/72/34 857/33/34 858/32/34
f 859/27/35 860/74/35 861/73/35
f 862/74/36 863/76/36 864/75/36
f 865/76/37 866/78/37 867/77/37
f 868/78/38 869/80/38 870/79/38
f 871/80/39 872/82/39 873/81/39
f 874/82/40 875/84/40 876/83/40
f 877/84/41 878/86/41 879/85/41
f 880/86/42 881/88/42 882/87/42
f 883/88/43 884/90/43 885/89/43
f 886/90/44 887/344/44 888/91/44
f 889/92/45 890/95/45 891/93/45
f 892/95/46 893/97/46 894/96/46
f 895/97/47 896/99/47 897/98/47
f 898/99/48 899/101/48 900/100/48
f 901/101/49 902/103/49 903/102/49
f 904/103/50 905/105/50 906/104/50
f 907/105/51 908/107/51 909/106/51
f 910/107/52 911/109/52 912/108/52
f 913/109/53 914/342/53 915/31/53
f 916/110/54 917/113/54 918/111/54
f 919/113/93 920/115/93 921/114/93
f 922/115/56 923/117/56 924/116/56
f 925/117/57 926/119/57 927/118/57
f 928/119/58 929/121/58 930/120/58
f 931/121/59 932/123/59 933/122/59
f 934/123/60 935/125/60 936/124/60
f 937/125/61 938/127/61 939/126/61
f 940/127/94 941/129/94 942/128/94
f 943/129/63 944/345/63 945/130/63
f 946/131/64 947/134/64 948/132/64
f 949/134/65 950/136/65 951/135/65
f 952/136/66 953/138/66 954/137/66
f 955/138/67 956/140/67 957/139/67
f 958/140/68 959/142/68 960/141/68
f 961/142/95 962/144/95 963/143/95
f 964/144/70 965/146/70 966/145/70
f 967/146/96 968/148/96 969/147/96
f 970/148/72 971/21/72 972/20/72
f 973/149/73 974/151/73 975/150/73
f 976/151/74 977/153/74 978/152/74
f 979/153/75 980/155/75 981/154/75
f 982/155/76 983/157/76 984/156/76
f 985/157/77 986/159/77 987/158/77
f 988/159/78 989/161/78 990/160/78
f 991/161/79 992/163/79 993/162/79
f 994/163/80 995/165/80 996/164/80
f 997/165/81 998/167/81 999/166/81
f 1000/167/82 1001/346/82 1002/168/82
f 1003/169/83 1004/172/83 1005/170/83
f 1006/172/84 1007/174/84 1008/173/84
f 1009/174/85 1010/176/85 1011/175/85
f 1012/176/86 1013/178/86 1014/177/86
f 1015/178/87 1016/180/87 1017/179/87
f 1018/180/88 1019/182/88 1020/181/88
f 1021/182/89 1022/184/89 1023/183/89
f 1024/184/90 1025/186/90 1026/185/90
f 1027/186/91 1028/187/91 1029/19/91
f 1030/36/92 1031/110/92 1032/112/92
