# Blender 4.3.2
# www.blender.org
mtllib crosswalk.mtl
o beam
v -0.004433 0.013788 0.004433
v -0.004433 0.183880 -0.004433
v -0.004433 0.013788 -0.004433
v 0.025000 0.004641 0.025000
v -0.025000 -0.001120 0.025000
v 0.025000 -0.001120 0.025000
v -0.025000 0.004641 0.025000
v -0.025000 -0.001120 -0.025000
v -0.025000 -0.001120 0.025000
v 0.025000 -0.001120 -0.025000
v -0.025000 -0.001120 0.025000
v -0.025000 -0.001120 -0.025000
v 0.025000 0.004641 -0.025000
v 0.025000 -0.001120 0.025000
v 0.025000 -0.001120 -0.025000
v -0.025000 0.004641 -0.025000
v 0.025000 -0.001120 -0.025000
v -0.025000 -0.001120 -0.025000
v -0.004433 0.013788 0.004433
v 0.025000 0.004641 0.025000
v 0.004433 0.013788 0.004433
v 0.004433 0.013788 0.004433
v 0.025000 0.004641 -0.025000
v 0.004433 0.013788 -0.004433
v -0.004433 0.013788 -0.004433
v -0.025000 0.004641 0.025000
v -0.004433 0.013788 0.004433
v 0.004433 0.013788 -0.004433
v -0.025000 0.004641 -0.025000
v -0.004433 0.013788 -0.004433
v -0.004433 0.183880 -0.004433
v 0.004433 0.183880 0.004433
v 0.004433 0.183880 -0.004433
v 0.004433 0.013788 0.004433
v -0.004433 0.183880 0.004433
v -0.004433 0.013788 0.004433
v -0.004433 0.013788 -0.004433
v 0.004433 0.183880 -0.004433
v 0.004433 0.013788 -0.004433
v 0.004433 0.013788 -0.004433
v 0.004433 0.183880 0.004433
v 0.004433 0.013788 0.004433
v -0.004433 0.013788 0.004433
v -0.004433 0.183880 0.004433
v -0.004433 0.183880 -0.004433
v 0.025000 0.004641 0.025000
v -0.025000 0.004641 0.025000
v -0.025000 -0.001120 0.025000
v -0.025000 0.004641 0.025000
v -0.025000 0.004641 -0.025000
v -0.025000 -0.001120 -0.025000
v 0.025000 -0.001120 -0.025000
v 0.025000 -0.001120 0.025000
v -0.025000 -0.001120 0.025000
v 0.025000 0.004641 -0.025000
v 0.025000 0.004641 0.025000
v 0.025000 -0.001120 0.025000
v -0.025000 0.004641 -0.025000
v 0.025000 0.004641 -0.025000
v 0.025000 -0.001120 -0.025000
v -0.004433 0.013788 0.004433
v -0.025000 0.004641 0.025000
v 0.025000 0.004641 0.025000
v 0.004433 0.013788 0.004433
v 0.025000 0.004641 0.025000
v 0.025000 0.004641 -0.025000
v -0.004433 0.013788 -0.004433
v -0.025000 0.004641 -0.025000
v -0.025000 0.004641 0.025000
v 0.004433 0.013788 -0.004433
v 0.025000 0.004641 -0.025000
v -0.025000 0.004641 -0.025000
v -0.004433 0.183880 -0.004433
v -0.004433 0.183880 0.004433
v 0.004433 0.183880 0.004433
v 0.004433 0.013788 0.004433
v 0.004433 0.183880 0.004433
v -0.004433 0.183880 0.004433
v -0.004433 0.013788 -0.004433
v -0.004433 0.183880 -0.004433
v 0.004433 0.183880 -0.004433
v 0.004433 0.013788 -0.004433
v 0.004433 0.183880 -0.004433
v 0.004433 0.183880 0.004433
vn -1.0000 -0.0000 -0.0000
vn -0.0000 -0.0000 1.0000
vn -0.0000 -1.0000 -0.0000
vn 1.0000 -0.0000 -0.0000
vn -0.0000 -0.0000 -1.0000
vn -0.0000 0.9137 0.4064
vn 0.4064 0.9137 -0.0000
vn -0.4064 0.9137 -0.0000
vn -0.0000 0.9137 -0.4064
vn -0.0000 1.0000 -0.0000
vt 0.588012 0.380556
vt 0.588012 0.360034
vt 0.519886 0.428160
vt 0.404157 0.543889
vt 0.404157 0.428160
vt 0.519886 0.080973
vt 0.404157 0.196702
vt 0.404157 0.080973
vt 0.404157 0.312431
vt 0.288593 0.423299
vt 0.288428 0.312431
vt 0.519886 0.312431
vt 0.519886 0.196702
vt 0.567490 0.380556
vt 0.567490 0.360034
vt 0.635615 0.428160
vt 0.635615 0.312431
vt 0.519886 0.543889
vt 0.288728 0.423526
s 1
usemtl Material.002
f 1/1/1 2/2/1 3/2/1
f 4/3/2 5/4/2 6/5/2
f 7/6/1 8/7/1 9/8/1
f 10/9/3 11/10/3 12/11/3
f 13/12/4 14/5/4 15/9/4
f 16/13/5 17/9/5 18/7/5
f 19/1/6 20/3/6 21/14/6
f 22/14/7 23/12/7 24/15/7
f 25/2/8 26/16/8 27/1/8
f 28/15/9 29/17/9 30/2/9
f 31/2/10 32/14/10 33/15/10
f 34/14/2 35/1/2 36/1/2
f 37/2/5 38/15/5 39/15/5
f 40/15/4 41/14/4 42/14/4
f 43/1/1 44/1/1 45/2/1
f 46/3/2 47/18/2 48/4/2
f 49/6/1 50/13/1 51/7/1
f 52/9/3 53/5/3 54/19/3
f 55/12/4 56/3/4 57/5/4
f 58/13/5 59/12/5 60/9/5
f 61/1/6 62/16/6 63/3/6
f 64/14/7 65/3/7 66/12/7
f 67/2/8 68/17/8 69/16/8
f 70/15/9 71/12/9 72/17/9
f 73/2/10 74/1/10 75/14/10
f 76/14/2 77/14/2 78/1/2
f 79/2/5 80/2/5 81/15/5
f 82/15/4 83/15/4 84/14/4
o Cube
v -0.000867 0.150000 0.021029
v -0.000867 0.158971 0.030000
v -0.000867 0.150025 0.021699
v -0.000867 0.150100 0.022366
v -0.000867 0.150225 0.023025
v -0.000867 0.150399 0.023673
v -0.000867 0.150620 0.024306
v -0.000867 0.150888 0.024921
v -0.000867 0.151202 0.025514
v -0.000867 0.151559 0.026082
v -0.000867 0.151957 0.026622
v -0.000867 0.152395 0.027131
v -0.000867 0.152869 0.027605
v -0.000867 0.153378 0.028043
v -0.000867 0.153918 0.028441
v -0.000867 0.154486 0.028798
v -0.000867 0.155079 0.029112
v -0.000867 0.155694 0.029380
v -0.000867 0.156327 0.029601
v -0.000867 0.156975 0.029775
v -0.000867 0.157634 0.029900
v -0.000867 0.158301 0.029975
v -0.000867 0.201029 0.030000
v -0.000867 0.210000 0.021029
v -0.000867 0.201699 0.029975
v -0.000867 0.202366 0.029900
v -0.000867 0.203025 0.029775
v -0.000867 0.203673 0.029601
v -0.000867 0.204306 0.029380
v -0.000867 0.204921 0.029112
v -0.000867 0.205514 0.028798
v -0.000867 0.206082 0.028441
v -0.000867 0.206622 0.028043
v -0.000867 0.207131 0.027605
v -0.000867 0.207605 0.027131
v -0.000867 0.208043 0.026622
v -0.000867 0.208441 0.026082
v -0.000867 0.208798 0.025514
v -0.000867 0.209112 0.024921
v -0.000867 0.209380 0.024306
v -0.000867 0.209601 0.023673
v -0.000867 0.209775 0.023025
v -0.000867 0.209900 0.022366
v -0.000867 0.209975 0.021699
v -0.000867 0.158971 -0.030000
v -0.000867 0.150000 -0.021029
v -0.000867 0.158301 -0.029975
v -0.000867 0.157634 -0.029900
v -0.000867 0.156975 -0.029775
v -0.000867 0.156327 -0.029601
v -0.000867 0.155694 -0.029380
v -0.000867 0.155079 -0.029112
v -0.000867 0.154486 -0.028798
v -0.000867 0.153918 -0.028441
v -0.000867 0.153378 -0.028043
v -0.000867 0.152869 -0.027605
v -0.000867 0.152395 -0.027131
v -0.000867 0.151957 -0.026622
v -0.000867 0.151559 -0.026082
v -0.000867 0.151202 -0.025514
v -0.000867 0.150888 -0.024921
v -0.000867 0.150620 -0.024306
v -0.000867 0.150399 -0.023673
v -0.000867 0.150225 -0.023025
v -0.000867 0.150100 -0.022366
v -0.000867 0.150025 -0.021699
v -0.000867 0.210000 -0.021029
v -0.000867 0.201029 -0.030000
v -0.000867 0.209975 -0.021699
v -0.000867 0.209900 -0.022366
v -0.000867 0.209775 -0.023025
v -0.000867 0.209601 -0.023673
v -0.000867 0.209380 -0.024306
v -0.000867 0.209112 -0.024921
v -0.000867 0.208798 -0.025514
v -0.000867 0.208441 -0.026082
v -0.000867 0.208043 -0.026622
v -0.000867 0.207605 -0.027131
v -0.000867 0.207131 -0.027605
v -0.000867 0.206622 -0.028043
v -0.000867 0.206082 -0.028441
v -0.000867 0.205514 -0.028798
v -0.000867 0.204921 -0.029112
v -0.000867 0.204306 -0.029380
v -0.000867 0.203673 -0.029601
v -0.000867 0.203025 -0.029775
v -0.000867 0.202366 -0.029900
v -0.000867 0.201699 -0.029975
v 0.005133 0.158971 0.030000
v 0.005133 0.150000 0.021029
v 0.005133 0.158301 0.029975
v 0.005133 0.157634 0.029900
v 0.005133 0.156975 0.029775
v 0.005133 0.156327 0.029601
v 0.005133 0.155694 0.029380
v 0.005133 0.155079 0.029112
v 0.005133 0.154486 0.028798
v 0.005133 0.153918 0.028441
v 0.005133 0.153378 0.028043
v 0.005133 0.152869 0.027605
v 0.005133 0.152395 0.027131
v 0.005133 0.151957 0.026622
v 0.005133 0.151559 0.026082
v 0.005133 0.151202 0.025514
v 0.005133 0.150888 0.024921
v 0.005133 0.150620 0.024306
v 0.005133 0.150399 0.023673
v 0.005133 0.150225 0.023025
v 0.005133 0.150100 0.022366
v 0.005133 0.150025 0.021699
v 0.005133 0.210000 0.021029
v 0.005133 0.201029 0.030000
v 0.005133 0.209975 0.021699
v 0.005133 0.209900 0.022366
v 0.005133 0.209775 0.023025
v 0.005133 0.209601 0.023673
v 0.005133 0.209380 0.024306
v 0.005133 0.209112 0.024921
v 0.005133 0.208798 0.025514
v 0.005133 0.208441 0.026082
v 0.005133 0.208043 0.026622
v 0.005133 0.207605 0.027131
v 0.005133 0.207131 0.027605
v 0.005133 0.206622 0.028043
v 0.005133 0.206082 0.028441
v 0.005133 0.205514 0.028798
v 0.005133 0.204921 0.029112
v 0.005133 0.204306 0.029380
v 0.005133 0.203673 0.029601
v 0.005133 0.203025 0.029775
v 0.005133 0.202366 0.029900
v 0.005133 0.201699 0.029975
v 0.005133 0.150000 -0.021029
v 0.005133 0.158971 -0.030000
v 0.005133 0.150025 -0.021699
v 0.005133 0.150100 -0.022366
v 0.005133 0.150225 -0.023025
v 0.005133 0.150399 -0.023673
v 0.005133 0.150620 -0.024306
v 0.005133 0.150888 -0.024921
v 0.005133 0.151202 -0.025514
v 0.005133 0.151559 -0.026082
v 0.005133 0.151957 -0.026622
v 0.005133 0.152395 -0.027131
v 0.005133 0.152869 -0.027605
v 0.005133 0.153378 -0.028043
v 0.005133 0.153918 -0.028441
v 0.005133 0.154486 -0.028798
v 0.005133 0.155079 -0.029112
v 0.005133 0.155694 -0.029380
v 0.005133 0.156327 -0.029601
v 0.005133 0.156975 -0.029775
v 0.005133 0.157634 -0.029900
v 0.005133 0.158301 -0.029975
v 0.005133 0.201029 -0.030000
v 0.005133 0.210000 -0.021029
v 0.005133 0.201699 -0.029975
v 0.005133 0.202366 -0.029900
v 0.005133 0.203025 -0.029775
v 0.005133 0.203673 -0.029601
v 0.005133 0.204306 -0.029380
v 0.005133 0.204921 -0.029112
v 0.005133 0.205514 -0.028798
v 0.005133 0.206082 -0.028441
v 0.005133 0.206622 -0.028043
v 0.005133 0.207131 -0.027605
v 0.005133 0.207605 -0.027131
v 0.005133 0.208043 -0.026622
v 0.005133 0.208441 -0.026082
v 0.005133 0.208798 -0.025514
v 0.005133 0.209112 -0.024921
v 0.005133 0.209380 -0.024306
v 0.005133 0.209601 -0.023673
v 0.005133 0.209775 -0.023025
v 0.005133 0.209900 -0.022366
v 0.005133 0.209975 -0.021699
vn -0.0000 -0.0000 1.0000
vn 1.0000 -0.0000 -0.0000
vn -0.0000 1.0000 -0.0000
vn -1.0000 -0.0000 -0.0000
vn -0.0000 -0.0000 -1.0000
vn -0.0000 -0.9993 -0.0373
vn -0.0000 -0.9993 -0.0372
vn -0.0000 -0.9993 -0.0376
vn -0.0000 -0.9937 -0.1117
vn -0.0000 -0.9937 -0.1118
vn -0.0000 -0.9825 -0.1860
vn -0.0000 -0.9826 -0.1858
vn -0.0000 -0.9826 -0.1859
vn -0.0000 -0.9659 -0.2590
vn -0.0000 -0.9659 -0.2589
vn -0.0000 -0.9658 -0.2594
vn -0.0000 -0.9439 -0.3302
vn -0.0000 -0.9439 -0.3304
vn -0.0000 -0.9166 -0.3999
vn -0.0000 -0.9165 -0.4000
vn -0.0000 -0.9166 -0.3998
vn -0.0000 -0.8841 -0.4673
vn -0.0000 -0.8841 -0.4672
vn -0.0000 -0.8841 -0.4674
vn -0.0000 -0.8468 -0.5318
vn -0.0000 -0.8467 -0.5321
vn -0.0000 -0.8047 -0.5937
vn -0.0000 -0.8046 -0.5938
vn -0.0000 -0.7580 -0.6523
vn -0.0000 -0.7580 -0.6522
vn -0.0000 -0.7071 -0.7071
vn -0.0000 -0.6523 -0.7580
vn -0.0000 -0.5937 -0.8047
vn -0.0000 -0.5938 -0.8046
vn -0.0000 -0.5321 -0.8467
vn -0.0000 -0.4674 -0.8841
vn -0.0000 -0.4673 -0.8841
vn -0.0000 -0.3999 -0.9165
vn -0.0000 -0.3998 -0.9166
vn -0.0000 -0.3302 -0.9439
vn -0.0000 -0.3303 -0.9439
vn -0.0000 -0.3304 -0.9439
vn -0.0000 -0.2590 -0.9659
vn -0.0000 -0.2589 -0.9659
vn -0.0000 -0.1859 -0.9826
vn -0.0000 -0.1117 -0.9937
vn -0.0000 -0.0376 -0.9993
vn -0.0000 -0.0373 -0.9993
vn -0.0000 0.9993 -0.0373
vn -0.0000 0.9993 -0.0378
vn -0.0000 0.9937 -0.1118
vn -0.0000 0.9937 -0.1117
vn -0.0000 0.9826 -0.1859
vn -0.0000 0.9659 -0.2589
vn -0.0000 0.9659 -0.2587
vn -0.0000 0.9659 -0.2590
vn -0.0000 0.9439 -0.3301
vn -0.0000 0.9439 -0.3302
vn -0.0000 0.9166 -0.3999
vn -0.0000 0.9166 -0.3998
vn -0.0000 0.8841 -0.4674
vn -0.0000 0.8841 -0.4673
vn -0.0000 0.8467 -0.5321
vn -0.0000 0.8047 -0.5937
vn -0.0000 0.8048 -0.5936
vn -0.0000 0.8046 -0.5938
vn -0.0000 0.7580 -0.6522
vn -0.0000 0.7580 -0.6523
vn -0.0000 0.7071 -0.7071
vn -0.0000 0.6523 -0.7580
vn -0.0000 0.5938 -0.8046
vn -0.0000 0.5319 -0.8468
vn -0.0000 0.5318 -0.8468
vn -0.0000 0.5317 -0.8469
vn -0.0000 0.4674 -0.8841
vn -0.0000 0.4673 -0.8841
vn -0.0000 0.3999 -0.9166
vn -0.0000 0.4001 -0.9165
vn -0.0000 0.3303 -0.9439
vn -0.0000 0.2589 -0.9659
vn -0.0000 0.2590 -0.9659
vn -0.0000 0.1859 -0.9826
vn -0.0000 0.1858 -0.9826
vn -0.0000 0.1117 -0.9937
vn -0.0000 0.0373 -0.9993
vn -0.0000 -0.9993 0.0373
vn -0.0000 -0.9993 0.0372
vn -0.0000 -0.9993 0.0376
vn -0.0000 -0.9937 0.1117
vn -0.0000 -0.9937 0.1118
vn -0.0000 -0.9825 0.1860
vn -0.0000 -0.9826 0.1858
vn -0.0000 -0.9826 0.1859
vn -0.0000 -0.9659 0.2590
vn -0.0000 -0.9659 0.2589
vn -0.0000 -0.9658 0.2594
vn -0.0000 -0.9439 0.3302
vn -0.0000 -0.9439 0.3303
vn -0.0000 -0.9166 0.3999
vn -0.0000 -0.9165 0.4000
vn -0.0000 -0.8841 0.4674
vn -0.0000 -0.8841 0.4673
vn -0.0000 -0.8468 0.5318
vn -0.0000 -0.8467 0.5321
vn -0.0000 -0.8047 0.5937
vn -0.0000 -0.8046 0.5938
vn -0.0000 -0.7580 0.6523
vn -0.0000 -0.7580 0.6522
vn -0.0000 -0.7071 0.7071
vn -0.0000 -0.6523 0.7580
vn -0.0000 -0.5937 0.8047
vn -0.0000 -0.5938 0.8046
vn -0.0000 -0.5321 0.8467
vn -0.0000 -0.4674 0.8841
vn -0.0000 -0.4673 0.8841
vn -0.0000 -0.3999 0.9165
vn -0.0000 -0.3998 0.9166
vn -0.0000 -0.3302 0.9439
vn -0.0000 -0.3303 0.9439
vn -0.0000 -0.3304 0.9439
vn -0.0000 -0.2590 0.9659
vn -0.0000 -0.2589 0.9659
vn -0.0000 -0.1859 0.9826
vn -0.0000 -0.1117 0.9937
vn -0.0000 -0.0376 0.9993
vn -0.0000 -0.0373 0.9993
vn -0.0000 0.9993 0.0373
vn -0.0000 0.9993 0.0378
vn -0.0000 0.9937 0.1118
vn -0.0000 0.9937 0.1117
vn -0.0000 0.9826 0.1859
vn -0.0000 0.9659 0.2589
vn -0.0000 0.9659 0.2587
vn -0.0000 0.9659 0.2590
vn -0.0000 0.9439 0.3301
vn -0.0000 0.9439 0.3302
vn -0.0000 0.9166 0.3999
vn -0.0000 0.8841 0.4673
vn -0.0000 0.8841 0.4674
vn -0.0000 0.8468 0.5319
vn -0.0000 0.8467 0.5321
vn -0.0000 0.8048 0.5936
vn -0.0000 0.8047 0.5937
vn -0.0000 0.7580 0.6522
vn -0.0000 0.7580 0.6523
vn -0.0000 0.7071 0.7071
vn -0.0000 0.6523 0.7580
vn -0.0000 0.5938 0.8046
vn -0.0000 0.5319 0.8468
vn -0.0000 0.5318 0.8468
vn -0.0000 0.5317 0.8469
vn -0.0000 0.4674 0.8841
vn -0.0000 0.4673 0.8841
vn -0.0000 0.3999 0.9166
vn -0.0000 0.4001 0.9165
vn -0.0000 0.3303 0.9439
vn -0.0000 0.3304 0.9439
vn -0.0000 0.2589 0.9659
vn -0.0000 0.2590 0.9659
vn -0.0000 0.1859 0.9826
vn -0.0000 0.1858 0.9826
vn -0.0000 0.1117 0.9937
vn -0.0000 0.0373 0.9993
vn -0.0000 -1.0000 -0.0000
vn -0.0000 -0.9659 -0.2588
vn -0.0000 -0.8842 -0.4672
vn -0.0000 -0.5319 -0.8468
vn -0.0000 -0.4001 -0.9165
vn -0.0000 -0.1858 -0.9826
vn -0.0000 0.9439 -0.3303
vn -0.0000 0.5937 -0.8047
vn -0.0000 0.5321 -0.8467
vn -0.0000 -0.9659 0.2588
vn -0.0000 -0.9440 0.3300
vn -0.0000 -0.9166 0.3998
vn -0.0000 -0.5319 0.8468
vn -0.0000 -0.4001 0.9165
vn -0.0000 -0.1858 0.9826
vn -0.0000 0.9166 0.3998
vn -0.0000 0.8046 0.5938
vn -0.0000 0.5937 0.8047
vn -0.0000 0.5321 0.8467
vt 0.923490 0.803318
vt 0.071588 0.213283
vt 0.923490 0.213283
vt 0.071945 0.203876
vt 0.127210 0.109293
vt 0.198964 0.087424
vt 0.071588 0.800990
vt 0.923490 0.210953
vt 0.923490 0.800990
vt 0.923134 0.203876
vt 0.867869 0.109293
vt 0.796115 0.087424
vt 0.071588 0.803318
vt 0.923490 0.810395
vt 0.071588 0.810395
vt 0.923490 0.819747
vt 0.071588 0.819747
vt 0.923490 0.828995
vt 0.071588 0.828995
vt 0.923490 0.838086
vt 0.071588 0.838086
vt 0.923490 0.846971
vt 0.071588 0.846971
vt 0.923490 0.855597
vt 0.071588 0.855597
vt 0.923490 0.863918
vt 0.071588 0.863918
vt 0.923490 0.871889
vt 0.071588 0.871889
vt 0.923490 0.879461
vt 0.071588 0.879461
vt 0.923490 0.886596
vt 0.071588 0.886596
vt 0.923490 0.893250
vt 0.071588 0.127678
vt 0.923490 0.134812
vt 0.923490 0.127678
vt 0.071588 0.134812
vt 0.923490 0.142384
vt 0.071588 0.142384
vt 0.923490 0.150352
vt 0.071588 0.150352
vt 0.923490 0.158673
vt 0.071588 0.158673
vt 0.923490 0.167300
vt 0.071588 0.167300
vt 0.923490 0.176184
vt 0.071588 0.176184
vt 0.923490 0.185276
vt 0.071588 0.185276
vt 0.923490 0.194524
vt 0.071588 0.194524
vt 0.923490 0.203876
vt 0.071588 0.203876
vt 0.071588 0.893250
vt 0.923490 0.888924
vt 0.071588 0.881789
vt 0.071588 0.888924
vt 0.923490 0.881789
vt 0.071588 0.874217
vt 0.923490 0.874217
vt 0.071588 0.866249
vt 0.923490 0.866249
vt 0.071588 0.857925
vt 0.923490 0.857925
vt 0.071588 0.849299
vt 0.923490 0.849299
vt 0.071588 0.840417
vt 0.923490 0.840417
vt 0.071588 0.831325
vt 0.923490 0.831325
vt 0.071588 0.822078
vt 0.923490 0.822078
vt 0.071588 0.812723
vt 0.923490 0.812723
vt 0.071588 0.201548
vt 0.071588 0.210953
vt 0.923490 0.201548
vt 0.071588 0.192195
vt 0.923490 0.192195
vt 0.071588 0.182945
vt 0.923490 0.182945
vt 0.071588 0.173856
vt 0.923490 0.173856
vt 0.071588 0.164972
vt 0.923490 0.164972
vt 0.071588 0.156345
vt 0.923490 0.156345
vt 0.071588 0.148024
vt 0.923490 0.148024
vt 0.071588 0.140054
vt 0.923490 0.140054
vt 0.071588 0.132481
vt 0.923490 0.132481
vt 0.071588 0.125347
vt 0.923490 0.125347
vt 0.071588 0.118693
vt 0.923490 0.118693
vt 0.805632 0.087774
vt 0.815099 0.088828
vt 0.824460 0.090578
vt 0.833659 0.093014
vt 0.859803 0.104286
vt 0.842649 0.096123
vt 0.851380 0.099888
vt 0.875533 0.114883
vt 0.882751 0.121021
vt 0.889486 0.127678
vt 0.895700 0.134812
vt 0.901355 0.142384
vt 0.906426 0.150352
vt 0.910877 0.158673
vt 0.914684 0.167300
vt 0.917831 0.176184
vt 0.920295 0.185276
vt 0.922067 0.194524
vt 0.923134 0.812723
vt 0.796115 0.929177
vt 0.922067 0.822078
vt 0.920295 0.831325
vt 0.917831 0.840417
vt 0.914684 0.849299
vt 0.910877 0.857925
vt 0.906426 0.866249
vt 0.901355 0.874217
vt 0.895700 0.881789
vt 0.889486 0.888924
vt 0.882751 0.895580
vt 0.875533 0.901719
vt 0.867869 0.907308
vt 0.859803 0.912315
vt 0.833659 0.923585
vt 0.851380 0.916713
vt 0.842649 0.920476
vt 0.824460 0.926021
vt 0.815099 0.927770
vt 0.805632 0.928824
vt 0.198964 0.929177
vt 0.189443 0.928824
vt 0.073012 0.822078
vt 0.179980 0.927770
vt 0.170619 0.926021
vt 0.161420 0.923585
vt 0.135276 0.912315
vt 0.152425 0.920476
vt 0.143699 0.916713
vt 0.127210 0.907308
vt 0.119546 0.901719
vt 0.112324 0.895580
vt 0.105588 0.888924
vt 0.099375 0.881789
vt 0.093719 0.874217
vt 0.088653 0.866249
vt 0.084203 0.857925
vt 0.080391 0.849299
vt 0.077248 0.840417
vt 0.074780 0.831325
vt 0.071945 0.812723
vt 0.073012 0.194524
vt 0.074780 0.185276
vt 0.077248 0.176184
vt 0.080391 0.167300
vt 0.084203 0.158673
vt 0.088653 0.150352
vt 0.093719 0.142384
vt 0.099375 0.134812
vt 0.105588 0.127678
vt 0.112324 0.121021
vt 0.119546 0.114883
vt 0.135276 0.104286
vt 0.161420 0.093014
vt 0.143699 0.099888
vt 0.152425 0.096123
vt 0.170619 0.090578
vt 0.179980 0.088828
vt 0.189443 0.087774
s 1
usemtl Material.001
f 196/20/11 86/21/11 173/22/11
f 175/23/12 187/24/12 174/25/12
f 151/26/13 195/27/13 240/28/13
f 131/29/14 143/30/14 130/31/14
f 152/32/15 218/22/15 129/21/15
f 130/26/16 219/33/17 217/28/18
f 150/34/19 220/35/20 219/33/20
f 149/36/21 221/37/22 220/35/23
f 148/38/24 222/39/25 221/37/26
f 147/40/27 223/41/28 222/39/27
f 146/42/29 224/43/30 223/41/31
f 145/44/32 225/45/33 224/43/34
f 144/46/35 226/47/36 225/45/36
f 143/48/37 227/49/38 226/47/37
f 142/50/39 228/51/40 227/49/40
f 141/52/41 229/53/41 228/51/41
f 140/54/42 230/55/42 229/56/42
f 139/57/43 231/58/43 230/55/44
f 138/59/45 232/60/45 231/58/45
f 137/61/46 233/62/46 232/60/47
f 136/63/48 234/64/48 233/62/49
f 135/65/50 235/66/51 234/64/52
f 134/67/53 236/68/54 235/66/54
f 133/69/55 237/70/55 236/68/55
f 132/71/56 238/72/56 237/70/56
f 131/73/57 218/22/58 238/72/58
f 240/28/59 153/34/59 151/26/60
f 260/33/61 154/36/62 153/34/62
f 259/35/63 155/38/63 154/36/63
f 258/37/64 156/40/65 155/38/66
f 257/39/67 157/42/68 156/40/68
f 256/41/69 158/44/69 157/42/70
f 255/43/71 159/46/72 158/44/71
f 254/45/73 160/48/73 159/46/73
f 253/47/74 161/50/75 160/48/76
f 252/49/77 162/52/78 161/50/78
f 251/51/79 163/74/79 162/52/79
f 250/75/80 164/76/80 163/77/80
f 249/78/81 165/79/81 164/76/81
f 248/80/82 166/81/83 165/79/84
f 247/82/85 167/83/85 166/81/86
f 246/84/87 168/85/88 167/83/88
f 245/86/89 169/87/89 168/85/89
f 244/88/90 170/89/91 169/87/91
f 243/90/92 171/91/92 170/89/93
f 242/92/94 172/93/94 171/91/94
f 241/94/95 152/32/95 172/93/95
f 174/27/96 87/95/97 85/96/98
f 194/97/99 88/98/100 87/95/100
f 193/99/101 89/100/102 88/98/103
f 192/101/104 90/102/105 89/100/106
f 191/103/107 91/104/107 90/102/108
f 190/105/109 92/106/110 91/104/110
f 189/107/111 93/108/112 92/106/111
f 188/109/113 94/110/114 93/108/114
f 187/111/115 95/112/116 94/110/116
f 186/113/117 96/114/118 95/112/118
f 185/115/119 97/116/119 96/114/119
f 184/56/120 98/57/120 97/54/120
f 183/55/121 99/59/121 98/57/122
f 182/58/123 100/61/123 99/59/123
f 181/60/124 101/63/124 100/61/125
f 180/62/126 102/65/126 101/63/127
f 179/64/128 103/67/129 102/65/130
f 178/66/131 104/69/132 103/67/131
f 177/68/133 105/71/133 104/69/133
f 176/70/134 106/73/134 105/71/134
f 175/72/135 86/21/136 106/73/136
f 108/96/137 197/97/137 195/27/138
f 128/95/139 198/99/140 197/97/140
f 127/98/141 199/101/141 198/99/141
f 126/100/142 200/103/143 199/101/144
f 125/102/145 201/105/146 200/103/146
f 124/104/147 202/107/147 201/105/147
f 123/106/148 203/109/149 202/107/149
f 122/108/150 204/111/151 203/109/151
f 121/110/152 205/113/153 204/111/153
f 120/112/154 206/115/155 205/113/155
f 119/114/156 207/117/156 206/115/156
f 118/77/157 208/78/157 207/75/157
f 117/76/158 209/80/158 208/78/158
f 116/79/159 210/82/160 209/80/161
f 115/81/162 211/84/162 210/82/163
f 114/83/164 212/86/165 211/84/165
f 113/85/166 213/88/166 212/86/167
f 112/87/168 214/90/169 213/88/169
f 111/89/170 215/92/170 214/90/171
f 110/91/172 216/94/172 215/92/172
f 109/93/173 196/20/173 216/94/173
f 217/28/174 85/96/174 130/26/174
f 196/20/11 107/32/11 86/21/11
f 174/25/12 217/31/12 218/22/12
f 217/31/12 219/118/12 218/22/12
f 219/118/12 220/119/12 221/120/12
f 221/120/12 222/121/12 225/122/12
f 222/121/12 223/123/12 225/122/12
f 223/123/12 224/124/12 225/122/12
f 225/122/12 226/30/12 227/125/12
f 227/125/12 228/126/12 229/127/12
f 229/127/12 230/128/12 231/129/12
f 231/129/12 232/130/12 233/131/12
f 233/131/12 234/132/12 235/133/12
f 235/133/12 236/134/12 233/131/12
f 236/134/12 237/135/12 233/131/12
f 237/135/12 238/29/12 218/22/12
f 218/22/12 239/20/12 174/25/12
f 239/20/12 241/136/12 240/137/12
f 174/25/12 239/20/12 240/137/12
f 241/136/12 242/138/12 243/139/12
f 243/139/12 244/140/12 245/141/12
f 245/141/12 246/142/12 247/143/12
f 247/143/12 248/144/12 249/145/12
f 249/145/12 250/146/12 251/147/12
f 251/147/12 252/148/12 249/145/12
f 252/148/12 253/149/12 249/145/12
f 253/149/12 254/150/12 257/151/12
f 254/150/12 255/152/12 257/151/12
f 255/152/12 256/153/12 257/151/12
f 257/151/12 258/154/12 240/137/12
f 258/154/12 259/155/12 240/137/12
f 259/155/12 260/156/12 240/137/12
f 240/137/12 195/157/12 174/25/12
f 195/157/12 197/158/12 215/159/12
f 174/25/12 195/157/12 196/32/12
f 197/158/12 198/160/12 199/161/12
f 199/161/12 200/162/12 203/163/12
f 200/162/12 201/164/12 203/163/12
f 201/164/12 202/165/12 203/163/12
f 203/163/12 204/166/12 205/167/12
f 205/167/12 206/168/12 207/169/12
f 207/169/12 208/170/12 209/171/12
f 209/171/12 210/172/12 211/173/12
f 211/173/12 212/174/12 213/175/12
f 213/175/12 214/176/12 211/173/12
f 214/176/12 215/159/12 211/173/12
f 215/159/12 216/177/12 196/32/12
f 196/32/12 173/21/12 174/25/12
f 173/21/12 175/23/12 174/25/12
f 175/23/12 176/178/12 177/179/12
f 177/179/12 178/180/12 179/181/12
f 179/181/12 180/182/12 181/183/12
f 181/183/12 182/184/12 183/185/12
f 183/185/12 184/186/12 185/187/12
f 185/187/12 186/188/12 183/185/12
f 186/188/12 187/24/12 183/185/12
f 187/24/12 188/189/12 191/190/12
f 188/189/12 189/191/12 191/190/12
f 189/191/12 190/192/12 191/190/12
f 191/190/12 192/193/12 174/25/12
f 192/193/12 193/194/12 174/25/12
f 193/194/12 194/195/12 174/25/12
f 219/118/12 221/120/12 237/135/12
f 225/122/12 227/125/12 229/127/12
f 229/127/12 231/129/12 225/122/12
f 231/129/12 233/131/12 225/122/12
f 237/135/12 218/22/12 219/118/12
f 241/136/12 243/139/12 249/145/12
f 243/139/12 245/141/12 249/145/12
f 245/141/12 247/143/12 249/145/12
f 197/158/12 199/161/12 215/159/12
f 195/157/12 215/159/12 196/32/12
f 203/163/12 205/167/12 207/169/12
f 207/169/12 209/171/12 215/159/12
f 209/171/12 211/173/12 215/159/12
f 175/23/12 177/179/12 179/181/12
f 179/181/12 181/183/12 187/24/12
f 181/183/12 183/185/12 187/24/12
f 221/120/12 225/122/12 233/131/12
f 233/131/12 237/135/12 221/120/12
f 249/145/12 253/149/12 257/151/12
f 257/151/12 240/137/12 241/136/12
f 199/161/12 203/163/12 215/159/12
f 203/163/12 207/169/12 215/159/12
f 175/23/12 179/181/12 187/24/12
f 187/24/12 191/190/12 174/25/12
f 241/136/12 249/145/12 257/151/12
f 151/26/13 108/96/13 195/27/13
f 130/31/14 85/25/14 86/21/14
f 85/25/14 87/195/14 86/21/14
f 87/195/14 88/194/14 89/193/14
f 89/193/14 90/190/14 93/189/14
f 90/190/14 91/192/14 93/189/14
f 91/192/14 92/191/14 93/189/14
f 93/189/14 94/24/14 95/188/14
f 95/188/14 96/187/14 97/186/14
f 97/186/14 98/185/14 99/184/14
f 99/184/14 100/183/14 101/182/14
f 101/182/14 102/181/14 103/180/14
f 103/180/14 104/179/14 101/182/14
f 104/179/14 105/178/14 101/182/14
f 105/178/14 106/23/14 86/21/14
f 86/21/14 107/32/14 130/31/14
f 107/32/14 109/177/14 108/157/14
f 130/31/14 107/32/14 108/157/14
f 109/177/14 110/159/14 111/176/14
f 111/176/14 112/175/14 113/174/14
f 113/174/14 114/173/14 115/172/14
f 115/172/14 116/171/14 117/170/14
f 117/170/14 118/169/14 119/168/14
f 119/168/14 120/167/14 117/170/14
f 120/167/14 121/166/14 117/170/14
f 121/166/14 122/163/14 125/162/14
f 122/163/14 123/165/14 125/162/14
f 123/165/14 124/164/14 125/162/14
f 125/162/14 126/161/14 108/157/14
f 126/161/14 127/160/14 108/157/14
f 127/160/14 128/158/14 108/157/14
f 108/157/14 151/137/14 130/31/14
f 151/137/14 153/156/14 171/138/14
f 130/31/14 151/137/14 152/20/14
f 153/156/14 154/155/14 155/154/14
f 155/154/14 156/151/14 159/150/14
f 156/151/14 157/153/14 159/150/14
f 157/153/14 158/152/14 159/150/14
f 159/150/14 160/149/14 161/148/14
f 161/148/14 162/147/14 163/146/14
f 163/146/14 164/145/14 165/144/14
f 165/144/14 166/143/14 167/142/14
f 167/142/14 168/141/14 169/140/14
f 169/140/14 170/139/14 167/142/14
f 170/139/14 171/138/14 167/142/14
f 171/138/14 172/136/14 152/20/14
f 152/20/14 129/22/14 130/31/14
f 129/22/14 131/29/14 130/31/14
f 131/29/14 132/135/14 133/134/14
f 133/134/14 134/133/14 135/132/14
f 135/132/14 136/131/14 137/130/14
f 137/130/14 138/129/14 139/128/14
f 139/128/14 140/127/14 141/126/14
f 141/126/14 142/125/14 139/128/14
f 142/125/14 143/30/14 139/128/14
f 143/30/14 144/122/14 147/121/14
f 144/122/14 145/124/14 147/121/14
f 145/124/14 146/123/14 147/121/14
f 147/121/14 148/120/14 130/31/14
f 148/120/14 149/119/14 130/31/14
f 149/119/14 150/118/14 130/31/14
f 87/195/14 89/193/14 105/178/14
f 93/189/14 95/188/14 97/186/14
f 97/186/14 99/184/14 93/189/14
f 99/184/14 101/182/14 93/189/14
f 105/178/14 86/21/14 87/195/14
f 109/177/14 111/176/14 117/170/14
f 111/176/14 113/174/14 117/170/14
f 113/174/14 115/172/14 117/170/14
f 153/156/14 155/154/14 171/138/14
f 151/137/14 171/138/14 152/20/14
f 159/150/14 161/148/14 163/146/14
f 163/146/14 165/144/14 171/138/14
f 165/144/14 167/142/14 171/138/14
f 131/29/14 133/134/14 135/132/14
f 135/132/14 137/130/14 143/30/14
f 137/130/14 139/128/14 143/30/14
f 89/193/14 93/189/14 101/182/14
f 101/182/14 105/178/14 89/193/14
f 117/170/14 121/166/14 125/162/14
f 125/162/14 108/157/14 109/177/14
f 155/154/14 159/150/14 171/138/14
f 159/150/14 163/146/14 171/138/14
f 131/29/14 135/132/14 143/30/14
f 143/30/14 147/121/14 130/31/14
f 109/177/14 117/170/14 125/162/14
f 152/32/15 239/20/15 218/22/15
f 130/26/16 150/34/16 219/33/17
f 150/34/19 149/36/19 220/35/20
f 149/36/21 148/38/22 221/37/22
f 148/38/24 147/40/175 222/39/25
f 147/40/27 146/42/27 223/41/28
f 146/42/29 145/44/29 224/43/30
f 145/44/32 144/46/176 225/45/33
f 144/46/35 143/48/36 226/47/36
f 143/48/37 142/50/38 227/49/38
f 142/50/39 141/52/39 228/51/40
f 141/52/41 140/74/41 229/53/41
f 140/54/42 139/57/42 230/55/42
f 139/57/43 138/59/44 231/58/43
f 138/59/45 137/61/177 232/60/45
f 137/61/46 136/63/47 233/62/46
f 136/63/48 135/65/178 234/64/48
f 135/65/50 134/67/50 235/66/51
f 134/67/53 133/69/53 236/68/54
f 133/69/55 132/71/179 237/70/55
f 132/71/56 131/73/56 238/72/56
f 131/73/57 129/21/58 218/22/58
f 240/28/59 260/33/60 153/34/59
f 260/33/61 259/35/61 154/36/62
f 259/35/63 258/37/63 155/38/63
f 258/37/64 257/39/64 156/40/65
f 257/39/67 256/41/180 157/42/68
f 256/41/69 255/43/69 158/44/69
f 255/43/71 254/45/71 159/46/72
f 254/45/73 253/47/73 160/48/73
f 253/47/74 252/49/74 161/50/75
f 252/49/77 251/51/77 162/52/78
f 251/51/79 250/53/79 163/74/79
f 250/75/80 249/78/80 164/76/80
f 249/78/81 248/80/181 165/79/81
f 248/80/82 247/82/182 166/81/83
f 247/82/85 246/84/86 167/83/85
f 246/84/87 245/86/87 168/85/88
f 245/86/89 244/88/89 169/87/89
f 244/88/90 243/90/90 170/89/91
f 243/90/92 242/92/92 171/91/92
f 242/92/94 241/94/94 172/93/94
f 241/94/95 239/20/95 152/32/95
f 174/27/96 194/97/96 87/95/97
f 194/97/99 193/99/99 88/98/100
f 193/99/101 192/101/102 89/100/102
f 192/101/104 191/103/183 90/102/105
f 191/103/107 190/105/184 91/104/107
f 190/105/109 189/107/185 92/106/110
f 189/107/111 188/109/112 93/108/112
f 188/109/113 187/111/114 94/110/114
f 187/111/115 186/113/115 95/112/116
f 186/113/117 185/115/117 96/114/118
f 185/115/119 184/117/119 97/116/119
f 184/56/120 183/55/120 98/57/120
f 183/55/121 182/58/122 99/59/121
f 182/58/123 181/60/186 100/61/123
f 181/60/124 180/62/125 101/63/124
f 180/62/126 179/64/187 102/65/126
f 179/64/128 178/66/128 103/67/129
f 178/66/131 177/68/131 104/69/132
f 177/68/133 176/70/188 105/71/133
f 176/70/134 175/72/134 106/73/134
f 175/72/135 173/22/136 86/21/136
f 108/96/137 128/95/138 197/97/137
f 128/95/139 127/98/139 198/99/140
f 127/98/141 126/100/141 199/101/141
f 126/100/142 125/102/142 200/103/143
f 125/102/145 124/104/146 201/105/146
f 124/104/147 123/106/189 202/107/147
f 123/106/148 122/108/149 203/109/149
f 122/108/150 121/110/151 204/111/151
f 121/110/152 120/112/190 205/113/153
f 120/112/154 119/114/154 206/115/155
f 119/114/156 118/116/156 207/117/156
f 118/77/157 117/76/157 208/78/157
f 117/76/158 116/79/191 209/80/158
f 116/79/159 115/81/192 210/82/160
f 115/81/162 114/83/163 211/84/162
f 114/83/164 113/85/164 212/86/165
f 113/85/166 112/87/167 213/88/166
f 112/87/168 111/89/168 214/90/169
f 111/89/170 110/91/170 215/92/170
f 110/91/172 109/93/172 216/94/172
f 109/93/173 107/32/173 196/20/173
f 217/28/174 174/27/174 85/96/174
