# Blender 4.3.2
# www.blender.org
mtllib void.mtl
o Cylinder
v -0.100000 1.000000 1.032748
v 0.100000 1.000000 1.032748
v -0.100000 0.980785 0.837657
v 0.100000 0.980785 0.837657
v -0.100000 0.923880 0.650064
v 0.100000 0.923880 0.650064
v -0.100000 0.831470 0.477177
v 0.100000 0.831470 0.477177
v -0.100000 0.707107 0.325641
v 0.100000 0.707107 0.325641
v -0.100000 0.555570 0.201278
v 0.100000 0.555570 0.201278
v -0.100000 0.382683 0.108868
v 0.100000 0.382683 0.108868
v -0.100000 0.195090 0.051962
v 0.100000 0.195090 0.051962
v -0.100000 0.000000 0.032748
v 0.100000 0.000000 0.032748
v -0.100000 -0.195090 0.051962
v 0.100000 -0.195090 0.051962
v -0.100000 -0.382683 0.108868
v 0.100000 -0.382683 0.108868
v -0.100000 -0.555570 0.201278
v 0.100000 -0.555570 0.201278
v -0.100000 -0.707107 0.325641
v 0.100000 -0.707107 0.325641
v -0.100000 -0.831470 0.477177
v 0.100000 -0.831470 0.477177
v -0.100000 -0.923880 0.650064
v 0.100000 -0.923880 0.650064
v -0.100000 -0.980785 0.837657
v 0.100000 -0.980785 0.837657
v -0.100000 -1.000000 1.032748
v 0.100000 -1.000000 1.032748
v -0.100000 -0.980785 1.227838
v 0.100000 -0.980785 1.227838
v -0.100000 -0.923880 1.415431
v 0.100000 -0.923880 1.415431
v -0.100000 -0.831470 1.588318
v 0.100000 -0.831470 1.588318
v -0.100000 -0.707107 1.739854
v 0.100000 -0.707107 1.739854
v -0.100000 -0.555570 1.864217
v 0.100000 -0.555570 1.864217
v -0.100000 -0.382683 1.956627
v 0.100000 -0.382683 1.956627
v -0.100000 -0.195090 2.013533
v 0.100000 -0.195090 2.013533
v -0.100000 0.000000 2.032748
v 0.100000 0.000000 2.032748
v -0.100000 0.195090 2.013533
v 0.100000 0.195090 2.013533
v -0.100000 0.382683 1.956627
v 0.100000 0.382683 1.956627
v -0.100000 0.555570 1.864217
v 0.100000 0.555570 1.864217
v -0.100000 0.707107 1.739854
v 0.100000 0.707107 1.739854
v -0.100000 0.831470 1.588318
v 0.100000 0.831470 1.588318
v -0.100000 0.923880 1.415431
v 0.100000 0.923880 1.415431
v -0.100000 0.980785 1.227838
v 0.100000 0.980785 1.227838
v 0.100000 0.706749 1.504928
v 0.100000 0.833667 1.198520
v 0.100000 -0.472235 1.739443
v 0.100000 -0.325281 1.817991
v 0.100000 -0.833667 0.866867
v 0.100000 -0.601041 0.431653
v 0.100000 -0.785298 0.707412
v 0.100000 0.601041 0.431653
v 0.100000 0.325281 0.247396
v 0.100000 0.472235 1.739443
v 0.100000 0.325281 1.817991
v 0.100000 -0.706749 1.504928
v 0.100000 0.833667 0.866867
v 0.100000 -0.833667 1.198520
v 0.100000 0.785298 0.707412
v 0.100000 -0.325281 0.247396
v -0.100000 0.833667 0.866975
v -0.100000 0.472235 0.326052
v -0.100000 0.706749 0.560567
v -0.100000 -0.706749 0.560567
v -0.100000 -0.325281 0.247504
v -0.100000 -0.472235 0.326052
v -0.100000 -0.601041 1.633843
v -0.100000 -0.785298 1.358083
v -0.100000 -0.833667 1.198629
v -0.100000 0.325281 1.818099
v -0.100000 0.601041 1.633843
v -0.100000 0.325281 0.247504
v -0.100000 -0.325281 1.818099
v -0.100000 0.833667 1.198629
v -0.100000 -0.833667 0.866975
v -0.100000 0.785298 1.358083
v 0.100000 0.374336 0.273616
v 0.100000 -0.374336 0.273616
v 0.100000 -0.472235 0.325944
v 0.100000 -0.573702 0.409217
v 0.100000 0.472235 0.325944
v 0.100000 0.573702 0.409217
v 0.100000 0.614473 0.448020
v 0.100000 -0.685134 0.534121
v 0.100000 -0.706749 0.560459
v 0.100000 0.706749 0.560459
v 0.100000 0.769461 0.677784
v 0.100000 -0.769461 0.677784
v 0.100000 -0.841437 0.945753
v 0.100000 0.849999 1.032701
v 0.100000 -0.837998 1.154549
v 0.100000 -0.850000 1.032694
v 0.100000 -0.826377 1.222554
v 0.100000 0.826377 1.222554
v 0.100000 0.785298 1.357975
v 0.100000 0.717342 1.485111
v 0.100000 -0.785298 1.357975
v 0.100000 -0.717342 1.485111
v 0.100000 -0.603765 1.630414
v 0.100000 0.601041 1.633734
v 0.100000 0.700489 1.512556
v 0.100000 -0.601041 1.633734
v 0.100000 -0.596671 1.637321
v 0.100000 0.596671 1.637321
v 0.100000 -0.272677 1.833949
v 0.100000 0.272677 1.833949
v 0.100000 -0.165827 1.866361
v 0.100000 0.165827 1.866361
v 0.100000 0.000000 1.882694
v 0.100000 -0.187819 0.205697
v 0.100000 0.187819 0.205697
v 0.100000 -0.165827 0.199026
v 0.100000 0.165827 0.199026
v 0.100000 0.000000 0.182693
v -0.100000 0.573702 1.656279
v -0.100000 -0.187819 1.859798
v -0.100000 -0.374336 1.791879
v -0.100000 0.614473 1.617475
v -0.100000 0.706749 1.505037
v -0.100000 0.769461 1.387712
v -0.100000 -0.472235 1.739551
v -0.100000 -0.573702 1.656279
v -0.100000 -0.685134 1.531374
v -0.100000 -0.706749 1.505037
v -0.100000 -0.769461 1.387712
v -0.100000 0.849999 1.032794
v -0.100000 0.826377 0.842942
v -0.100000 -0.841437 1.119743
v -0.100000 -0.850000 1.032802
v -0.100000 -0.837998 0.910946
v -0.100000 0.785298 0.707521
v -0.100000 0.717342 0.580384
v -0.100000 0.700489 0.552939
v -0.100000 -0.826377 0.842942
v -0.100000 -0.717342 0.580384
v -0.100000 -0.785298 0.707521
v -0.100000 0.601041 0.431761
v -0.100000 0.596671 0.428175
v -0.100000 -0.601041 0.431761
v -0.100000 -0.603765 0.435081
v -0.100000 0.272677 0.231547
v -0.100000 -0.596671 0.428175
v -0.100000 0.165827 0.199134
v -0.100000 -0.272677 0.231547
v -0.100000 0.000000 0.182802
v -0.100000 -0.165827 0.199134
v -0.100000 -0.165827 1.866469
v -0.100000 0.374336 1.791879
v -0.100000 0.472235 1.739551
v -0.100000 0.000000 1.882802
v -0.100000 0.187819 1.859798
v -0.100000 0.165827 1.866469
v 0.000000 0.850000 1.032748
v 0.051063 0.821832 0.827877
v 0.068603 0.785298 0.707430
v -0.065101 0.706749 0.560548
v -0.074204 0.601041 0.431747
v 0.006374 0.472235 0.325995
v -0.067820 -0.348926 0.260125
v 0.006374 -0.472235 0.325995
v -0.074204 -0.601041 0.431747
v 0.039059 -0.674539 0.521244
v -0.087423 -0.607688 0.439854
v -0.065101 -0.706749 0.560548
v 0.068603 -0.785298 0.707430
v 0.000000 -0.850000 1.032748
v -0.051063 -0.821832 1.237618
v -0.068603 -0.785298 1.358066
v 0.065101 -0.706749 1.504947
v 0.087423 -0.607688 1.625641
v -0.039059 -0.674539 1.544251
v 0.074204 -0.601041 1.633748
v -0.006374 -0.472235 1.739500
v 0.067820 0.348926 1.805370
v -0.006374 0.472235 1.739500
v 0.074204 0.601041 1.633748
v 0.065101 0.706749 1.504947
v -0.068603 0.785298 1.358066
v -0.051063 0.821832 1.237618
vn -0.0000 -0.9952 0.0980
vn -0.0000 -0.9569 0.2903
vn -0.0000 -0.8819 0.4714
vn -0.0000 -0.7730 0.6344
vn -0.0000 -0.6344 0.7730
vn -0.0000 -0.4714 0.8819
vn -0.0000 -0.2903 0.9569
vn -0.0000 -0.0980 0.9952
vn -0.0000 0.0980 0.9952
vn -0.0000 0.2903 0.9569
vn -0.0000 0.4714 0.8819
vn -0.0000 0.6344 0.7730
vn -0.0000 0.7730 0.6344
vn -0.0000 0.8819 0.4714
vn -0.0000 0.9569 0.2903
vn -0.0000 0.9952 0.0980
vn -0.0000 0.9952 -0.0980
vn -0.0000 0.9569 -0.2903
vn -0.0000 0.8819 -0.4714
vn -0.0000 0.7730 -0.6344
vn -0.0000 0.6344 -0.7730
vn -0.0000 0.4714 -0.8819
vn -0.0000 0.2903 -0.9569
vn -0.0000 0.0980 -0.9952
vn -0.0000 -0.0980 -0.9952
vn -0.0000 -0.2903 -0.9569
vn -0.0000 -0.4714 -0.8819
vn -0.0000 -0.6344 -0.7730
vn -0.0000 -0.7730 -0.6344
vn -0.0000 -0.8819 -0.4714
vn -1.0000 -0.0000 -0.0000
vn -0.0000 -0.9569 -0.2903
vn -0.0000 -0.9952 -0.0980
vn 1.0000 -0.0000 -0.0000
vn -0.0002 0.9569 -0.2903
vn -0.0003 0.8819 -0.4714
vn -0.0003 0.7730 -0.6344
vn -0.0004 0.6344 -0.7730
vn -0.0005 0.4714 -0.8819
vn -0.0005 0.2903 -0.9569
vn -0.0005 -0.2903 -0.9569
vn -0.0005 -0.4714 -0.8819
vn -0.0004 -0.6344 -0.7730
vn -0.0003 -0.7730 -0.6344
vn -0.0003 -0.8819 -0.4714
vn -0.0002 -0.9569 -0.2903
vn -0.0001 -0.9952 -0.0980
vn 0.0001 -0.9952 0.0980
vn 0.0002 -0.9569 0.2903
vn 0.0003 -0.8819 0.4714
vn 0.0003 -0.7730 0.6344
vn 0.0004 -0.6344 0.7730
vn 0.0005 -0.4714 0.8819
vn 0.0005 -0.2903 0.9569
vn 0.0005 0.2903 0.9569
vn 0.0005 0.4714 0.8819
vn 0.0004 0.6344 0.7730
vn 0.0003 0.7730 0.6344
vn 0.0003 0.8819 0.4714
vn 0.0002 0.9569 0.2903
vn -0.0005 0.0980 -0.9952
vn -0.0005 -0.0980 -0.9952
vn 0.0005 -0.0980 0.9952
vn 0.0005 0.0980 0.9952
vn -0.0001 0.9952 -0.0980
vn -0.0004 -0.7730 -0.6344
vn 0.0004 -0.7730 0.6344
vn 0.0001 0.9952 0.0980
vt 0.968750 0.500000
vt 1.000000 1.000000
vt 1.000000 0.500000
vt 0.937500 0.500000
vt 0.968750 1.000000
vt 0.906250 0.500000
vt 0.937500 1.000000
vt 0.875000 0.500000
vt 0.906250 1.000000
vt 0.843750 0.500000
vt 0.875000 1.000000
vt 0.812500 0.500000
vt 0.843750 1.000000
vt 0.781250 0.500000
vt 0.812500 1.000000
vt 0.750000 0.500000
vt 0.781250 1.000000
vt 0.718750 0.500000
vt 0.750000 1.000000
vt 0.687500 0.500000
vt 0.718750 1.000000
vt 0.656250 0.500000
vt 0.687500 1.000000
vt 0.625000 0.500000
vt 0.656250 1.000000
vt 0.593750 0.500000
vt 0.625000 1.000000
vt 0.562500 0.500000
vt 0.593750 1.000000
vt 0.531250 0.500000
vt 0.562500 1.000000
vt 0.500000 0.500000
vt 0.531250 1.000000
vt 0.468750 0.500000
vt 0.500000 1.000000
vt 0.437500 0.500000
vt 0.468750 1.000000
vt 0.406250 0.500000
vt 0.437500 1.000000
vt 0.375000 0.500000
vt 0.406250 1.000000
vt 0.343750 0.500000
vt 0.375000 1.000000
vt 0.312500 0.500000
vt 0.343750 1.000000
vt 0.281250 0.500000
vt 0.312500 1.000000
vt 0.250000 0.500000
vt 0.281250 1.000000
vt 0.218750 0.500000
vt 0.250000 1.000000
vt 0.187500 0.500000
vt 0.218750 1.000000
vt 0.156250 0.500000
vt 0.187500 1.000000
vt 0.125000 0.500000
vt 0.156250 1.000000
vt 0.093750 0.500000
vt 0.125000 1.000000
vt 0.062500 0.500000
vt 0.093750 1.000000
vt 0.450093 0.289798
vt 0.448492 0.295077
vt 0.485388 0.296822
vt 0.031250 0.500000
vt 0.062500 1.000000
vt 0.000000 0.500000
vt 0.031250 1.000000
vt 0.561516 0.328067
vt 0.567809 0.339841
vt 0.528269 0.341844
vt 1.000000 0.750000
vt 1.000000 0.789683
vt 0.968750 0.789718
vt 0.961104 0.770307
vt 0.968750 0.710353
vt 0.910464 0.710415
vt 0.937500 0.777293
vt 0.906250 0.724268
vt 0.875000 0.720683
vt 0.878971 0.789808
vt 0.875000 0.789812
vt 0.904400 0.710421
vt 0.906250 0.710419
vt 0.868367 0.789816
vt 0.873940 0.710447
vt 0.843750 0.752681
vt 0.843750 0.710469
vt 0.812500 0.710486
vt 0.802191 0.710490
vt 0.812500 0.789851
vt 0.785560 0.789860
vt 0.697809 0.710490
vt 0.687500 0.789851
vt 0.687500 0.710486
vt 0.682472 0.723253
vt 0.656250 0.710469
vt 0.625000 0.789812
vt 0.625000 0.720683
vt 0.656250 0.752681
vt 0.593750 0.724268
vt 0.593750 0.710419
vt 0.623035 0.715436
vt 0.568801 0.789759
vt 0.562500 0.777293
vt 0.562500 0.789752
vt 0.531250 0.789718
vt 0.522964 0.710344
vt 0.516384 0.789701
vt 0.477036 0.789656
vt 0.468750 0.710282
vt 0.483616 0.710299
vt 0.437500 0.722707
vt 0.437500 0.710248
vt 0.406250 0.775732
vt 0.431199 0.710241
vt 0.406250 0.789581
vt 0.376965 0.784565
vt 0.343750 0.747319
vt 0.373940 0.789553
vt 0.343750 0.789531
vt 0.375000 0.779317
vt 0.368367 0.710184
vt 0.375000 0.710188
vt 0.312500 0.789514
vt 0.312500 0.710149
vt 0.302191 0.789510
vt 0.197809 0.789510
vt 0.187500 0.710149
vt 0.214440 0.710140
vt 0.182472 0.776747
vt 0.187500 0.789514
vt 0.156250 0.747319
vt 0.156250 0.789531
vt 0.125000 0.779317
vt 0.093750 0.775732
vt 0.095601 0.789580
vt 0.093750 0.789581
vt 0.121029 0.710192
vt 0.125000 0.710188
vt 0.089536 0.789585
vt 0.062500 0.722707
vt 0.038896 0.729693
vt 0.031250 0.789647
vt 0.031250 0.710282
vt 0.000000 0.750000
vt 0.000000 0.710317
vt 0.937500 0.710387
vt 0.931199 0.789759
vt 0.906250 0.789784
vt 0.822932 0.789846
vt 0.843750 0.789834
vt 0.781250 0.710496
vt 0.750000 0.710500
vt 0.781250 0.789862
vt 0.750000 0.789865
vt 0.718750 0.789862
vt 0.714440 0.789860
vt 0.718750 0.710496
vt 0.677068 0.789846
vt 0.656250 0.789834
vt 0.631633 0.789816
vt 0.625000 0.710446
vt 0.626060 0.710447
vt 0.624195 0.710446
vt 0.593750 0.789784
vt 0.603272 0.765609
vt 0.600140 0.789790
vt 0.589536 0.710415
vt 0.562500 0.710387
vt 0.535960 0.710358
vt 0.500000 0.750000
vt 0.500000 0.789683
vt 0.437500 0.789613
vt 0.461104 0.729693
vt 0.464040 0.789642
vt 0.406250 0.710216
vt 0.410464 0.789585
vt 0.396728 0.734391
vt 0.399860 0.710210
vt 0.375000 0.789553
vt 0.375805 0.789554
vt 0.322932 0.710154
vt 0.343750 0.710166
vt 0.285560 0.710140
vt 0.281250 0.789504
vt 0.281250 0.710138
vt 0.250000 0.789500
vt 0.250000 0.710135
vt 0.218750 0.710138
vt 0.218750 0.789504
vt 0.177068 0.710154
vt 0.156250 0.710166
vt 0.131633 0.710184
vt 0.126060 0.789553
vt 0.125000 0.789553
vt 0.068801 0.710241
vt 0.093750 0.710216
vt 0.062500 0.789613
vt 0.035960 0.789642
vt 0.050447 0.383337
vt 0.080393 0.363336
vt 0.061542 0.328067
vt 0.938459 0.171933
vt 0.919607 0.136664
vt 0.949553 0.116663
vt 0.438484 0.171933
vt 0.448492 0.204923
vt 0.471731 0.158156
vt 0.450093 0.210202
vt 0.485388 0.203178
vt 0.490000 0.250000
vt 0.454013 0.250000
vt 0.471731 0.341844
vt 0.438484 0.328067
vt 0.000000 1.000000
vt 0.514612 0.203178
vt 0.549907 0.210202
vt 0.510000 0.250000
vt 0.545987 0.250000
vt 0.549907 0.289798
vt 0.551508 0.295077
vt 0.514612 0.296822
vt 0.550447 0.383337
vt 0.580367 0.363336
vt 0.999999 0.710317
vt 0.937500 0.789752
vt 0.964040 0.710358
vt 0.531250 0.710353
vt 0.468750 0.789647
vt 0.062500 0.710248
vt 0.000001 0.789683
vt 0.875000 0.710446
vt 0.500006 0.789683
vt 0.500000 0.710317
vt 0.499994 0.710317
vt 0.210215 0.450080
vt 0.204447 0.448331
vt 0.203178 0.485388
vt 0.171946 0.438471
vt 0.158156 0.471731
vt 0.432192 0.339841
vt 0.419706 0.419706
vt 0.449553 0.383337
vt 0.399647 0.387689
vt 0.419633 0.363336
vt 0.341844 0.471731
vt 0.383337 0.449553
vt 0.335191 0.434671
vt 0.390335 0.397474
vt 0.394263 0.394250
vt 0.250000 0.490000
vt 0.296822 0.485388
vt 0.250011 0.454000
vt 0.289811 0.450080
vt 0.080294 0.419706
vt 0.116663 0.449553
vt 0.134846 0.418117
vt 0.141433 0.422162
vt 0.136677 0.419620
vt 0.028269 0.341844
vt 0.104903 0.393201
vt 0.105763 0.394250
vt 0.010000 0.250000
vt 0.014612 0.296822
vt 0.046013 0.250000
vt 0.057712 0.315442
vt 0.049933 0.289798
vt 0.028269 0.158156
vt 0.014612 0.203178
vt 0.057712 0.184558
vt 0.080294 0.080294
vt 0.050447 0.116663
vt 0.104903 0.106799
vt 0.061542 0.171933
vt 0.105763 0.105750
vt 0.158156 0.028269
vt 0.116663 0.050447
vt 0.141433 0.077838
vt 0.106560 0.105096
vt 0.250000 0.010000
vt 0.203178 0.014612
vt 0.220768 0.048880
vt 0.204447 0.051670
vt 0.250020 0.046001
vt 0.341844 0.028269
vt 0.296822 0.014612
vt 0.289811 0.049920
vt 0.270879 0.048055
vt 0.419706 0.080294
vt 0.383337 0.050447
vt 0.369670 0.085568
vt 0.335191 0.065329
vt 0.394263 0.105750
vt 0.399647 0.112311
vt 0.449553 0.116663
vt 0.432191 0.160159
vt 0.419633 0.136664
vt 0.049933 0.210202
vt 0.363349 0.080380
vt 0.363349 0.419620
vt 0.328080 0.061529
vt 0.328080 0.438471
vt 0.210215 0.049920
vt 0.171946 0.061529
vt 0.136677 0.080380
vt 0.080393 0.136664
vt 0.789786 0.450080
vt 0.795554 0.448331
vt 0.796822 0.485388
vt 0.828055 0.438471
vt 0.841844 0.471731
vt 0.600353 0.387689
vt 0.616663 0.449553
vt 0.580294 0.419706
vt 0.609665 0.397474
vt 0.605737 0.394250
vt 0.703178 0.485388
vt 0.658156 0.471731
vt 0.710189 0.450080
vt 0.664809 0.434671
vt 0.636651 0.419620
vt 0.750000 0.490000
vt 0.749989 0.454000
vt 0.883337 0.449553
vt 0.858567 0.422162
vt 0.949553 0.383337
vt 0.919706 0.419706
vt 0.895098 0.393201
vt 0.865154 0.418118
vt 0.894237 0.394250
vt 0.985388 0.296822
vt 0.971731 0.341844
vt 0.942288 0.315442
vt 0.938458 0.328067
vt 0.919607 0.363336
vt 0.985388 0.203178
vt 0.990000 0.250000
vt 0.953987 0.250000
vt 0.950067 0.210202
vt 0.971731 0.158156
vt 0.942288 0.184558
vt 0.883337 0.050447
vt 0.919706 0.080294
vt 0.893440 0.105096
vt 0.895098 0.106799
vt 0.863323 0.080380
vt 0.858567 0.077838
vt 0.796822 0.014612
vt 0.841844 0.028269
vt 0.795554 0.051670
vt 0.828054 0.061529
vt 0.703178 0.014612
vt 0.750000 0.010000
vt 0.729121 0.048055
vt 0.779233 0.048880
vt 0.710189 0.049920
vt 0.616663 0.050447
vt 0.658156 0.028269
vt 0.664809 0.065329
vt 0.671920 0.061529
vt 0.550447 0.116663
vt 0.580294 0.080294
vt 0.600353 0.112311
vt 0.630329 0.085568
vt 0.580367 0.136664
vt 0.528269 0.158156
vt 0.551508 0.204923
vt 0.567808 0.160159
vt 0.561516 0.171933
vt 0.605737 0.105750
vt 0.671920 0.438471
vt 0.636651 0.080380
vt 0.749980 0.046001
vt 0.789786 0.049920
vt 0.863323 0.419620
vt 0.950067 0.289798
vt 0.894237 0.105750
s 0
usemtl Material.002
f 3/1/1 2/2/1 1/3/1
f 5/4/2 4/5/2 3/1/2
f 7/6/3 6/7/3 5/4/3
f 9/8/4 8/9/4 7/6/4
f 11/10/5 10/11/5 9/8/5
f 13/12/6 12/13/6 11/10/6
f 15/14/7 14/15/7 13/12/7
f 17/16/8 16/17/8 15/14/8
f 19/18/9 18/19/9 17/16/9
f 21/20/10 20/21/10 19/18/10
f 23/22/11 22/23/11 21/20/11
f 25/24/12 24/25/12 23/22/12
f 27/26/13 26/27/13 25/24/13
f 29/28/14 28/29/14 27/26/14
f 31/30/15 30/31/15 29/28/15
f 33/32/16 32/33/16 31/30/16
f 35/34/17 34/35/17 33/32/17
f 37/36/18 36/37/18 35/34/18
f 39/38/19 38/39/19 37/36/19
f 41/40/20 40/41/20 39/38/20
f 43/42/21 42/43/21 41/40/21
f 45/44/22 44/45/22 43/42/22
f 47/46/23 46/47/23 45/44/23
f 49/48/24 48/49/24 47/46/24
f 51/50/25 50/51/25 49/48/25
f 53/52/26 52/53/26 51/50/26
f 55/54/27 54/55/27 53/52/27
f 57/56/28 56/57/28 55/54/28
f 59/58/29 58/59/29 57/56/29
f 61/60/30 60/61/30 59/58/30
f 133/62/31 131/63/31 16/64/31
f 63/65/32 62/66/32 61/60/32
f 1/67/33 64/68/33 63/65/33
f 90/69/34 168/70/34 53/71/34
f 173/72/17 110/73/17 77/74/17
f 174/75/35 81/76/35 77/74/35
f 152/77/36 175/78/36 176/79/36
f 177/80/37 103/81/37 72/82/37
f 176/79/37 153/83/37 83/84/37
f 177/80/38 72/82/38 102/85/38
f 158/86/38 178/87/38 82/88/38
f 92/89/39 82/88/39 178/87/39
f 161/90/40 73/91/40 131/92/40
f 164/93/41 80/94/41 85/95/41
f 179/96/42 86/97/42 85/95/42
f 70/98/43 181/99/43 180/100/43
f 184/101/44 84/102/44 183/103/44
f 184/101/45 108/104/45 185/105/45
f 185/105/46 71/106/46 69/107/46
f 150/108/47 69/107/47 109/109/47
f 111/110/48 89/111/48 148/112/48
f 188/113/49 88/114/49 89/111/49
f 189/115/50 145/116/50 188/113/50
f 189/115/51 76/117/51 190/118/51
f 193/119/52 123/120/52 67/121/52
f 192/122/52 142/123/52 87/124/52
f 193/119/53 68/125/53 93/126/53
f 125/127/54 93/126/54 68/125/54
f 126/128/55 90/129/55 171/130/55
f 194/131/56 90/129/56 75/132/56
f 195/133/57 74/134/57 196/135/57
f 197/136/58 121/137/58 65/138/58
f 196/135/58 138/139/58 91/140/58
f 116/141/59 198/142/59 197/136/59
f 199/143/60 66/144/60 94/145/60
f 173/146/16 146/147/16 94/145/16
f 151/148/35 174/75/35 175/78/35
f 175/78/36 152/77/36 151/148/36
f 176/79/36 107/149/36 106/150/36
f 103/81/37 177/80/37 176/79/37
f 177/80/38 102/85/38 178/87/38
f 97/151/39 178/87/39 101/152/39
f 131/92/40 163/153/40 161/90/40
f 165/154/61 133/155/61 134/156/61
f 132/157/62 165/154/62 134/156/62
f 130/158/41 166/159/41 132/157/41
f 180/100/42 98/160/42 99/161/42
f 100/162/43 180/100/43 99/161/43
f 181/99/43 159/163/43 162/164/43
f 159/163/44 183/103/44 160/165/44
f 105/166/44 182/167/44 104/168/44
f 155/169/45 185/105/45 156/170/45
f 108/104/45 184/101/45 105/166/45
f 156/170/46 185/105/46 154/171/46
f 186/172/47 150/108/47 109/109/47
f 186/172/48 112/173/48 111/110/48
f 117/174/49 187/175/49 113/176/49
f 145/116/50 189/115/50 144/177/50
f 117/174/50 118/178/50 188/113/50
f 144/177/51 191/179/51 143/180/51
f 122/181/51 190/118/51 119/182/51
f 142/123/52 192/122/52 193/119/52
f 193/119/53 137/183/53 141/184/53
f 136/185/54 127/186/54 167/187/54
f 167/187/63 129/188/63 170/189/63
f 172/190/64 129/188/64 128/191/64
f 128/191/55 171/130/55 172/190/55
f 168/192/56 195/133/56 169/193/56
f 195/133/57 135/194/57 169/193/57
f 196/135/57 124/195/57 120/196/57
f 138/139/58 196/135/58 197/136/58
f 197/136/59 140/197/59 139/198/59
f 198/142/59 116/141/59 115/199/59
f 199/143/60 115/199/60 114/200/60
f 56/201/31 74/202/31 75/203/31
f 85/204/34 86/205/34 23/206/34
f 3/1/1 4/5/1 2/2/1
f 5/4/2 6/7/2 4/5/2
f 7/6/3 8/9/3 6/7/3
f 9/8/4 10/11/4 8/9/4
f 11/10/5 12/13/5 10/11/5
f 13/12/6 14/15/6 12/13/6
f 15/14/7 16/17/7 14/15/7
f 17/16/8 18/19/8 16/17/8
f 19/18/9 20/21/9 18/19/9
f 21/20/10 22/23/10 20/21/10
f 23/22/11 24/25/11 22/23/11
f 25/24/12 26/27/12 24/25/12
f 27/26/13 28/29/13 26/27/13
f 29/28/14 30/31/14 28/29/14
f 31/30/15 32/33/15 30/31/15
f 33/32/16 34/35/16 32/33/16
f 35/34/17 36/37/17 34/35/17
f 37/36/18 38/39/18 36/37/18
f 39/38/19 40/41/19 38/39/19
f 41/40/20 42/43/20 40/41/20
f 43/42/21 44/45/21 42/43/21
f 45/44/22 46/47/22 44/45/22
f 47/46/23 48/49/23 46/47/23
f 49/48/24 50/51/24 48/49/24
f 51/50/25 52/53/25 50/51/25
f 53/52/26 54/55/26 52/53/26
f 55/54/27 56/57/27 54/55/27
f 57/56/28 58/59/28 56/57/28
f 59/58/29 60/61/29 58/59/29
f 61/60/30 62/66/30 60/61/30
f 80/207/31 130/208/31 22/209/31
f 130/208/31 132/210/31 20/211/31
f 22/209/31 130/208/31 20/211/31
f 18/212/31 20/211/31 132/210/31
f 18/212/31 132/210/31 134/213/31
f 14/214/31 16/64/31 131/63/31
f 16/64/31 18/212/31 133/62/31
f 133/62/31 18/212/31 134/213/31
f 131/63/31 73/215/31 14/214/31
f 63/65/32 64/68/32 62/66/32
f 1/67/33 2/216/33 64/68/33
f 47/217/34 167/218/34 49/219/34
f 167/218/34 170/220/34 49/219/34
f 172/221/34 171/222/34 51/223/34
f 171/222/34 90/69/34 53/71/34
f 51/223/34 171/222/34 53/71/34
f 170/220/34 172/221/34 49/219/34
f 51/223/34 49/219/34 172/221/34
f 55/224/34 53/71/34 168/70/34
f 168/70/34 169/225/34 55/224/34
f 77/74/65 81/76/65 173/72/65
f 81/76/65 146/226/65 173/72/65
f 79/227/35 175/78/35 77/74/35
f 175/78/35 174/75/35 77/74/35
f 174/75/35 147/228/35 81/76/35
f 79/227/36 107/149/36 175/78/36
f 107/149/36 176/79/36 175/78/36
f 176/79/36 83/84/36 152/77/36
f 97/151/39 73/91/39 178/87/39
f 73/91/39 92/89/39 178/87/39
f 161/90/40 92/89/40 73/91/40
f 164/93/41 130/158/41 80/94/41
f 179/96/42 180/100/42 86/97/42
f 85/95/42 80/94/42 179/96/42
f 80/94/42 98/160/42 179/96/42
f 162/164/43 86/97/43 181/99/43
f 86/97/43 180/100/43 181/99/43
f 180/100/43 100/162/43 70/98/43
f 84/102/44 160/165/44 183/103/44
f 183/103/66 181/99/66 184/101/66
f 181/99/44 70/98/44 182/167/44
f 70/98/44 104/168/44 182/167/44
f 182/167/44 184/101/44 181/99/44
f 108/104/45 71/106/45 185/105/45
f 185/105/45 155/169/45 184/101/45
f 155/169/45 84/102/45 184/101/45
f 69/107/46 95/229/46 185/105/46
f 95/229/46 154/171/46 185/105/46
f 150/108/47 95/229/47 69/107/47
f 111/110/48 78/230/48 89/111/48
f 89/111/49 78/230/49 187/175/49
f 78/230/49 113/176/49 187/175/49
f 187/175/49 188/113/49 89/111/49
f 145/116/50 88/114/50 188/113/50
f 188/113/50 118/178/50 189/115/50
f 118/178/50 76/117/50 189/115/50
f 76/117/51 119/182/51 190/118/51
f 190/118/67 192/122/67 189/115/67
f 192/122/51 87/124/51 191/179/51
f 87/124/51 143/180/51 191/179/51
f 191/179/51 189/115/51 192/122/51
f 93/126/53 137/183/53 193/119/53
f 193/119/53 67/121/53 68/125/53
f 125/127/54 136/185/54 93/126/54
f 126/128/55 75/132/55 90/129/55
f 74/134/56 195/133/56 194/131/56
f 194/131/56 168/192/56 90/129/56
f 75/132/56 74/134/56 194/131/56
f 74/134/57 124/195/57 196/135/57
f 196/135/57 91/140/57 195/133/57
f 91/140/57 135/194/57 195/133/57
f 96/231/59 140/197/59 198/142/59
f 140/197/59 197/136/59 198/142/59
f 197/136/59 65/138/59 116/141/59
f 96/231/60 198/142/60 94/145/60
f 198/142/60 199/143/60 94/145/60
f 199/143/60 114/200/60 66/144/60
f 94/145/68 66/144/68 173/146/68
f 66/144/68 110/232/68 173/146/68
f 151/148/35 147/228/35 174/75/35
f 157/233/37 153/83/37 177/80/37
f 153/83/37 176/79/37 177/80/37
f 176/79/37 106/150/37 103/81/37
f 102/85/38 101/152/38 178/87/38
f 178/87/38 158/86/38 177/80/38
f 158/86/38 157/233/38 177/80/38
f 131/92/40 133/155/40 163/153/40
f 165/154/61 163/153/61 133/155/61
f 132/157/62 166/159/62 165/154/62
f 130/158/41 164/93/41 166/159/41
f 180/100/42 179/96/42 98/160/42
f 159/163/44 181/99/44 183/103/44
f 105/166/44 184/101/44 182/167/44
f 109/109/47 112/234/47 186/172/47
f 186/172/47 149/235/47 150/108/47
f 111/110/48 148/112/48 186/172/48
f 148/112/48 149/236/48 186/172/48
f 117/174/49 188/113/49 187/175/49
f 144/177/51 189/115/51 191/179/51
f 122/181/51 192/122/51 190/118/51
f 122/181/52 123/120/52 192/122/52
f 123/120/52 193/119/52 192/122/52
f 193/119/52 141/184/52 142/123/52
f 136/185/54 125/127/54 127/186/54
f 167/187/63 127/186/63 129/188/63
f 172/190/64 170/189/64 129/188/64
f 128/191/55 126/128/55 171/130/55
f 168/192/56 194/131/56 195/133/56
f 120/196/58 121/137/58 196/135/58
f 121/137/58 197/136/58 196/135/58
f 197/136/58 139/198/58 138/139/58
f 199/143/60 198/142/60 115/199/60
f 66/237/31 114/238/31 64/239/31
f 114/238/31 115/240/31 62/241/31
f 14/214/31 73/215/31 97/242/31
f 10/243/31 12/244/31 102/245/31
f 12/244/31 14/214/31 97/242/31
f 102/245/31 12/244/31 101/246/31
f 6/247/31 8/248/31 107/249/31
f 8/248/31 10/243/31 103/250/31
f 72/251/31 10/243/31 102/245/31
f 2/252/31 4/253/31 110/254/31
f 4/253/31 6/247/31 77/255/31
f 110/254/31 4/253/31 77/255/31
f 62/241/31 64/239/31 114/238/31
f 64/239/31 2/252/31 66/237/31
f 66/237/31 2/252/31 110/254/31
f 58/256/31 60/257/31 121/258/31
f 60/257/31 62/241/31 116/259/31
f 65/260/31 60/257/31 116/259/31
f 54/261/31 56/201/31 75/203/31
f 56/201/31 58/256/31 124/262/31
f 124/262/31 58/256/31 120/263/31
f 50/264/31 52/265/31 129/266/31
f 52/265/31 54/261/31 126/267/31
f 129/266/31 52/265/31 128/268/31
f 46/269/31 48/270/31 125/271/31
f 48/270/31 50/264/31 129/266/31
f 42/272/31 44/273/31 123/274/31
f 44/273/31 46/269/31 68/275/31
f 42/272/31 123/274/31 122/276/31
f 38/277/31 40/278/31 118/279/31
f 40/278/31 42/272/31 119/280/31
f 119/280/31 42/272/31 122/276/31
f 34/281/31 36/282/31 111/283/31
f 36/282/31 38/277/31 113/284/31
f 34/281/31 111/283/31 112/285/31
f 30/286/31 32/287/31 69/288/31
f 32/287/31 34/281/31 109/289/31
f 26/290/31 28/291/31 104/292/31
f 28/291/31 30/286/31 108/293/31
f 26/290/31 70/294/31 100/295/31
f 22/209/31 24/296/31 98/297/31
f 24/296/31 26/290/31 100/295/31
f 99/298/31 24/296/31 100/295/31
f 98/297/31 80/207/31 22/209/31
f 99/298/31 98/297/31 24/296/31
f 70/294/31 26/290/31 104/292/31
f 32/287/31 109/289/31 69/288/31
f 109/289/31 34/281/31 112/285/31
f 48/270/31 129/266/31 127/299/31
f 60/257/31 65/260/31 121/258/31
f 10/243/31 72/251/31 103/250/31
f 97/242/31 101/246/31 12/244/31
f 105/300/31 28/291/31 108/293/31
f 105/300/31 104/292/31 28/291/31
f 8/248/31 103/250/31 106/301/31
f 8/248/31 106/301/31 107/249/31
f 71/302/31 108/293/31 30/286/31
f 6/247/31 107/249/31 79/303/31
f 69/288/31 71/302/31 30/286/31
f 6/247/31 79/303/31 77/255/31
f 78/304/31 111/283/31 36/282/31
f 78/304/31 36/282/31 113/284/31
f 117/305/31 113/284/31 38/277/31
f 62/241/31 115/240/31 116/259/31
f 118/279/31 117/305/31 38/277/31
f 119/280/31 76/306/31 40/278/31
f 76/306/31 118/279/31 40/278/31
f 121/258/31 120/263/31 58/256/31
f 124/262/31 74/202/31 56/201/31
f 75/203/31 126/267/31 54/261/31
f 126/267/31 128/268/31 52/265/31
f 127/299/31 125/271/31 48/270/31
f 125/271/31 68/275/31 46/269/31
f 67/307/31 123/274/31 44/273/31
f 67/307/31 44/273/31 68/275/31
f 81/308/34 147/309/34 3/310/34
f 147/309/34 151/311/34 5/312/34
f 55/224/34 169/225/34 135/313/34
f 59/314/34 57/315/34 138/316/34
f 57/315/34 55/224/34 135/313/34
f 138/316/34 57/315/34 91/317/34
f 63/318/34 61/319/34 94/320/34
f 61/319/34 59/314/34 140/321/34
f 140/321/34 59/314/34 139/322/34
f 3/310/34 1/323/34 81/308/34
f 1/323/34 63/318/34 146/324/34
f 7/325/34 5/312/34 152/326/34
f 5/312/34 3/310/34 147/309/34
f 11/327/34 9/328/34 158/329/34
f 9/328/34 7/325/34 153/330/34
f 157/331/34 9/328/34 153/330/34
f 15/332/34 13/333/34 161/334/34
f 13/333/34 11/327/34 92/335/34
f 92/335/34 11/327/34 82/336/34
f 19/337/34 17/338/34 165/339/34
f 17/338/34 15/332/34 165/339/34
f 19/337/34 165/339/34 166/340/34
f 23/206/34 21/341/34 85/204/34
f 21/341/34 19/337/34 164/342/34
f 85/204/34 21/341/34 164/342/34
f 27/343/34 25/344/34 160/345/34
f 25/344/34 23/206/34 162/346/34
f 27/343/34 84/347/34 155/348/34
f 31/349/34 29/350/34 154/351/34
f 29/350/34 27/343/34 155/348/34
f 156/352/34 29/350/34 155/348/34
f 35/353/34 33/354/34 148/355/34
f 33/354/34 31/349/34 150/356/34
f 35/353/34 148/355/34 89/357/34
f 39/358/34 37/359/34 145/360/34
f 37/359/34 35/353/34 89/357/34
f 88/361/34 37/359/34 89/357/34
f 43/362/34 41/363/34 142/364/34
f 41/363/34 39/358/34 143/365/34
f 43/362/34 142/364/34 141/366/34
f 47/217/34 45/367/34 136/368/34
f 45/367/34 43/362/34 137/369/34
f 93/370/34 45/367/34 137/369/34
f 136/368/34 167/218/34 47/217/34
f 93/370/34 136/368/34 45/367/34
f 37/359/34 88/361/34 145/360/34
f 29/350/34 156/352/34 154/351/34
f 84/347/34 27/343/34 160/345/34
f 9/328/34 157/331/34 158/329/34
f 1/323/34 146/324/34 81/308/34
f 135/313/34 91/317/34 57/315/34
f 137/369/34 43/362/34 141/366/34
f 59/314/34 138/316/34 139/322/34
f 142/364/34 41/363/34 87/371/34
f 87/371/34 41/363/34 143/365/34
f 61/319/34 140/321/34 96/372/34
f 61/319/34 96/372/34 94/320/34
f 144/373/34 143/365/34 39/358/34
f 63/318/34 94/320/34 146/324/34
f 145/360/34 144/373/34 39/358/34
f 148/355/34 33/354/34 149/374/34
f 5/312/34 151/311/34 152/326/34
f 149/374/34 33/354/34 150/356/34
f 95/375/34 150/356/34 31/349/34
f 7/325/34 152/326/34 83/376/34
f 83/376/34 153/330/34 7/325/34
f 158/329/34 82/336/34 11/327/34
f 92/335/34 161/334/34 13/333/34
f 161/334/34 163/377/34 15/332/34
f 166/340/34 164/342/34 19/337/34
f 86/205/34 162/346/34 23/206/34
f 162/346/34 159/378/34 25/344/34
f 159/378/34 160/345/34 25/344/34
f 154/351/34 95/375/34 31/349/34
f 15/332/34 163/377/34 165/339/34
o Cube
v 0.099945 -0.530292 0.360958
v -0.100055 -0.530369 0.361035
v 0.099947 0.671790 1.563039
v -0.100053 0.671713 1.563116
v 0.100053 -0.671713 0.502379
v -0.099947 -0.671790 0.502456
v 0.100055 0.530369 1.704461
v -0.099945 0.530292 1.704537
vn -0.0005 0.7071 -0.7071
vn -0.0000 0.7071 0.7071
vn 0.0005 -0.7071 0.7071
vn -0.0000 -0.7071 -0.7071
vn 1.0000 0.0004 -0.0004
vn -1.0000 -0.0004 0.0004
vt 0.625000 0.000000
vt 0.375000 0.250000
vt 0.375000 0.000000
vt 0.625000 0.250000
vt 0.375000 0.500000
vt 0.625000 0.500000
vt 0.375000 0.750000
vt 0.625000 0.750000
vt 0.375000 1.000000
vt 0.125000 0.750000
vt 0.125000 0.500000
vt 0.875000 0.500000
vt 0.625000 1.000000
vt 0.875000 0.750000
s 0
usemtl Material.001
f 201/379/69 202/380/69 200/381/69
f 203/382/70 206/383/70 202/380/70
f 207/384/71 204/385/71 206/383/71
f 205/386/72 200/387/72 204/385/72
f 206/383/73 200/388/73 202/389/73
f 203/390/74 205/386/74 207/384/74
f 201/379/69 203/382/69 202/380/69
f 203/382/70 207/384/70 206/383/70
f 207/384/71 205/386/71 204/385/71
f 205/386/72 201/391/72 200/387/72
f 206/383/73 204/385/73 200/388/73
f 203/390/74 201/392/74 205/386/74
