# Blender 4.3.2
# www.blender.org
mtllib highwayentrance.mtl
o beam
v 0.004427 0.013788 -0.004439
v 0.004439 0.183880 0.004427
v 0.004439 0.013788 0.004427
v -0.025035 0.004641 -0.024965
v 0.024965 -0.001120 -0.025035
v -0.025035 -0.001120 -0.024965
v 0.024965 0.004641 -0.025035
v 0.025035 -0.001120 0.024965
v 0.024965 -0.001120 -0.025035
v -0.024965 -0.001120 0.025035
v 0.024965 -0.001120 -0.025035
v 0.025035 -0.001120 0.024965
v -0.024965 0.004641 0.025035
v -0.025035 -0.001120 -0.024965
v -0.024965 -0.001120 0.025035
v 0.025035 0.004641 0.024965
v -0.024965 -0.001120 0.025035
v 0.025035 -0.001120 0.024965
v 0.004427 0.013788 -0.004439
v -0.025035 0.004641 -0.024965
v -0.004439 0.013788 -0.004427
v -0.004439 0.013788 -0.004427
v -0.024965 0.004641 0.025035
v -0.004427 0.013788 0.004439
v 0.004439 0.013788 0.004427
v 0.024965 0.004641 -0.025035
v 0.004427 0.013788 -0.004439
v -0.004427 0.013788 0.004439
v 0.025035 0.004641 0.024965
v 0.004439 0.013788 0.004427
v 0.004439 0.183880 0.004427
v -0.004439 0.183880 -0.004427
v -0.004427 0.183880 0.004439
v -0.004439 0.013788 -0.004427
v 0.004427 0.183880 -0.004439
v 0.004427 0.013788 -0.004439
v 0.004439 0.013788 0.004427
v -0.004427 0.183880 0.004439
v -0.004427 0.013788 0.004439
v -0.004427 0.013788 0.004439
v -0.004439 0.183880 -0.004427
v -0.004439 0.013788 -0.004427
v 0.004427 0.013788 -0.004439
v 0.004427 0.183880 -0.004439
v 0.004439 0.183880 0.004427
v -0.025035 0.004641 -0.024965
v 0.024965 0.004641 -0.025035
v 0.024965 -0.001120 -0.025035
v 0.024965 0.004641 -0.025035
v 0.025035 0.004641 0.024965
v 0.025035 -0.001120 0.024965
v -0.024965 -0.001120 0.025035
v -0.025035 -0.001120 -0.024965
v 0.024965 -0.001120 -0.025035
v -0.024965 0.004641 0.025035
v -0.025035 0.004641 -0.024965
v -0.025035 -0.001120 -0.024965
v 0.025035 0.004641 0.024965
v -0.024965 0.004641 0.025035
v -0.024965 -0.001120 0.025035
v 0.004427 0.013788 -0.004439
v 0.024965 0.004641 -0.025035
v -0.025035 0.004641 -0.024965
v -0.004439 0.013788 -0.004427
v -0.025035 0.004641 -0.024965
v -0.024965 0.004641 0.025035
v 0.004439 0.013788 0.004427
v 0.025035 0.004641 0.024965
v 0.024965 0.004641 -0.025035
v -0.004427 0.013788 0.004439
v -0.024965 0.004641 0.025035
v 0.025035 0.004641 0.024965
v 0.004439 0.183880 0.004427
v 0.004427 0.183880 -0.004439
v -0.004439 0.183880 -0.004427
v -0.004439 0.013788 -0.004427
v -0.004439 0.183880 -0.004427
v 0.004427 0.183880 -0.004439
v 0.004439 0.013788 0.004427
v 0.004439 0.183880 0.004427
v -0.004427 0.183880 0.004439
v -0.004427 0.013788 0.004439
v -0.004427 0.183880 0.004439
v -0.004439 0.183880 -0.004427
vn 1.0000 -0.0000 -0.0014
vn -0.0014 -0.0000 -1.0000
vn -0.0000 -1.0000 -0.0000
vn -1.0000 -0.0000 0.0014
vn 0.0014 -0.0000 1.0000
vn -0.0006 0.9137 -0.4064
vn -0.4064 0.9137 0.0006
vn 0.4064 0.9137 -0.0006
vn 0.0006 0.9137 0.4064
vn -0.0000 1.0000 -0.0000
vt 0.772166 0.647166
vt 0.772166 0.602834
vt 0.625000 0.750000
vt 0.375000 1.000000
vt 0.375000 0.750000
vt 0.625000 0.000000
vt 0.375000 0.250000
vt 0.375000 0.000000
vt 0.375000 0.500000
vt 0.125000 0.750000
vt 0.125000 0.500000
vt 0.625000 0.500000
vt 0.625000 0.250000
vt 0.727834 0.647166
vt 0.727834 0.602834
vt 0.875000 0.750000
vt 0.875000 0.500000
vt 0.625000 1.000000
s 1
usemtl Material.006
f 1/1/1 2/2/1 3/2/1
f 4/3/2 5/4/2 6/5/2
f 7/6/1 8/7/1 9/8/1
f 10/9/3 11/10/3 12/11/3
f 13/12/4 14/5/4 15/9/4
f 16/13/5 17/9/5 18/7/5
f 19/1/6 20/3/6 21/14/6
f 22/14/7 23/12/7 24/15/7
f 25/2/8 26/16/8 27/1/8
f 28/15/9 29/17/9 30/2/9
f 31/2/10 32/14/10 33/15/10
f 34/14/2 35/1/2 36/1/2
f 37/2/5 38/15/5 39/15/5
f 40/15/4 41/14/4 42/14/4
f 43/1/1 44/1/1 45/2/1
f 46/3/2 47/18/2 48/4/2
f 49/6/1 50/13/1 51/7/1
f 52/9/3 53/5/3 54/10/3
f 55/12/4 56/3/4 57/5/4
f 58/13/5 59/12/5 60/9/5
f 61/1/6 62/16/6 63/3/6
f 64/14/7 65/3/7 66/12/7
f 67/2/8 68/17/8 69/16/8
f 70/15/9 71/12/9 72/17/9
f 73/2/10 74/1/10 75/14/10
f 76/14/2 77/14/2 78/1/2
f 79/2/5 80/2/5 81/15/5
f 82/15/4 83/15/4 84/14/4
o Cube
v 0.000000 0.207766 0.021500
v 0.000000 0.210000 0.019899
v 0.000000 0.208456 0.021422
v 0.000000 0.209079 0.021194
v 0.000000 0.209573 0.020840
v 0.000000 0.209891 0.020394
v 0.000000 0.150000 0.019899
v 0.000000 0.152234 0.021500
v 0.000000 0.150109 0.020394
v 0.000000 0.150427 0.020840
v 0.000000 0.150921 0.021194
v 0.000000 0.151544 0.021422
v -0.000000 0.210000 -0.019899
v -0.000000 0.207766 -0.021500
v -0.000000 0.209891 -0.020394
v -0.000000 0.209573 -0.020840
v -0.000000 0.209079 -0.021194
v -0.000000 0.208456 -0.021422
v -0.000000 0.152234 -0.021500
v -0.000000 0.150000 -0.019899
v -0.000000 0.151544 -0.021422
v -0.000000 0.150921 -0.021194
v -0.000000 0.150427 -0.020840
v -0.000000 0.150109 -0.020394
v 0.005000 0.210000 0.019899
v 0.005000 0.207766 0.021500
v 0.005000 0.209891 0.020394
v 0.005000 0.209573 0.020840
v 0.005000 0.209079 0.021194
v 0.005000 0.208456 0.021422
v 0.005000 0.152234 0.021500
v 0.005000 0.150000 0.019899
v 0.005000 0.151544 0.021422
v 0.005000 0.150921 0.021194
v 0.005000 0.150427 0.020840
v 0.005000 0.150109 0.020394
v 0.005000 0.207766 -0.021500
v 0.005000 0.210000 -0.019899
v 0.005000 0.208456 -0.021422
v 0.005000 0.209079 -0.021194
v 0.005000 0.209573 -0.020840
v 0.005000 0.209891 -0.020394
v 0.005000 0.150000 -0.019899
v 0.005000 0.152234 -0.021500
v 0.005000 0.150109 -0.020394
v 0.005000 0.150427 -0.020840
v 0.005000 0.150921 -0.021194
v 0.005000 0.151544 -0.021422
vn -0.0000 -1.0000 -0.0000
vn 1.0000 -0.0000 -0.0000
vn -0.0000 -0.0000 -1.0000
vn -0.0000 1.0000 -0.0000
vn -1.0000 -0.0000 -0.0000
vn -0.0000 -0.9764 0.2158
vn -0.0000 -0.8150 0.5794
vn -0.0000 -0.5825 0.8128
vn -0.0000 -0.3430 0.9393
vn -0.0000 -0.1128 0.9936
vn -0.0000 0.9764 -0.2158
vn -0.0000 0.8150 -0.5794
vn -0.0000 0.5825 -0.8128
vn -0.0000 0.3430 -0.9393
vn -0.0000 0.1128 -0.9936
vn -0.0000 -0.9764 -0.2158
vn -0.0000 -0.8150 -0.5794
vn -0.0000 -0.5825 -0.8128
vn -0.0000 -0.3430 -0.9393
vn -0.0000 -0.1128 -0.9936
vn -0.0000 0.9764 0.2158
vn -0.0000 0.8150 0.5794
vn -0.0000 0.5825 0.8128
vn -0.0000 0.3430 0.9393
vn -0.0000 0.1128 0.9936
vn -0.0000 -0.0000 1.0000
vt 0.457209 0.585395
vt 0.371627 0.664605
vt 0.371627 0.585395
vt 0.014448 0.650908
vt 0.014182 0.984170
vt 0.009247 0.971754
vt 0.539605 0.667791
vt 0.460395 0.753373
vt 0.460395 0.667791
vt 0.628373 0.585395
vt 0.542791 0.664605
vt 0.542791 0.585395
vt 0.457209 0.664605
vt 0.457209 0.584411
vt 0.371627 0.584411
vt 0.457209 0.583522
vt 0.371627 0.583522
vt 0.457209 0.582209
vt 0.458522 0.496627
vt 0.459411 0.582209
vt 0.458522 0.582209
vt 0.459411 0.496627
vt 0.460395 0.582209
vt 0.628373 0.664605
vt 0.542791 0.665589
vt 0.628373 0.665589
vt 0.542791 0.666478
vt 0.628373 0.666478
vt 0.542791 0.667791
vt 0.541478 0.753373
vt 0.540589 0.667791
vt 0.541478 0.667791
vt 0.540589 0.753373
vt 0.371627 0.665589
vt 0.457209 0.665589
vt 0.371627 0.666478
vt 0.457209 0.666478
vt 0.371627 0.667791
vt 0.458522 0.667791
vt 0.459411 0.753373
vt 0.458522 0.753373
vt 0.459411 0.667791
vt 0.628373 0.584411
vt 0.542791 0.584411
vt 0.628373 0.583522
vt 0.542791 0.583522
vt 0.628373 0.582209
vt 0.541478 0.582209
vt 0.540589 0.496627
vt 0.541478 0.496627
vt 0.540589 0.582209
vt 0.539605 0.496627
vt 0.460395 0.496627
vt 0.137376 0.651103
vt 0.142311 0.663519
vt 0.138904 0.651713
vt 0.140281 0.653477
vt 0.141373 0.656224
vt 0.142072 0.659684
vt 0.142066 0.971964
vt 0.141821 0.975798
vt 0.137111 0.984365
vt 0.141115 0.979256
vt 0.140019 0.982000
vt 0.138639 0.983760
vt 0.012655 0.983560
vt 0.010186 0.979048
vt 0.011278 0.981795
vt 0.009486 0.975588
vt 0.009493 0.663308
vt 0.009738 0.659474
vt 0.010443 0.656016
vt 0.011539 0.653273
vt 0.012919 0.651513
vt 0.539605 0.753373
vt 0.457365 0.584411
vt 0.457817 0.583522
vt 0.458522 0.582817
vt 0.459411 0.582365
vt 0.539605 0.582209
vt 0.540589 0.582365
vt 0.541478 0.582817
vt 0.542183 0.583522
vt 0.542635 0.584411
vt 0.542635 0.665589
vt 0.541478 0.667183
vt 0.542183 0.666478
vt 0.540589 0.667635
vt 0.459411 0.667635
vt 0.458522 0.667183
vt 0.457817 0.666478
vt 0.457365 0.665589
vt 0.371627 0.582209
vt 0.628373 0.667791
vt 0.457209 0.667791
vt 0.542791 0.582209
s 0
usemtl Material.008
f 91/19/11 127/20/11 116/21/11
f 116/22/12 109/23/12 110/24/12
f 98/25/13 128/26/13 103/27/13
f 109/28/14 97/29/14 86/30/14
f 104/31/15 97/29/15 98/25/15
f 116/21/16 93/32/16 91/19/16
f 120/33/17 94/34/17 93/32/17
f 119/35/18 95/36/18 94/34/18
f 118/37/19 96/38/19 95/39/19
f 117/40/20 92/41/20 96/38/20
f 122/42/21 99/43/21 97/29/21
f 126/44/22 100/45/22 99/43/22
f 125/46/23 101/47/23 100/45/23
f 124/48/24 102/49/24 101/50/24
f 123/51/25 98/25/25 102/49/25
f 104/31/26 129/52/26 127/20/26
f 108/53/27 130/54/27 129/52/27
f 107/55/28 131/56/28 130/54/28
f 106/57/29 132/58/29 131/59/29
f 105/60/30 128/26/30 132/58/30
f 86/30/31 111/61/31 109/28/31
f 90/62/32 112/63/32 111/61/32
f 89/64/33 113/65/33 112/63/33
f 88/66/34 114/67/34 113/68/34
f 87/69/35 110/70/35 114/67/35
f 110/70/36 92/41/36 115/71/36
f 91/19/11 104/31/11 127/20/11
f 116/22/12 127/72/12 128/73/12
f 127/72/12 129/74/12 128/73/12
f 129/74/12 130/75/12 131/76/12
f 131/76/12 132/77/12 128/73/12
f 128/73/12 121/78/12 116/22/12
f 121/78/12 123/79/12 122/80/12
f 116/22/12 121/78/12 122/80/12
f 123/79/12 124/81/12 125/82/12
f 125/82/12 126/83/12 123/79/12
f 126/83/12 122/80/12 123/79/12
f 122/80/12 109/23/12 116/22/12
f 109/23/12 111/84/12 113/85/12
f 111/84/12 112/86/12 113/85/12
f 113/85/12 114/87/12 110/24/12
f 110/24/12 115/88/12 116/22/12
f 115/88/12 117/89/12 116/22/12
f 117/89/12 118/90/12 119/91/12
f 119/91/12 120/92/12 117/89/12
f 120/92/12 116/22/12 117/89/12
f 129/74/12 131/76/12 128/73/12
f 109/23/12 113/85/12 110/24/12
f 98/25/13 121/93/13 128/26/13
f 109/28/14 122/42/14 97/29/14
f 104/31/15 91/19/15 92/41/15
f 91/19/15 93/94/15 92/41/15
f 93/94/15 94/95/15 95/96/15
f 95/96/15 96/97/15 92/41/15
f 92/41/15 85/98/15 104/31/15
f 85/98/15 87/99/15 86/30/15
f 104/31/15 85/98/15 86/30/15
f 87/99/15 88/100/15 89/101/15
f 89/101/15 90/102/15 87/99/15
f 90/102/15 86/30/15 87/99/15
f 86/30/15 97/29/15 104/31/15
f 97/29/15 99/103/15 101/104/15
f 99/103/15 100/105/15 101/104/15
f 101/104/15 102/106/15 98/25/15
f 98/25/15 103/27/15 104/31/15
f 103/27/15 105/107/15 104/31/15
f 105/107/15 106/108/15 107/109/15
f 107/109/15 108/110/15 105/107/15
f 108/110/15 104/31/15 105/107/15
f 93/94/15 95/96/15 92/41/15
f 97/29/15 101/104/15 98/25/15
f 116/21/16 120/33/16 93/32/16
f 120/33/17 119/35/17 94/34/17
f 119/35/18 118/111/18 95/36/18
f 118/37/19 117/40/19 96/38/19
f 117/40/20 115/71/20 92/41/20
f 122/42/21 126/44/21 99/43/21
f 126/44/22 125/46/22 100/45/22
f 125/46/23 124/112/23 101/47/23
f 124/48/24 123/51/24 102/49/24
f 123/51/25 121/93/25 98/25/25
f 104/31/26 108/53/26 129/52/26
f 108/53/27 107/55/27 130/54/27
f 107/55/28 106/113/28 131/56/28
f 106/57/29 105/60/29 132/58/29
f 105/60/30 103/27/30 128/26/30
f 86/30/31 90/62/31 111/61/31
f 90/62/32 89/64/32 112/63/32
f 89/64/33 88/114/33 113/65/33
f 88/66/34 87/69/34 114/67/34
f 87/69/35 85/98/35 110/70/35
f 110/70/36 85/98/36 92/41/36
