# Blender 4.3.2
# www.blender.org
mtllib parking.mtl
o beam
v 0.004427 0.013788 -0.004439
v 0.004439 0.183880 0.004427
v 0.004439 0.013788 0.004427
v -0.025035 0.004641 -0.024965
v 0.024965 -0.001120 -0.025035
v -0.025035 -0.001120 -0.024965
v 0.024965 0.004641 -0.025035
v 0.025035 -0.001120 0.024965
v 0.024965 -0.001120 -0.025035
v -0.024965 -0.001120 0.025035
v 0.024965 -0.001120 -0.025035
v 0.025035 -0.001120 0.024965
v -0.024965 0.004641 0.025035
v -0.025035 -0.001120 -0.024965
v -0.024965 -0.001120 0.025035
v 0.025035 0.004641 0.024965
v -0.024965 -0.001120 0.025035
v 0.025035 -0.001120 0.024965
v 0.004427 0.013788 -0.004439
v -0.025035 0.004641 -0.024965
v -0.004439 0.013788 -0.004427
v -0.004439 0.013788 -0.004427
v -0.024965 0.004641 0.025035
v -0.004427 0.013788 0.004439
v 0.004439 0.013788 0.004427
v 0.024965 0.004641 -0.025035
v 0.004427 0.013788 -0.004439
v -0.004427 0.013788 0.004439
v 0.025035 0.004641 0.024965
v 0.004439 0.013788 0.004427
v 0.004439 0.183880 0.004427
v -0.004439 0.183880 -0.004427
v -0.004427 0.183880 0.004439
v -0.004439 0.013788 -0.004427
v 0.004427 0.183880 -0.004439
v 0.004427 0.013788 -0.004439
v 0.004439 0.013788 0.004427
v -0.004427 0.183880 0.004439
v -0.004427 0.013788 0.004439
v -0.004427 0.013788 0.004439
v -0.004439 0.183880 -0.004427
v -0.004439 0.013788 -0.004427
v 0.004427 0.013788 -0.004439
v 0.004427 0.183880 -0.004439
v 0.004439 0.183880 0.004427
v -0.025035 0.004641 -0.024965
v 0.024965 0.004641 -0.025035
v 0.024965 -0.001120 -0.025035
v 0.024965 0.004641 -0.025035
v 0.025035 0.004641 0.024965
v 0.025035 -0.001120 0.024965
v -0.024965 -0.001120 0.025035
v -0.025035 -0.001120 -0.024965
v 0.024965 -0.001120 -0.025035
v -0.024965 0.004641 0.025035
v -0.025035 0.004641 -0.024965
v -0.025035 -0.001120 -0.024965
v 0.025035 0.004641 0.024965
v -0.024965 0.004641 0.025035
v -0.024965 -0.001120 0.025035
v 0.004427 0.013788 -0.004439
v 0.024965 0.004641 -0.025035
v -0.025035 0.004641 -0.024965
v -0.004439 0.013788 -0.004427
v -0.025035 0.004641 -0.024965
v -0.024965 0.004641 0.025035
v 0.004439 0.013788 0.004427
v 0.025035 0.004641 0.024965
v 0.024965 0.004641 -0.025035
v -0.004427 0.013788 0.004439
v -0.024965 0.004641 0.025035
v 0.025035 0.004641 0.024965
v 0.004439 0.183880 0.004427
v 0.004427 0.183880 -0.004439
v -0.004439 0.183880 -0.004427
v -0.004439 0.013788 -0.004427
v -0.004439 0.183880 -0.004427
v 0.004427 0.183880 -0.004439
v 0.004439 0.013788 0.004427
v 0.004439 0.183880 0.004427
v -0.004427 0.183880 0.004439
v -0.004427 0.013788 0.004439
v -0.004427 0.183880 0.004439
v -0.004439 0.183880 -0.004427
vn 1.0000 -0.0000 -0.0014
vn -0.0014 -0.0000 -1.0000
vn -0.0000 -1.0000 -0.0000
vn -1.0000 -0.0000 0.0014
vn 0.0014 -0.0000 1.0000
vn -0.0006 0.9137 -0.4064
vn -0.4064 0.9137 0.0006
vn 0.4064 0.9137 -0.0006
vn 0.0006 0.9137 0.4064
vn -0.0000 1.0000 -0.0000
vt 0.772166 0.647166
vt 0.772166 0.602834
vt 0.625000 0.750000
vt 0.375000 1.000000
vt 0.375000 0.750000
vt 0.625000 0.000000
vt 0.375000 0.250000
vt 0.375000 0.000000
vt 0.375000 0.500000
vt 0.125000 0.750000
vt 0.125000 0.500000
vt 0.625000 0.500000
vt 0.625000 0.250000
vt 0.727834 0.647166
vt 0.727834 0.602834
vt 0.875000 0.750000
vt 0.875000 0.500000
vt 0.625000 1.000000
s 1
usemtl Material.006
f 1/1/1 2/2/1 3/2/1
f 4/3/2 5/4/2 6/5/2
f 7/6/1 8/7/1 9/8/1
f 10/9/3 11/10/3 12/11/3
f 13/12/4 14/5/4 15/9/4
f 16/13/5 17/9/5 18/7/5
f 19/1/6 20/3/6 21/14/6
f 22/14/7 23/12/7 24/15/7
f 25/2/8 26/16/8 27/1/8
f 28/15/9 29/17/9 30/2/9
f 31/2/10 32/14/10 33/15/10
f 34/14/2 35/1/2 36/1/2
f 37/2/5 38/15/5 39/15/5
f 40/15/4 41/14/4 42/14/4
f 43/1/1 44/1/1 45/2/1
f 46/3/2 47/18/2 48/4/2
f 49/6/1 50/13/1 51/7/1
f 52/9/3 53/5/3 54/10/3
f 55/12/4 56/3/4 57/5/4
f 58/13/5 59/12/5 60/9/5
f 61/1/6 62/16/6 63/3/6
f 64/14/7 65/3/7 66/12/7
f 67/2/8 68/17/8 69/16/8
f 70/15/9 71/12/9 72/17/9
f 73/2/10 74/1/10 75/14/10
f 76/14/2 77/14/2 78/1/2
f 79/2/5 80/2/5 81/15/5
f 82/15/4 83/15/4 84/14/4
o Cube
v 0.000056 0.150000 0.021029
v 0.000056 0.158971 0.030000
v 0.000056 0.150025 0.021699
v 0.000056 0.150100 0.022366
v 0.000056 0.150225 0.023025
v 0.000056 0.150399 0.023673
v 0.000056 0.150620 0.024306
v 0.000056 0.150888 0.024921
v 0.000056 0.151202 0.025514
v 0.000056 0.151559 0.026082
v 0.000056 0.151957 0.026622
v 0.000056 0.152395 0.027131
v 0.000056 0.152869 0.027605
v 0.000056 0.153378 0.028043
v 0.000056 0.153918 0.028441
v 0.000056 0.154486 0.028798
v 0.000056 0.155079 0.029112
v 0.000056 0.155694 0.029380
v 0.000056 0.156327 0.029601
v 0.000056 0.156975 0.029775
v 0.000056 0.157634 0.029900
v 0.000056 0.158301 0.029975
v 0.000056 0.201029 0.030000
v 0.000056 0.210000 0.021029
v 0.000056 0.201699 0.029975
v 0.000056 0.202366 0.029900
v 0.000056 0.203025 0.029775
v 0.000056 0.203673 0.029601
v 0.000056 0.204306 0.029380
v 0.000056 0.204921 0.029112
v 0.000056 0.205514 0.028798
v 0.000056 0.206082 0.028441
v 0.000056 0.206622 0.028043
v 0.000056 0.207131 0.027605
v 0.000056 0.207605 0.027131
v 0.000056 0.208043 0.026622
v 0.000056 0.208441 0.026082
v 0.000056 0.208798 0.025514
v 0.000056 0.209112 0.024921
v 0.000056 0.209380 0.024306
v 0.000056 0.209601 0.023673
v 0.000056 0.209775 0.023025
v 0.000056 0.209900 0.022366
v 0.000056 0.209975 0.021699
v 0.000056 0.158971 -0.030000
v 0.000056 0.150000 -0.021029
v 0.000056 0.158301 -0.029975
v 0.000056 0.157634 -0.029900
v 0.000056 0.156975 -0.029775
v 0.000056 0.156327 -0.029601
v 0.000056 0.155694 -0.029380
v 0.000056 0.155079 -0.029112
v 0.000056 0.154486 -0.028798
v 0.000056 0.153918 -0.028441
v 0.000056 0.153378 -0.028043
v 0.000056 0.152869 -0.027605
v 0.000056 0.152395 -0.027131
v 0.000056 0.151957 -0.026622
v 0.000056 0.151559 -0.026082
v 0.000056 0.151202 -0.025514
v 0.000056 0.150888 -0.024921
v 0.000056 0.150620 -0.024306
v 0.000056 0.150399 -0.023673
v 0.000056 0.150225 -0.023025
v 0.000056 0.150100 -0.022366
v 0.000056 0.150025 -0.021699
v 0.000056 0.210000 -0.021029
v 0.000056 0.201029 -0.030000
v 0.000056 0.209975 -0.021699
v 0.000056 0.209900 -0.022366
v 0.000056 0.209775 -0.023025
v 0.000056 0.209601 -0.023673
v 0.000056 0.209380 -0.024306
v 0.000056 0.209112 -0.024921
v 0.000056 0.208798 -0.025514
v 0.000056 0.208441 -0.026082
v 0.000056 0.208043 -0.026622
v 0.000056 0.207605 -0.027131
v 0.000056 0.207131 -0.027605
v 0.000056 0.206622 -0.028043
v 0.000056 0.206082 -0.028441
v 0.000056 0.205514 -0.028798
v 0.000056 0.204921 -0.029112
v 0.000056 0.204306 -0.029380
v 0.000056 0.203673 -0.029601
v 0.000056 0.203025 -0.029775
v 0.000056 0.202366 -0.029900
v 0.000056 0.201699 -0.029975
v 0.005056 0.158971 0.030000
v 0.005056 0.150000 0.021029
v 0.005056 0.158301 0.029975
v 0.005056 0.157634 0.029900
v 0.005056 0.156975 0.029775
v 0.005056 0.156327 0.029601
v 0.005056 0.155694 0.029380
v 0.005056 0.155079 0.029112
v 0.005056 0.154486 0.028798
v 0.005056 0.153918 0.028441
v 0.005056 0.153378 0.028043
v 0.005056 0.152869 0.027605
v 0.005056 0.152395 0.027131
v 0.005056 0.151957 0.026622
v 0.005056 0.151559 0.026082
v 0.005056 0.151202 0.025514
v 0.005056 0.150888 0.024921
v 0.005056 0.150620 0.024306
v 0.005056 0.150399 0.023673
v 0.005056 0.150225 0.023025
v 0.005056 0.150100 0.022366
v 0.005056 0.150025 0.021699
v 0.005056 0.210000 0.021029
v 0.005056 0.201029 0.030000
v 0.005056 0.209975 0.021699
v 0.005056 0.209900 0.022366
v 0.005056 0.209775 0.023025
v 0.005056 0.209601 0.023673
v 0.005056 0.209380 0.024306
v 0.005056 0.209112 0.024921
v 0.005056 0.208798 0.025514
v 0.005056 0.208441 0.026082
v 0.005056 0.208043 0.026622
v 0.005056 0.207605 0.027131
v 0.005056 0.207131 0.027605
v 0.005056 0.206622 0.028043
v 0.005056 0.206082 0.028441
v 0.005056 0.205514 0.028798
v 0.005056 0.204921 0.029112
v 0.005056 0.204306 0.029380
v 0.005056 0.203673 0.029601
v 0.005056 0.203025 0.029775
v 0.005056 0.202366 0.029900
v 0.005056 0.201699 0.029975
v 0.005056 0.150000 -0.021029
v 0.005056 0.158971 -0.030000
v 0.005056 0.150025 -0.021699
v 0.005056 0.150100 -0.022366
v 0.005056 0.150225 -0.023025
v 0.005056 0.150399 -0.023673
v 0.005056 0.150620 -0.024306
v 0.005056 0.150888 -0.024921
v 0.005056 0.151202 -0.025514
v 0.005056 0.151559 -0.026082
v 0.005056 0.151957 -0.026622
v 0.005056 0.152395 -0.027131
v 0.005056 0.152869 -0.027605
v 0.005056 0.153378 -0.028043
v 0.005056 0.153918 -0.028441
v 0.005056 0.154486 -0.028798
v 0.005056 0.155079 -0.029112
v 0.005056 0.155694 -0.029380
v 0.005056 0.156327 -0.029601
v 0.005056 0.156975 -0.029775
v 0.005056 0.157634 -0.029900
v 0.005056 0.158301 -0.029975
v 0.005056 0.201029 -0.030000
v 0.005056 0.210000 -0.021029
v 0.005056 0.201699 -0.029975
v 0.005056 0.202366 -0.029900
v 0.005056 0.203025 -0.029775
v 0.005056 0.203673 -0.029601
v 0.005056 0.204306 -0.029380
v 0.005056 0.204921 -0.029112
v 0.005056 0.205514 -0.028798
v 0.005056 0.206082 -0.028441
v 0.005056 0.206622 -0.028043
v 0.005056 0.207131 -0.027605
v 0.005056 0.207605 -0.027131
v 0.005056 0.208043 -0.026622
v 0.005056 0.208441 -0.026082
v 0.005056 0.208798 -0.025514
v 0.005056 0.209112 -0.024921
v 0.005056 0.209380 -0.024306
v 0.005056 0.209601 -0.023673
v 0.005056 0.209775 -0.023025
v 0.005056 0.209900 -0.022366
v 0.005056 0.209975 -0.021699
vn -0.0000 -0.0000 1.0000
vn 1.0000 -0.0000 -0.0000
vn -0.0000 1.0000 -0.0000
vn -1.0000 -0.0000 -0.0000
vn -0.0000 -0.0000 -1.0000
vn -0.0000 -0.9993 -0.0374
vn -0.0000 -0.9937 -0.1120
vn -0.0000 -0.9826 -0.1859
vn -0.0000 -0.9659 -0.2588
vn -0.0000 -0.9439 -0.3303
vn -0.0000 -0.9166 -0.3999
vn -0.0000 -0.8841 -0.4673
vn -0.0000 -0.8467 -0.5320
vn -0.0000 -0.8046 -0.5938
vn -0.0000 -0.7580 -0.6523
vn -0.0000 -0.7071 -0.7071
vn -0.0000 -0.6523 -0.7580
vn -0.0000 -0.5938 -0.8046
vn -0.0000 -0.5320 -0.8467
vn -0.0000 -0.4673 -0.8841
vn -0.0000 -0.3999 -0.9166
vn -0.0000 -0.3303 -0.9439
vn -0.0000 -0.2588 -0.9659
vn -0.0000 -0.1859 -0.9826
vn -0.0000 -0.1120 -0.9937
vn -0.0000 -0.0374 -0.9993
vn -0.0000 0.9993 -0.0374
vn -0.0000 0.9937 -0.1120
vn -0.0000 0.9826 -0.1859
vn -0.0000 0.9659 -0.2588
vn -0.0000 0.9439 -0.3303
vn -0.0000 0.9166 -0.3999
vn -0.0000 0.8841 -0.4673
vn -0.0000 0.8467 -0.5320
vn -0.0000 0.8046 -0.5938
vn -0.0000 0.7580 -0.6523
vn -0.0000 0.7071 -0.7071
vn -0.0000 0.6523 -0.7580
vn -0.0000 0.5938 -0.8046
vn -0.0000 0.5320 -0.8467
vn -0.0000 0.4673 -0.8841
vn -0.0000 0.3999 -0.9166
vn -0.0000 0.3303 -0.9439
vn -0.0000 0.2588 -0.9659
vn -0.0000 0.1859 -0.9826
vn -0.0000 0.1120 -0.9937
vn -0.0000 0.0374 -0.9993
vn -0.0000 -0.9993 0.0374
vn -0.0000 -0.9937 0.1120
vn -0.0000 -0.9826 0.1859
vn -0.0000 -0.9659 0.2588
vn -0.0000 -0.9439 0.3303
vn -0.0000 -0.9166 0.3999
vn -0.0000 -0.8841 0.4673
vn -0.0000 -0.8467 0.5320
vn -0.0000 -0.8046 0.5938
vn -0.0000 -0.7580 0.6523
vn -0.0000 -0.7071 0.7071
vn -0.0000 -0.6523 0.7580
vn -0.0000 -0.5938 0.8046
vn -0.0000 -0.5320 0.8467
vn -0.0000 -0.4673 0.8841
vn -0.0000 -0.3999 0.9166
vn -0.0000 -0.3303 0.9439
vn -0.0000 -0.2588 0.9659
vn -0.0000 -0.1859 0.9826
vn -0.0000 -0.1120 0.9937
vn -0.0000 -0.0374 0.9993
vn -0.0000 0.9993 0.0374
vn -0.0000 0.9937 0.1120
vn -0.0000 0.9826 0.1859
vn -0.0000 0.9659 0.2588
vn -0.0000 0.9439 0.3303
vn -0.0000 0.9166 0.3999
vn -0.0000 0.8841 0.4673
vn -0.0000 0.8467 0.5320
vn -0.0000 0.8046 0.5938
vn -0.0000 0.7580 0.6523
vn -0.0000 0.7071 0.7071
vn -0.0000 0.6523 0.7580
vn -0.0000 0.5938 0.8046
vn -0.0000 0.5320 0.8467
vn -0.0000 0.4673 0.8841
vn -0.0000 0.3999 0.9166
vn -0.0000 0.3303 0.9439
vn -0.0000 0.2588 0.9659
vn -0.0000 0.1859 0.9826
vn -0.0000 0.1120 0.9937
vn -0.0000 0.0374 0.9993
vn -0.0000 -1.0000 -0.0000
vt 0.478360 0.438255
vt 0.521640 0.376511
vt 0.521640 0.438255
vt 0.001123 0.709964
vt 0.016313 0.683461
vt 0.036123 0.677282
vt 0.407383 0.490768
vt 0.469128 0.447487
vt 0.469128 0.490768
vt 0.522330 0.561771
vt 0.529268 0.565776
vt 0.530872 0.570977
vt 0.478360 0.561745
vt 0.521640 0.500000
vt 0.521640 0.561745
vt 0.592617 0.490768
vt 0.530872 0.491458
vt 0.530872 0.490768
vt 0.592617 0.491458
vt 0.530872 0.492144
vt 0.592617 0.492144
vt 0.530872 0.492822
vt 0.592617 0.492822
vt 0.530872 0.493489
vt 0.592617 0.493489
vt 0.530872 0.494141
vt 0.592617 0.494141
vt 0.530872 0.494774
vt 0.592617 0.494774
vt 0.530872 0.495384
vt 0.592617 0.495384
vt 0.530872 0.495969
vt 0.592617 0.495969
vt 0.530872 0.496524
vt 0.592617 0.496524
vt 0.530872 0.497047
vt 0.592617 0.497047
vt 0.530872 0.500000
vt 0.527920 0.561745
vt 0.527396 0.500000
vt 0.527920 0.500000
vt 0.527397 0.561745
vt 0.526841 0.500000
vt 0.526841 0.561745
vt 0.526256 0.500000
vt 0.526256 0.561745
vt 0.525646 0.500000
vt 0.525646 0.561745
vt 0.525013 0.500000
vt 0.525013 0.561745
vt 0.524361 0.500000
vt 0.524361 0.561745
vt 0.523695 0.500000
vt 0.523695 0.561745
vt 0.523016 0.500000
vt 0.523016 0.561745
vt 0.522330 0.500000
vt 0.522330 0.561745
vt 0.407383 0.491458
vt 0.469128 0.491458
vt 0.407383 0.492144
vt 0.469128 0.492144
vt 0.407383 0.492822
vt 0.469128 0.492822
vt 0.407383 0.493489
vt 0.469128 0.493489
vt 0.407383 0.494141
vt 0.469128 0.494141
vt 0.407383 0.494774
vt 0.469128 0.494774
vt 0.407383 0.495384
vt 0.469128 0.495384
vt 0.407383 0.495969
vt 0.469128 0.495969
vt 0.407383 0.496524
vt 0.469128 0.496524
vt 0.407383 0.497047
vt 0.469128 0.497047
vt 0.407383 0.500000
vt 0.472080 0.500000
vt 0.472604 0.561745
vt 0.472080 0.561745
vt 0.472604 0.500000
vt 0.473159 0.561745
vt 0.473159 0.500000
vt 0.473744 0.561745
vt 0.473744 0.500000
vt 0.474354 0.561745
vt 0.474354 0.500000
vt 0.474987 0.561745
vt 0.474987 0.500000
vt 0.475639 0.561745
vt 0.475639 0.500000
vt 0.476305 0.561745
vt 0.476305 0.500000
vt 0.476984 0.561745
vt 0.476984 0.500000
vt 0.477670 0.561745
vt 0.477670 0.500000
vt 0.530872 0.447487
vt 0.592617 0.446797
vt 0.592617 0.447487
vt 0.530872 0.446797
vt 0.592617 0.446111
vt 0.530872 0.446111
vt 0.592617 0.445433
vt 0.530872 0.445433
vt 0.592617 0.444766
vt 0.530872 0.444766
vt 0.592617 0.444115
vt 0.530872 0.444115
vt 0.592617 0.443482
vt 0.530872 0.443482
vt 0.592617 0.442871
vt 0.530872 0.442871
vt 0.592617 0.442287
vt 0.530872 0.442287
vt 0.592617 0.441731
vt 0.530872 0.441731
vt 0.592617 0.441208
vt 0.530872 0.441208
vt 0.592617 0.438255
vt 0.527920 0.438255
vt 0.527396 0.376511
vt 0.527920 0.376511
vt 0.527397 0.438255
vt 0.526841 0.376511
vt 0.526841 0.438255
vt 0.526256 0.376511
vt 0.526256 0.438255
vt 0.525646 0.376511
vt 0.525646 0.438255
vt 0.525013 0.376511
vt 0.525013 0.438255
vt 0.524361 0.376511
vt 0.524361 0.438255
vt 0.523695 0.376511
vt 0.523695 0.438255
vt 0.523016 0.376511
vt 0.523016 0.438255
vt 0.522330 0.376511
vt 0.522330 0.438255
vt 0.407383 0.447487
vt 0.469128 0.446797
vt 0.407383 0.446797
vt 0.469128 0.446111
vt 0.407383 0.446111
vt 0.469128 0.445433
vt 0.407383 0.445433
vt 0.469128 0.444766
vt 0.407383 0.444766
vt 0.469128 0.444115
vt 0.407383 0.444115
vt 0.469128 0.443482
vt 0.407383 0.443482
vt 0.469128 0.442871
vt 0.407383 0.442871
vt 0.469128 0.442287
vt 0.407383 0.442287
vt 0.469128 0.441731
vt 0.407383 0.441731
vt 0.469128 0.441208
vt 0.407383 0.441208
vt 0.469128 0.438255
vt 0.472080 0.376511
vt 0.472604 0.438255
vt 0.472080 0.438255
vt 0.472604 0.376511
vt 0.473159 0.438255
vt 0.473159 0.376511
vt 0.473744 0.438255
vt 0.473744 0.376511
vt 0.474354 0.438255
vt 0.474354 0.376511
vt 0.474987 0.438255
vt 0.474987 0.376511
vt 0.475639 0.438255
vt 0.475639 0.376511
vt 0.476305 0.438255
vt 0.476305 0.376511
vt 0.476984 0.438255
vt 0.476984 0.376511
vt 0.477670 0.438255
vt 0.477670 0.376511
vt 0.478360 0.376511
vt 0.201152 0.676758
vt 0.236466 0.711848
vt 0.203783 0.676848
vt 0.206400 0.677135
vt 0.208988 0.677616
vt 0.211533 0.678289
vt 0.218768 0.681418
vt 0.214021 0.679151
vt 0.216437 0.680196
vt 0.221002 0.682812
vt 0.223125 0.684368
vt 0.225125 0.686079
vt 0.226993 0.687935
vt 0.228716 0.689925
vt 0.230286 0.692038
vt 0.231694 0.694262
vt 0.232931 0.696586
vt 0.233992 0.698995
vt 0.234869 0.701477
vt 0.235559 0.704018
vt 0.236056 0.706603
vt 0.236359 0.709218
vt 0.236989 0.876877
vt 0.236900 0.879508
vt 0.201899 0.912191
vt 0.236613 0.882125
vt 0.236132 0.884713
vt 0.235459 0.887258
vt 0.234597 0.889746
vt 0.233552 0.892162
vt 0.232329 0.894493
vt 0.230936 0.896727
vt 0.229379 0.898850
vt 0.227668 0.900851
vt 0.225813 0.902718
vt 0.223823 0.904441
vt 0.221710 0.906011
vt 0.219486 0.907419
vt 0.212270 0.910594
vt 0.217162 0.908656
vt 0.214752 0.909717
vt 0.209730 0.911283
vt 0.207145 0.911781
vt 0.204530 0.912084
vt 0.036870 0.912715
vt 0.034239 0.912625
vt 0.001967 0.882870
vt 0.001557 0.877625
vt 0.031622 0.912338
vt 0.029034 0.911857
vt 0.026489 0.911184
vt 0.019254 0.908054
vt 0.024002 0.910322
vt 0.021586 0.909277
vt 0.017021 0.906661
vt 0.014898 0.905104
vt 0.012897 0.903394
vt 0.011030 0.901538
vt 0.009306 0.899548
vt 0.007736 0.897435
vt 0.006329 0.895211
vt 0.005091 0.892887
vt 0.004031 0.890478
vt 0.003154 0.887995
vt 0.002464 0.885455
vt 0.001664 0.880255
vt 0.001033 0.712595
vt 0.001410 0.707348
vt 0.001891 0.704759
vt 0.002564 0.702214
vt 0.003426 0.699727
vt 0.004471 0.697311
vt 0.005693 0.694979
vt 0.007087 0.692746
vt 0.008643 0.690623
vt 0.010354 0.688622
vt 0.012210 0.686755
vt 0.014200 0.685031
vt 0.018537 0.682054
vt 0.025752 0.678879
vt 0.020861 0.680816
vt 0.023270 0.679756
vt 0.028293 0.678189
vt 0.030878 0.677692
vt 0.033493 0.677389
vt 0.530872 0.614257
vt 0.521640 0.623489
vt 0.530846 0.614947
vt 0.530769 0.615633
vt 0.530641 0.616312
vt 0.530462 0.616979
vt 0.529635 0.618873
vt 0.530234 0.617630
vt 0.529958 0.618263
vt 0.529268 0.619458
vt 0.528858 0.620014
vt 0.528408 0.620537
vt 0.527920 0.621025
vt 0.527396 0.621475
vt 0.526841 0.621885
vt 0.526256 0.622253
vt 0.525646 0.622575
vt 0.525013 0.622851
vt 0.524361 0.623079
vt 0.523695 0.623258
vt 0.523016 0.623386
vt 0.522330 0.623464
vt 0.478360 0.623489
vt 0.477670 0.623464
vt 0.469128 0.614257
vt 0.476984 0.623386
vt 0.476305 0.623258
vt 0.475639 0.623079
vt 0.474987 0.622851
vt 0.474354 0.622575
vt 0.473744 0.622253
vt 0.473159 0.621885
vt 0.472604 0.621475
vt 0.472080 0.621025
vt 0.471592 0.620537
vt 0.471142 0.620014
vt 0.470732 0.619458
vt 0.470365 0.618873
vt 0.469538 0.616979
vt 0.470042 0.618263
vt 0.469766 0.617630
vt 0.469359 0.616312
vt 0.469231 0.615633
vt 0.469153 0.614947
vt 0.469128 0.570977
vt 0.469153 0.570287
vt 0.476984 0.561848
vt 0.469231 0.569601
vt 0.469359 0.568923
vt 0.469538 0.568256
vt 0.470365 0.566361
vt 0.469766 0.567604
vt 0.470042 0.566971
vt 0.470732 0.565776
vt 0.471142 0.565221
vt 0.471592 0.564697
vt 0.472080 0.564209
vt 0.472604 0.563759
vt 0.473159 0.563349
vt 0.473744 0.562982
vt 0.474354 0.562659
vt 0.474987 0.562383
vt 0.475639 0.562155
vt 0.476305 0.561976
vt 0.477670 0.561771
vt 0.523016 0.561848
vt 0.523695 0.561976
vt 0.524361 0.562155
vt 0.525013 0.562383
vt 0.525646 0.562659
vt 0.526256 0.562982
vt 0.526841 0.563349
vt 0.527397 0.563759
vt 0.527920 0.564209
vt 0.528408 0.564697
vt 0.528858 0.565221
vt 0.529635 0.566361
vt 0.530462 0.568256
vt 0.529958 0.566971
vt 0.530234 0.567604
vt 0.530641 0.568923
vt 0.530769 0.569601
vt 0.530846 0.570287
vt 0.478360 0.500000
vt 0.592617 0.500000
vt 0.469128 0.500000
vt 0.530872 0.438255
vt 0.407383 0.438255
s 0
usemtl ParkingSign
f 196/19/11 86/20/11 173/21/11
f 175/22/12 187/23/12 174/24/12
f 151/25/13 195/26/13 240/27/13
f 131/28/14 143/29/14 130/30/14
f 152/31/15 218/32/15 129/33/15
f 130/34/16 219/35/16 217/36/16
f 150/37/17 220/38/17 219/35/17
f 149/39/18 221/40/18 220/38/18
f 148/41/19 222/42/19 221/40/19
f 147/43/20 223/44/20 222/42/20
f 146/45/21 224/46/21 223/44/21
f 145/47/22 225/48/22 224/46/22
f 144/49/23 226/50/23 225/48/23
f 143/51/24 227/52/24 226/50/24
f 142/53/25 228/54/25 227/52/25
f 141/55/26 229/56/26 228/54/26
f 140/57/27 230/58/27 229/59/27
f 139/60/28 231/61/28 230/58/28
f 138/62/29 232/63/29 231/61/29
f 137/64/30 233/65/30 232/63/30
f 136/66/31 234/67/31 233/65/31
f 135/68/32 235/69/32 234/67/32
f 134/70/33 236/71/33 235/69/33
f 133/72/34 237/73/34 236/71/34
f 132/74/35 238/75/35 237/73/35
f 131/76/36 218/32/36 238/75/36
f 240/27/37 153/77/37 151/25/37
f 260/78/38 154/79/38 153/77/38
f 259/80/39 155/81/39 154/79/39
f 258/82/40 156/83/40 155/81/40
f 257/84/41 157/85/41 156/83/41
f 256/86/42 158/87/42 157/85/42
f 255/88/43 159/89/43 158/87/43
f 254/90/44 160/91/44 159/89/44
f 253/92/45 161/93/45 160/91/45
f 252/94/46 162/95/46 161/93/46
f 251/96/47 163/97/47 162/95/47
f 250/98/48 164/99/48 163/100/48
f 249/101/49 165/102/49 164/99/49
f 248/103/50 166/104/50 165/102/50
f 247/105/51 167/106/51 166/104/51
f 246/107/52 168/108/52 167/106/52
f 245/109/53 169/110/53 168/108/53
f 244/111/54 170/112/54 169/110/54
f 243/113/55 171/114/55 170/112/55
f 242/115/56 172/116/56 171/114/56
f 241/117/57 152/31/57 172/116/57
f 174/118/58 87/119/58 85/120/58
f 194/121/59 88/122/59 87/119/59
f 193/123/60 89/124/60 88/122/60
f 192/125/61 90/126/61 89/124/61
f 191/127/62 91/128/62 90/126/62
f 190/129/63 92/130/63 91/128/63
f 189/131/64 93/132/64 92/130/64
f 188/133/65 94/134/65 93/132/65
f 187/135/66 95/136/66 94/134/66
f 186/137/67 96/138/67 95/136/67
f 185/139/68 97/140/68 96/138/68
f 184/141/69 98/142/69 97/143/69
f 183/144/70 99/145/70 98/142/70
f 182/146/71 100/147/71 99/145/71
f 181/148/72 101/149/72 100/147/72
f 180/150/73 102/151/73 101/149/73
f 179/152/74 103/153/74 102/151/74
f 178/154/75 104/155/75 103/153/75
f 177/156/76 105/157/76 104/155/76
f 176/158/77 106/159/77 105/157/77
f 175/160/78 86/20/78 106/159/78
f 108/161/79 197/162/79 195/26/79
f 128/163/80 198/164/80 197/162/80
f 127/165/81 199/166/81 198/164/81
f 126/167/82 200/168/82 199/166/82
f 125/169/83 201/170/83 200/168/83
f 124/171/84 202/172/84 201/170/84
f 123/173/85 203/174/85 202/172/85
f 122/175/86 204/176/86 203/174/86
f 121/177/87 205/178/87 204/176/87
f 120/179/88 206/180/88 205/178/88
f 119/181/89 207/182/89 206/180/89
f 118/183/90 208/184/90 207/185/90
f 117/186/91 209/187/91 208/184/91
f 116/188/92 210/189/92 209/187/92
f 115/190/93 211/191/93 210/189/93
f 114/192/94 212/193/94 211/191/94
f 113/194/95 213/195/95 212/193/95
f 112/196/96 214/197/96 213/195/96
f 111/198/97 215/199/97 214/197/97
f 110/200/98 216/201/98 215/199/98
f 109/202/99 196/19/99 216/201/99
f 217/36/100 85/120/100 130/34/100
f 196/19/11 107/203/11 86/20/11
f 174/24/12 217/204/12 218/205/12
f 217/204/12 219/206/12 218/205/12
f 219/206/12 220/207/12 221/208/12
f 221/208/12 222/209/12 225/210/12
f 222/209/12 223/211/12 225/210/12
f 223/211/12 224/212/12 225/210/12
f 225/210/12 226/213/12 227/214/12
f 227/214/12 228/215/12 229/216/12
f 229/216/12 230/217/12 231/218/12
f 231/218/12 232/219/12 233/220/12
f 233/220/12 234/221/12 235/222/12
f 235/222/12 236/223/12 233/220/12
f 236/223/12 237/224/12 233/220/12
f 237/224/12 238/225/12 218/205/12
f 218/205/12 239/226/12 174/24/12
f 239/226/12 241/227/12 240/228/12
f 174/24/12 239/226/12 240/228/12
f 241/227/12 242/229/12 243/230/12
f 243/230/12 244/231/12 245/232/12
f 245/232/12 246/233/12 247/234/12
f 247/234/12 248/235/12 249/236/12
f 249/236/12 250/237/12 251/238/12
f 251/238/12 252/239/12 249/236/12
f 252/239/12 253/240/12 249/236/12
f 253/240/12 254/241/12 257/242/12
f 254/241/12 255/243/12 257/242/12
f 255/243/12 256/244/12 257/242/12
f 257/242/12 258/245/12 240/228/12
f 258/245/12 259/246/12 240/228/12
f 259/246/12 260/247/12 240/228/12
f 240/228/12 195/248/12 174/24/12
f 195/248/12 197/249/12 215/250/12
f 174/24/12 195/248/12 196/251/12
f 197/249/12 198/252/12 199/253/12
f 199/253/12 200/254/12 203/255/12
f 200/254/12 201/256/12 203/255/12
f 201/256/12 202/257/12 203/255/12
f 203/255/12 204/258/12 205/259/12
f 205/259/12 206/260/12 207/261/12
f 207/261/12 208/262/12 209/263/12
f 209/263/12 210/264/12 211/265/12
f 211/265/12 212/266/12 213/267/12
f 213/267/12 214/268/12 211/265/12
f 214/268/12 215/250/12 211/265/12
f 215/250/12 216/269/12 196/251/12
f 196/251/12 173/270/12 174/24/12
f 173/270/12 175/22/12 174/24/12
f 175/22/12 176/271/12 177/272/12
f 177/272/12 178/273/12 179/274/12
f 179/274/12 180/275/12 181/276/12
f 181/276/12 182/277/12 183/278/12
f 183/278/12 184/279/12 185/280/12
f 185/280/12 186/281/12 183/278/12
f 186/281/12 187/23/12 183/278/12
f 187/23/12 188/282/12 191/283/12
f 188/282/12 189/284/12 191/283/12
f 189/284/12 190/285/12 191/283/12
f 191/283/12 192/286/12 174/24/12
f 192/286/12 193/287/12 174/24/12
f 193/287/12 194/288/12 174/24/12
f 219/206/12 221/208/12 237/224/12
f 225/210/12 227/214/12 229/216/12
f 229/216/12 231/218/12 225/210/12
f 231/218/12 233/220/12 225/210/12
f 237/224/12 218/205/12 219/206/12
f 241/227/12 243/230/12 249/236/12
f 243/230/12 245/232/12 249/236/12
f 245/232/12 247/234/12 249/236/12
f 197/249/12 199/253/12 215/250/12
f 195/248/12 215/250/12 196/251/12
f 203/255/12 205/259/12 207/261/12
f 207/261/12 209/263/12 215/250/12
f 209/263/12 211/265/12 215/250/12
f 175/22/12 177/272/12 179/274/12
f 179/274/12 181/276/12 187/23/12
f 181/276/12 183/278/12 187/23/12
f 221/208/12 225/210/12 233/220/12
f 233/220/12 237/224/12 221/208/12
f 249/236/12 253/240/12 257/242/12
f 257/242/12 240/228/12 241/227/12
f 199/253/12 203/255/12 215/250/12
f 203/255/12 207/261/12 215/250/12
f 175/22/12 179/274/12 187/23/12
f 187/23/12 191/283/12 174/24/12
f 241/227/12 249/236/12 257/242/12
f 151/25/13 108/161/13 195/26/13
f 130/30/14 85/289/14 86/290/14
f 85/289/14 87/291/14 86/290/14
f 87/291/14 88/292/14 89/293/14
f 89/293/14 90/294/14 93/295/14
f 90/294/14 91/296/14 93/295/14
f 91/296/14 92/297/14 93/295/14
f 93/295/14 94/298/14 95/299/14
f 95/299/14 96/300/14 97/301/14
f 97/301/14 98/302/14 99/303/14
f 99/303/14 100/304/14 101/305/14
f 101/305/14 102/306/14 103/307/14
f 103/307/14 104/308/14 101/305/14
f 104/308/14 105/309/14 101/305/14
f 105/309/14 106/310/14 86/290/14
f 86/290/14 107/311/14 130/30/14
f 107/311/14 109/312/14 108/313/14
f 130/30/14 107/311/14 108/313/14
f 109/312/14 110/314/14 111/315/14
f 111/315/14 112/316/14 113/317/14
f 113/317/14 114/318/14 115/319/14
f 115/319/14 116/320/14 117/321/14
f 117/321/14 118/322/14 119/323/14
f 119/323/14 120/324/14 117/321/14
f 120/324/14 121/325/14 117/321/14
f 121/325/14 122/326/14 125/327/14
f 122/326/14 123/328/14 125/327/14
f 123/328/14 124/329/14 125/327/14
f 125/327/14 126/330/14 108/313/14
f 126/330/14 127/331/14 108/313/14
f 127/331/14 128/332/14 108/313/14
f 108/313/14 151/333/14 130/30/14
f 151/333/14 153/334/14 171/335/14
f 130/30/14 151/333/14 152/31/14
f 153/334/14 154/336/14 155/337/14
f 155/337/14 156/338/14 159/339/14
f 156/338/14 157/340/14 159/339/14
f 157/340/14 158/341/14 159/339/14
f 159/339/14 160/342/14 161/343/14
f 161/343/14 162/344/14 163/345/14
f 163/345/14 164/346/14 165/347/14
f 165/347/14 166/348/14 167/349/14
f 167/349/14 168/350/14 169/351/14
f 169/351/14 170/352/14 167/349/14
f 170/352/14 171/335/14 167/349/14
f 171/335/14 172/353/14 152/31/14
f 152/31/14 129/33/14 130/30/14
f 129/33/14 131/28/14 130/30/14
f 131/28/14 132/354/14 133/355/14
f 133/355/14 134/356/14 135/357/14
f 135/357/14 136/358/14 137/359/14
f 137/359/14 138/360/14 139/361/14
f 139/361/14 140/362/14 141/363/14
f 141/363/14 142/364/14 139/361/14
f 142/364/14 143/29/14 139/361/14
f 143/29/14 144/365/14 147/366/14
f 144/365/14 145/367/14 147/366/14
f 145/367/14 146/368/14 147/366/14
f 147/366/14 148/369/14 130/30/14
f 148/369/14 149/370/14 130/30/14
f 149/370/14 150/371/14 130/30/14
f 87/291/14 89/293/14 105/309/14
f 93/295/14 95/299/14 97/301/14
f 97/301/14 99/303/14 93/295/14
f 99/303/14 101/305/14 93/295/14
f 105/309/14 86/290/14 87/291/14
f 109/312/14 111/315/14 117/321/14
f 111/315/14 113/317/14 117/321/14
f 113/317/14 115/319/14 117/321/14
f 153/334/14 155/337/14 171/335/14
f 151/333/14 171/335/14 152/31/14
f 159/339/14 161/343/14 163/345/14
f 163/345/14 165/347/14 171/335/14
f 165/347/14 167/349/14 171/335/14
f 131/28/14 133/355/14 135/357/14
f 135/357/14 137/359/14 143/29/14
f 137/359/14 139/361/14 143/29/14
f 89/293/14 93/295/14 101/305/14
f 101/305/14 105/309/14 89/293/14
f 117/321/14 121/325/14 125/327/14
f 125/327/14 108/313/14 109/312/14
f 155/337/14 159/339/14 171/335/14
f 159/339/14 163/345/14 171/335/14
f 131/28/14 135/357/14 143/29/14
f 143/29/14 147/366/14 130/30/14
f 109/312/14 117/321/14 125/327/14
f 152/31/15 239/372/15 218/32/15
f 130/34/16 150/37/16 219/35/16
f 150/37/17 149/39/17 220/38/17
f 149/39/18 148/41/18 221/40/18
f 148/41/19 147/43/19 222/42/19
f 147/43/20 146/45/20 223/44/20
f 146/45/21 145/47/21 224/46/21
f 145/47/22 144/49/22 225/48/22
f 144/49/23 143/51/23 226/50/23
f 143/51/24 142/53/24 227/52/24
f 142/53/25 141/55/25 228/54/25
f 141/55/26 140/373/26 229/56/26
f 140/57/27 139/60/27 230/58/27
f 139/60/28 138/62/28 231/61/28
f 138/62/29 137/64/29 232/63/29
f 137/64/30 136/66/30 233/65/30
f 136/66/31 135/68/31 234/67/31
f 135/68/32 134/70/32 235/69/32
f 134/70/33 133/72/33 236/71/33
f 133/72/34 132/74/34 237/73/34
f 132/74/35 131/76/35 238/75/35
f 131/76/36 129/33/36 218/32/36
f 240/27/37 260/78/37 153/77/37
f 260/78/38 259/80/38 154/79/38
f 259/80/39 258/82/39 155/81/39
f 258/82/40 257/84/40 156/83/40
f 257/84/41 256/86/41 157/85/41
f 256/86/42 255/88/42 158/87/42
f 255/88/43 254/90/43 159/89/43
f 254/90/44 253/92/44 160/91/44
f 253/92/45 252/94/45 161/93/45
f 252/94/46 251/96/46 162/95/46
f 251/96/47 250/374/47 163/97/47
f 250/98/48 249/101/48 164/99/48
f 249/101/49 248/103/49 165/102/49
f 248/103/50 247/105/50 166/104/50
f 247/105/51 246/107/51 167/106/51
f 246/107/52 245/109/52 168/108/52
f 245/109/53 244/111/53 169/110/53
f 244/111/54 243/113/54 170/112/54
f 243/113/55 242/115/55 171/114/55
f 242/115/56 241/117/56 172/116/56
f 241/117/57 239/372/57 152/31/57
f 174/118/58 194/121/58 87/119/58
f 194/121/59 193/123/59 88/122/59
f 193/123/60 192/125/60 89/124/60
f 192/125/61 191/127/61 90/126/61
f 191/127/62 190/129/62 91/128/62
f 190/129/63 189/131/63 92/130/63
f 189/131/64 188/133/64 93/132/64
f 188/133/65 187/135/65 94/134/65
f 187/135/66 186/137/66 95/136/66
f 186/137/67 185/139/67 96/138/67
f 185/139/68 184/375/68 97/140/68
f 184/141/69 183/144/69 98/142/69
f 183/144/70 182/146/70 99/145/70
f 182/146/71 181/148/71 100/147/71
f 181/148/72 180/150/72 101/149/72
f 180/150/73 179/152/73 102/151/73
f 179/152/74 178/154/74 103/153/74
f 178/154/75 177/156/75 104/155/75
f 177/156/76 176/158/76 105/157/76
f 176/158/77 175/160/77 106/159/77
f 175/160/78 173/21/78 86/20/78
f 108/161/79 128/163/79 197/162/79
f 128/163/80 127/165/80 198/164/80
f 127/165/81 126/167/81 199/166/81
f 126/167/82 125/169/82 200/168/82
f 125/169/83 124/171/83 201/170/83
f 124/171/84 123/173/84 202/172/84
f 123/173/85 122/175/85 203/174/85
f 122/175/86 121/177/86 204/176/86
f 121/177/87 120/179/87 205/178/87
f 120/179/88 119/181/88 206/180/88
f 119/181/89 118/376/89 207/182/89
f 118/183/90 117/186/90 208/184/90
f 117/186/91 116/188/91 209/187/91
f 116/188/92 115/190/92 210/189/92
f 115/190/93 114/192/93 211/191/93
f 114/192/94 113/194/94 212/193/94
f 113/194/95 112/196/95 213/195/95
f 112/196/96 111/198/96 214/197/96
f 111/198/97 110/200/97 215/199/97
f 110/200/98 109/202/98 216/201/98
f 109/202/99 107/203/99 196/19/99
f 217/36/100 174/118/100 85/120/100
